#N canvas 1718 80 433 416 12;
#X declare -lib pdlua -path eos;
#X msg 152 40 \; pd dsp \$1;
#X obj 39 325 helios-status;
#X obj 39 206 denormalize;
#X obj 67 262 r to-helios;
#X obj 54 153 s to-analyzer;
#X obj 39 299 helios 65535;
#X msg 265 141 singlemode \$1;
#X obj 388 139 tgl 20 0 empty empty empty 0 -10 0 12 #fcfcfc #000000 #000000 0 1;
#N canvas 3052 1090 450 300 setup 0;
#N canvas 1882 529 649 345 calculations 0;
#X msg 51 166 65535;
#X text 104 167 Helios DAC SR;
#X obj 53 87 bng 20 250 50 0 empty empty empty 0 -10 0 12 #fcfcfc #000000 #000000;
#X obj 47 196 /;
#X obj 51 114 t b b;
#X floatatom 48 272 7 0 0 0 - - - 0;
#X msg 83 140 64;
#X text 102 272 Block size;
#X obj 49 228 expr floor($f1 + 1);
#X text 115 139 Target Helios FPS;
#X obj 262 89 bang~;
#X obj 264 118 t b b;
#X obj 264 144 timer;
#X floatatom 264 173 8 0 0 0 - - - 0;
#X text 328 174 <-- measured time (msec) between blocks;
#X obj 264 199 expr 1000 / $f1;
#X floatatom 265 228 8 0 0 0 - - - 0;
#X text 329 228 <-- Helios framerate (expected);
#X obj 393 110 block~ 1024;
#X text 42 15 This is just a utility for calculating and verifying buffer size \, sample rate and frame rate. It's not required for using audio-to-helios;
#X connect 0 0 3 0;
#X connect 2 0 4 0;
#X connect 3 0 8 0;
#X connect 4 0 0 0;
#X connect 4 1 6 0;
#X connect 6 0 3 1;
#X connect 8 0 5 0;
#X connect 10 0 11 0;
#X connect 11 0 12 0;
#X connect 11 1 12 1;
#X connect 12 0 13 0;
#X connect 13 0 15 0;
#X connect 15 0 16 0;
#X restore 30 98 pd calculations;
#X obj 29 72 eoscsend aorus 12000;
#X obj 30 18 r to-analyzer;
#X obj 29 45 scale 1 1;
#X floatatom 102 45 5 0 0 0 - - - 0;
#X obj 206 144 pdlua;
#X obj 20 193 declare -lib pdlua -path eos;
#X msg 220 46 rawmode 1;
#X obj 207 15 loadbang;
#X obj 207 114 s to-helios;
#X text 21 221 In Pd audio settings set Block size:1024 \, and set Sample rate:65535. Set Helios sample rate to 65535, f 43;
#X msg 202 79 singlemode 1;
#X connect 2 0 3 0;
#X connect 3 0 1 0;
#X connect 4 0 3 1;
#X connect 4 0 3 2;
#X connect 7 0 9 0;
#X connect 8 0 7 0;
#X connect 8 0 11 0;
#X connect 11 0 9 0;
#X restore 308 50 pd setup;
#X obj 307 24 helios-control2;
#X msg 268 199 dumpframe 1;
#X floatatom 365 172 6 0 0 0 - - - 0;
#X msg 270 170 pps;
#X obj 39 14 tgl 20 0 empty empty empty 0 -10 0 12 #fcfcfc #000000 #000000 0 1;
#X floatatom 91 25 5 0 0 0 - - - 0;
#X obj 37 351 fpstimer;
#X obj 39 52 metro 12;
#N canvas 1737 605 765 779 generator 1;
#X floatatom 336 190 6 0 0 0 - - - 0;
#X floatatom 443 184 6 0 0 0 - - - 0;
#X floatatom 550 184 6 0 0 0 - - - 0;
#X obj 335 253 osc~ 0.5;
#X obj 550 251 osc~ 2;
#X text 546 153 Blue;
#X text 438 151 Green;
#X text 349 156 Red;
#X obj 443 251 osc~ 1;
#X msg 500 219 0.5;
#X floatatom 75 155 9 0 0 0 - - - 0;
#X obj 75 182 phasor~ 1;
#X obj 99 242 +~ 0.25;
#X obj 99 268 cos~;
#X obj 58 267 cos~;
#X floatatom 188 156 9 0 0 0 - - - 0;
#X obj 188 183 phasor~ 1;
#X obj 212 243 +~ 0.25;
#X obj 212 269 cos~;
#X obj 173 269 cos~;
#X obj 57 307 expr~ ($v1 + $v2) * 0.5, f 17;
#X obj 190 302 expr~ ($v1 + $v2) * 0.5, f 17;
#X obj 552 283 expr~ if($v1 < 0 \, -1 \, 1);
#X obj 738 384 tgl 20 0 empty empty empty 0 -10 0 12 #fcfcfc #000000 #000000 0 1;
#X obj 551 410 expr~ if($i2 == 0 \, -1 \, $v1);
#X obj 522 308 tgl 20 0 empty empty empty 0 -10 0 12 #fcfcfc #000000 #000000 0 1;
#X obj 335 334 expr~ if($i2 == 0 \, -1 \, $v1);
#X obj 635 340 tgl 20 0 empty empty empty 0 -10 0 12 #fcfcfc #000000 #000000 0 1;
#X obj 448 366 expr~ if($i2 == 0 \, -1 \, $v1);
#X floatatom 36 462 6 0 0 0 - - - 0;
#X text 33 427 X, f 4;
#X text 192 423 Y, f 4;
#X floatatom 189 462 6 0 0 0 - - - 0;
#X obj 188 525 osc~ 1.3;
#X obj 35 525 osc~ 3.4;
#X floatatom 148 113 5 0 0 0 - - - 0;
#X obj 105 31 tgl 20 0 empty empty empty 0 -10 0 12 #fcfcfc #000000 #000000 0 1;
#X obj 30 63 switch~ 1024 1 1;
#X obj 32 26 inlet;
#X obj 33 669 audio-to-helios, f 75;
#X obj 42 736 outlet;
#X floatatom 555 710 5 0 0 0 - - - 0;
#X obj 603 615 f 0;
#X obj 661 611 + 1;
#X floatatom 610 668 5 0 0 0 - - - 0;
#X obj 604 553 bng 20 250 50 0 empty empty empty 0 -10 0 12 #fcfcfc #000000 #000000;
#X msg 284 115 0;
#X obj 336 218 * 100;
#X obj 439 216 * 100;
#X obj 550 218 * 100;
#X floatatom 96 462 6 0 0 0 - - - 0;
#X floatatom 249 462 6 0 0 0 - - - 0;
#X obj 248 525 osc~ 1.3;
#X obj 95 525 osc~ 3.4;
#X obj 35 573 expr~ ($v1 + $v2) * 0.5, f 17;
#X obj 194 573 expr~ ($v1 + $v2) * 0.5, f 17;
#X floatatom 141 391 5 0 0 0 - - - 0;
#X obj 190 630 *~ 0.5;
#X connect 0 0 47 0;
#X connect 1 0 48 0;
#X connect 2 0 49 0;
#X connect 3 0 26 0;
#X connect 4 0 22 0;
#X connect 8 0 28 0;
#X connect 9 0 4 1;
#X connect 9 0 8 1;
#X connect 9 0 3 1;
#X connect 10 0 11 0;
#X connect 11 0 12 0;
#X connect 11 0 14 0;
#X connect 12 0 13 0;
#X connect 13 0 21 0;
#X connect 14 0 20 0;
#X connect 15 0 16 0;
#X connect 16 0 17 0;
#X connect 16 0 19 0;
#X connect 17 0 18 0;
#X connect 18 0 21 1;
#X connect 19 0 20 1;
#X connect 22 0 24 0;
#X connect 23 0 24 1;
#X connect 24 0 39 4;
#X connect 25 0 26 1;
#X connect 26 0 39 2;
#X connect 27 0 28 1;
#X connect 28 0 39 3;
#X connect 29 0 34 0;
#X connect 32 0 33 0;
#X connect 33 0 55 0;
#X connect 34 0 54 0;
#X connect 35 0 10 0;
#X connect 35 0 15 0;
#X connect 36 0 37 0;
#X connect 38 0 37 0;
#X connect 39 0 40 0;
#X connect 39 1 41 0;
#X connect 42 0 44 0;
#X connect 42 0 43 0;
#X connect 43 0 42 1;
#X connect 45 0 42 0;
#X connect 46 0 16 1;
#X connect 46 0 11 1;
#X connect 47 0 3 0;
#X connect 48 0 8 0;
#X connect 49 0 4 0;
#X connect 50 0 53 0;
#X connect 51 0 52 0;
#X connect 52 0 55 1;
#X connect 53 0 54 1;
#X connect 54 0 39 0;
#X connect 55 0 57 0;
#X connect 56 0 29 0;
#X connect 56 0 32 0;
#X connect 57 0 39 1;
#X restore 38 116 pd generator;
#X f 15;
#X obj 265 236 s to-helios;
#X connect 2 0 5 0;
#X connect 3 0 5 0;
#X connect 5 0 1 0;
#X connect 5 0 15 0;
#X connect 6 0 18 0;
#X connect 7 0 6 0;
#X connect 10 0 18 0;
#X connect 11 0 12 0;
#X connect 12 0 18 0;
#X connect 13 0 16 0;
#X connect 13 0 0 0;
#X connect 14 0 16 1;
#X connect 16 0 17 0;
#X connect 17 0 2 0;
#X connect 17 0 4 0;
