#N canvas 2614 89 656 866 12;
#X obj 273 30 inlet~;
#X obj 20 24 bang~;
#X obj 61 314 float 0;
#X obj 61 622 pack f f f f f, f 23;
#X obj 61 286 until;
#X obj 61 257 float;
#X msg 107 286 0;
#X obj 23 819 outlet;
#X obj 330 31 inlet~;
#X obj 383 30 inlet~;
#N canvas 2631 924 859 395 buffers 1;
#X text 31 145 RGB waveform buffers;
#X text 28 276 Helios frame buffer. Size MUST be audiobuf size * 5 (Eg 1024 * 5 = 5120), f 54;
#X text 36 47 Points buffers;
#X obj 37 75 array define -pix 256 128 -yrange -1 1 \$0-points-x 1024;
#X obj 34 105 array define -pix 256 128 -yrange -1 1 \$0-points-y 1024;
#X obj 38 172 array define -pix 256 128 -yrange -1 1 \$0-audiobuf-r 1024;
#X obj 35 202 array define -pix 256 128 -yrange -1 1 \$0-audiobuf-g 1024;
#X obj 34 231 array define -pix 256 128 -yrange -1 1 \$0-audiobuf-b 1024;
#X obj 38 319 array define -yrange -1 1 \$0-heliosbuf 5120;
#X restore 463 44 pd buffers;
#X msg 188 280 1024;
#X text 271 7 Red;
#X text 333 7 Green;
#X text 390 8 Blue;
#X obj 121 315 + 1;
#X obj 262 618 * 5;
#X obj 132 31 inlet~;
#X obj 189 32 inlet~;
#X text 130 8 X;
#X text 192 8 Y;
#X obj 20 51 t b b b b b b;
#X obj 61 344 t f f f f f f, f 29;
#X obj 112 819 outlet;
#X obj 21 728 t a b;
#X obj 111 783 / 5;
#X obj 141 465 expr ($f1 * 0.5 + 0.5);
#X obj 180 521 expr ($f1 * 0.5 + 0.5);
#X obj 219 578 expr ($f1 * 0.5 + 0.5);
#X obj 383 78 tabwrite~ \$0-audiobuf-b;
#X obj 330 101 tabwrite~ \$0-audiobuf-g;
#X obj 273 125 tabwrite~ \$0-audiobuf-r;
#X obj 189 149 tabwrite~ \$0-points-y;
#X obj 132 173 tabwrite~ \$0-points-x;
#X obj 61 378 tabread \$0-points-x;
#X obj 100 405 tabread \$0-points-y;
#X obj 141 442 tabread \$0-audiobuf-r;
#X obj 180 498 tabread \$0-audiobuf-g;
#X obj 220 555 tabread \$0-audiobuf-b;
#X obj 61 657 array set \$0-heliosbuf, f 23;
#X obj 19 691 array get \$0-heliosbuf;
#X obj 107 753 array size \$0-heliosbuf;
#X obj 347 333 * 5;
#X obj 347 360 array size \$0-heliosbuf;
#X obj 347 294 t f f f f f f;
#X obj 365 388 array size \$0-points-x;
#X obj 383 416 array size \$0-points-y;
#X obj 400 448 array size \$0-audiobuf-r;
#X obj 420 478 array size \$0-audiobuf-g;
#X obj 440 508 array size \$0-audiobuf-b;
#X obj 144 238 float \$1;
#X obj 346 255 float \$1;
#X obj 347 224 loadbang;
#X obj 20 204 t b b b b, f 18;
#X obj 345 198 block~ 1024;
#X connect 0 0 31 0;
#X connect 1 0 21 0;
#X connect 2 0 15 0;
#X connect 2 0 22 0;
#X connect 3 0 39 0;
#X connect 4 0 2 0;
#X connect 5 0 4 0;
#X connect 6 0 2 1;
#X connect 8 0 30 0;
#X connect 9 0 29 0;
#X connect 15 0 2 1;
#X connect 16 0 39 1;
#X connect 17 0 33 0;
#X connect 18 0 32 0;
#X connect 21 0 53 0;
#X connect 21 1 33 0;
#X connect 21 2 32 0;
#X connect 21 3 31 0;
#X connect 21 4 30 0;
#X connect 21 5 29 0;
#X connect 22 0 34 0;
#X connect 22 1 35 0;
#X connect 22 2 36 0;
#X connect 22 3 37 0;
#X connect 22 4 38 0;
#X connect 22 5 16 0;
#X connect 24 0 7 0;
#X connect 24 1 41 0;
#X connect 25 0 23 0;
#X connect 26 0 3 2;
#X connect 27 0 3 3;
#X connect 28 0 3 4;
#X connect 34 0 3 0;
#X connect 35 0 3 1;
#X connect 36 0 26 0;
#X connect 37 0 27 0;
#X connect 38 0 28 0;
#X connect 40 0 24 0;
#X connect 41 0 25 0;
#X connect 42 0 43 0;
#X connect 44 0 42 0;
#X connect 44 1 45 0;
#X connect 44 2 46 0;
#X connect 44 3 47 0;
#X connect 44 4 48 0;
#X connect 44 5 49 0;
#X connect 50 0 5 1;
#X connect 51 0 44 0;
#X connect 52 0 51 0;
#X connect 53 0 40 0;
#X connect 53 1 5 0;
#X connect 53 2 6 0;
#X connect 53 3 50 0;
