#N canvas 880 54 554 406 12;
#X obj 19 18 tgl 24 0 empty empty empty 17 7 0 10 -262144 -1 -1 1 1
;
#X floatatom 72 23 5 0 0 0 - - -;
#X text 113 22 FPS;
#X obj 171 13 helios-control;
#X obj 34 258 r helios-control;
#X obj 21 288 helios;
#X obj 21 319 helios-status;
#N canvas 0 54 370 266 debug-array 0;
#X obj 33 154 array set heliosdata;
#X obj 80 114 array size heliosdata;
#X obj 78 87 list length;
#X obj 31 210 array define -yrange -2048 2048 heliosdata;
#X obj 32 25 inlet;
#X obj 32 57 t l l, f 7;
#X connect 2 0 1 0;
#X connect 4 0 5 0;
#X connect 5 0 0 0;
#X connect 5 1 2 0;
#X restore 171 37 pd debug-array;
#N canvas 413 97 456 711 reload 1;
#X obj 12 13 inlet;
#X obj 55 601 pdlua;
#X msg 63 13 load zoombots.pd_lua;
#X msg 73 43 load symmetry.pd_lua;
#X msg 81 73 load polygon.pd_lua;
#X obj 13 47 t b;
#X msg 91 102 load composite.pd_lua;
#X msg 111 162 load translate.pd_lua;
#X msg 121 192 load render.pd_lua;
#X msg 131 222 load xygizmo.pd_lua;
#X msg 141 252 load color.pd_lua;
#X msg 101 132 load scale.pd_lua;
#X msg 151 282 load xyrgb-file.pd_lua;
#X msg 161 312 load normalize.pd_lua;
#X msg 171 342 load point.pd_lua;
#X msg 181 372 load colorscan.pd_lua;
#X msg 191 402 load eoshead.pd_lua;
#X msg 201 432 load eos.lua;
#X msg 211 462 load render2.pd_lua;
#X msg 221 492 load analyze.pd_lua;
#X msg 231 522 load graphicstest.pd_lua;
#X msg 241 552 load colorscan2.pd_lua;
#X msg 251 582 load colorwheel.pd_lua;
#X msg 261 612 load colormap.pd_lua;
#X msg 271 642 load ttlcolor.pd_lua;
#X msg 281 672 load colortest.pd_lua;
#X connect 0 0 5 0;
#X connect 2 0 1 0;
#X connect 3 0 1 0;
#X connect 4 0 1 0;
#X connect 5 0 2 0;
#X connect 5 0 3 0;
#X connect 5 0 4 0;
#X connect 5 0 6 0;
#X connect 5 0 8 0;
#X connect 5 0 7 0;
#X connect 5 0 9 0;
#X connect 5 0 10 0;
#X connect 5 0 12 0;
#X connect 5 0 13 0;
#X connect 5 0 11 0;
#X connect 5 0 14 0;
#X connect 5 0 15 0;
#X connect 5 0 16 0;
#X connect 5 0 17 0;
#X connect 5 0 18 0;
#X connect 5 0 19 0;
#X connect 5 0 20 0;
#X connect 5 0 21 0;
#X connect 5 0 22 0;
#X connect 5 0 23 0;
#X connect 5 0 24 0;
#X connect 5 0 25 0;
#X connect 6 0 1 0;
#X connect 7 0 1 0;
#X connect 8 0 1 0;
#X connect 9 0 1 0;
#X connect 10 0 1 0;
#X connect 11 0 1 0;
#X connect 12 0 1 0;
#X connect 13 0 1 0;
#X connect 14 0 1 0;
#X connect 15 0 1 0;
#X connect 16 0 1 0;
#X connect 17 0 1 0;
#X connect 18 0 1 0;
#X connect 19 0 1 0;
#X connect 20 0 1 0;
#X connect 21 0 1 0;
#X connect 22 0 1 0;
#X connect 23 0 1 0;
#X connect 24 0 1 0;
#X connect 25 0 1 0;
#X restore 172 60 pd reload;
#X obj 121 137 r to-composite;
#N canvas 400 443 332 373 clock 0;
#X obj 27 148 metro 50;
#X msg 83 87 1000 \$1;
#X obj 83 114 /;
#X obj 164 20 loadbang;
#X obj 28 40 inlet;
#X obj 85 40 inlet;
#X text 82 14 FPS;
#X obj 27 319 outlet;
#X text 25 14 start;
#X obj 167 84 v fps;
#X msg 163 45 30;
#X obj 58 272 v time;
#X obj 59 205 float;
#X obj 107 205 + 1;
#X obj 27 177 t b b;
#X obj 58 240 expr $f1 / fps;
#X msg 171 139 0;
#X connect 0 0 14 0;
#X connect 1 0 2 0;
#X connect 2 0 0 1;
#X connect 3 0 10 0;
#X connect 4 0 0 0;
#X connect 5 0 1 0;
#X connect 5 0 9 0;
#X connect 10 0 1 0;
#X connect 10 0 9 0;
#X connect 12 0 13 0;
#X connect 12 0 15 0;
#X connect 13 0 12 1;
#X connect 14 0 7 0;
#X connect 14 1 12 0;
#X connect 15 0 11 0;
#X connect 16 0 12 1;
#X restore 19 50 pd clock;
#X obj 365 130 tgl 15 0 empty empty empty 17 7 0 10 -262144 -1 -1 0
1;
#X obj 368 186 tgl 15 0 empty empty empty 17 7 0 10 -262144 -1 -1 1
1;
#N canvas 664 59 363 468 bots 0;
#X obj 71 151 zoombots;
#X floatatom 83 98 5 0 0 0 - - -;
#X msg 83 122 numbots \$1;
#X obj 71 246 symmetry;
#X floatatom 124 220 5 0 0 0 - - -;
#X obj 80 432 s to-composite;
#X obj 11 11 inlet;
#X obj 67 63 spigot;
#X obj 12 36 t b b, f 7;
#X obj 110 9 inlet;
#X obj 13 63 outlet;
#X obj 215 182 render-control;
#X obj 69 309 render points 8 32 12;
#X floatatom 218 347 5 0 0 0 - - -;
#X obj 71 181 ttlcolor blue;
#X obj 75 361 ttlcolor red blue;
#X connect 0 0 14 0;
#X connect 1 0 2 0;
#X connect 2 0 0 0;
#X connect 3 0 12 0;
#X connect 4 0 3 1;
#X connect 6 0 8 0;
#X connect 7 0 0 0;
#X connect 8 0 10 0;
#X connect 8 1 7 0;
#X connect 9 0 7 1;
#X connect 11 0 12 1;
#X connect 12 0 15 0;
#X connect 12 1 13 0;
#X connect 14 0 3 0;
#X connect 15 0 5 0;
#X restore 242 158 pd bots;
#X obj 367 159 tgl 15 0 empty empty empty 17 7 0 10 -262144 -1 -1 0
1;
#X obj 301 66 s to-composite;
#X floatatom 300 14 5 0 0 0 - - -;
#X msg 300 38 preblank \$1;
#X obj 370 216 tgl 15 0 empty empty empty 17 7 0 10 -262144 -1 -1 0
1;
#N canvas 776 507 675 386 xy-gizmo 1;
#X obj 85 108 xygizmo;
#X obj 84 341 s to-composite;
#N canvas 332 217 784 550 wave-control 0;
#X obj 637 363 v TWOPI;
#X msg 632 273 3.14159;
#X obj 634 314 * 2;
#X obj 108 260 tgl 15 0 empty empty empty 17 7 0 10 -262144 -1 -1 0
1;
#X obj 108 330 tgl 15 0 empty empty empty 17 7 0 10 -262144 -1 -1 1
1;
#X obj 108 164 spigot;
#X obj 230 167 spigot;
#X obj 114 406 spigot;
#X obj 233 406 spigot;
#X obj 630 238 loadbang;
#X obj 128 246 numvar x1freq 1;
#X obj 268 246 numvar x1amp 0.5;
#X obj 408 246 numvar x1phase 0;
#X obj 128 275 numvar y1freq 1;
#X obj 268 275 numvar y1amp 0.5;
#X obj 408 275 numvar y1phase 0.25;
#X obj 128 314 numvar x2freq 1;
#X obj 268 314 numvar x2amp 0.5;
#X obj 408 314 numvar x2phase 0;
#X obj 128 343 numvar y2freq 1;
#X obj 268 343 numvar y2amp 0.5;
#X obj 408 343 numvar y2phase 0.25;
#X obj 408 476 outlet;
#X obj 414 437 r \$0-out;
#X obj 409 390 s \$0-out;
#X obj 406 207 s \$0-out;
#X obj 131 212 numvar npoints 100;
#X connect 1 0 2 0;
#X connect 2 0 0 0;
#X connect 3 0 5 1;
#X connect 3 0 6 1;
#X connect 4 0 8 1;
#X connect 4 0 7 1;
#X connect 5 0 13 0;
#X connect 6 0 14 0;
#X connect 7 0 19 0;
#X connect 8 0 20 0;
#X connect 9 0 1 0;
#X connect 10 0 5 0;
#X connect 10 1 25 0;
#X connect 11 0 6 0;
#X connect 11 1 25 0;
#X connect 12 1 25 0;
#X connect 13 1 25 0;
#X connect 14 1 25 0;
#X connect 15 1 25 0;
#X connect 16 0 7 0;
#X connect 16 1 24 0;
#X connect 17 0 8 0;
#X connect 17 1 24 0;
#X connect 18 1 24 0;
#X connect 19 1 24 0;
#X connect 20 1 24 0;
#X connect 21 1 24 0;
#X connect 23 0 22 0;
#X connect 26 1 25 0;
#X coords 0 -1 1 1 450 170 2 100 200;
#X restore 204 11 pd wave-control;
#X obj 31 11 inlet;
#X obj 85 65 spigot;
#X obj 32 38 t b b, f 7;
#X obj 128 11 inlet;
#X obj 32 65 outlet;
#X obj 86 284 translate, f 17;
#N canvas 795 176 450 300 lfo-xy 0;
#X obj 40 24 inlet;
#X obj 42 69 t b b;
#X obj 31 230 outlet;
#X obj 81 230 outlet;
#X obj 169 28 inlet;
#X text 167 6 X range;
#X obj 249 27 inlet;
#X text 247 5 Y range;
#X obj 40 113 expr sin(time*3.14159 * 0.2021) * $f2, f 21;
#X obj 74 171 expr sin(time*3.14159 * 0.52) * $f3, f 21;
#X connect 0 0 1 0;
#X connect 1 0 8 0;
#X connect 1 1 9 0;
#X connect 4 0 8 1;
#X connect 6 0 9 2;
#X connect 8 0 2 0;
#X connect 9 0 3 0;
#X restore 144 254 pd lfo-xy;
#X obj 86 226 t l b, f 8;
#X obj 459 238 scale 2047 2047 255 255 255;
#X obj 90 187 scale 0.5 0.5;
#X floatatom 168 161 5 0 0 0 - - -;
#X floatatom 217 341 5 0 0 0 - - -;
#X obj 308 204 render-control;
#X obj 92 313 render lines 0 128 0;
#X obj 84 138 ttlcolor green;
#X floatatom 169 225 5 0 0 0 - - -;
#X floatatom 209 225 5 0 0 0 - - -;
#X connect 0 0 12 0;
#X connect 2 0 0 1;
#X connect 3 0 5 0;
#X connect 4 0 0 0;
#X connect 5 0 7 0;
#X connect 5 1 4 0;
#X connect 6 0 4 1;
#X connect 8 0 16 0;
#X connect 9 0 8 1;
#X connect 9 1 8 2;
#X connect 10 0 8 0;
#X connect 10 1 9 0;
#X connect 12 0 10 0;
#X connect 13 0 12 1;
#X connect 13 0 12 2;
#X connect 15 0 16 1;
#X connect 16 0 1 0;
#X connect 16 1 14 0;
#X connect 18 0 9 1;
#X connect 19 0 9 2;
#X restore 242 186 pd xy-gizmo;
#N canvas 36 465 924 387 modulate 0;
#X obj 150 335 s helios-control;
#X msg 150 283 rotation \$1;
#X obj 42 13 inlet;
#X obj 152 196 v time;
#X obj 152 255 * 1;
#X floatatom 175 229 5 0 0 0 - - -;
#X obj 157 113 spigot;
#X obj 194 80 tgl 15 0 empty empty empty 17 7 0 10 -262144 -1 -1 0
1;
#X obj 384 106 spigot;
#X obj 416 77 tgl 15 0 empty empty empty 17 7 0 10 -262144 -1 -1 0
1;
#X msg 373 285 linearityx \$1;
#X obj 374 252 * 1;
#X floatatom 402 228 5 0 0 0 - - -;
#X floatatom 650 152 5 0 0 0 - - -;
#X obj 628 108 spigot;
#X obj 660 79 tgl 15 0 empty empty empty 17 7 0 10 -262144 -1 -1 0
1;
#X obj 623 254 * 1;
#X floatatom 653 231 5 0 0 0 - - -;
#X msg 624 288 bowy \$1;
#X obj 35 324 outlet;
#X obj 40 45 t b b b b b b b, f 101;
#X obj 630 186 expr sin(time * 3.14159 * $f1);
#X floatatom 401 157 5 0 0 0 - - -;
#X obj 381 191 expr sin(time * 3.14159 * $f1);
#X connect 1 0 0 0;
#X connect 2 0 20 0;
#X connect 3 0 4 0;
#X connect 4 0 1 0;
#X connect 5 0 4 1;
#X connect 6 0 3 0;
#X connect 7 0 6 1;
#X connect 8 0 23 0;
#X connect 9 0 8 1;
#X connect 10 0 0 0;
#X connect 11 0 10 0;
#X connect 12 0 11 1;
#X connect 13 0 21 0;
#X connect 14 0 21 0;
#X connect 15 0 14 1;
#X connect 16 0 18 0;
#X connect 17 0 16 1;
#X connect 18 0 0 0;
#X connect 20 0 19 0;
#X connect 20 1 6 0;
#X connect 20 3 8 0;
#X connect 20 5 14 0;
#X connect 21 0 16 0;
#X connect 22 0 23 0;
#X connect 23 0 11 0;
#X restore 405 131 pd modulate;
#X obj 371 243 tgl 15 0 empty empty empty 17 7 0 10 -262144 -1 -1 0
1;
#N canvas 610 450 412 473 wander 0;
#X floatatom 123 32 5 0 0 0 - - -;
#X floatatom 167 32 5 0 0 0 - - -;
#X obj 79 431 s to-composite;
#X obj 79 326 translate, f 17;
#X obj 79 397 render lines;
#X obj 79 241 rotate;
#X obj 80 172 t l b;
#X obj 79 268 t l b, f 8;
#N canvas 0 54 450 300 lfo-xy 0;
#X obj 40 24 inlet;
#X obj 42 69 t b b;
#X obj 31 230 outlet;
#X obj 81 230 outlet;
#X obj 40 113 expr sin(time*3.14159 * 0.2021) * 2000, f 21;
#X obj 74 171 expr sin(time*3.14159 * 0.12) * 2000, f 21;
#X connect 0 0 1 0;
#X connect 1 0 4 0;
#X connect 1 1 5 0;
#X connect 4 0 2 0;
#X connect 5 0 3 0;
#X restore 137 296 pd lfo-xy;
#X obj 246 257 render-control;
#X floatatom 194 86 5 0 0 0 - - -;
#X floatatom 208 425 5 0 0 0 - - -;
#X floatatom 210 32 5 0 0 0 - - -;
#X obj 11 6 inlet;
#X obj 57 6 inlet;
#X obj 11 54 outlet;
#X obj 11 30 eoshead;
#X obj 79 145 color hsv 0 1 1;
#X obj 259 73 ttlcolor red;
#X floatatom 111 121 5 0 0 0 - - -;
#X obj 117 197 expr sin(time*3.14159 * 0.2) * 720, f 21;
#X obj 79 58 polygon 3 512 1;
#X floatatom 151 121 5 0 0 0 - - -;
#X floatatom 191 121 5 0 0 0 - - -;
#X connect 0 0 21 1;
#X connect 1 0 21 2;
#X connect 3 0 4 0;
#X connect 4 0 2 0;
#X connect 4 1 11 0;
#X connect 5 0 7 0;
#X connect 6 0 5 0;
#X connect 6 1 20 0;
#X connect 7 0 3 0;
#X connect 7 1 8 0;
#X connect 8 0 3 1;
#X connect 8 1 3 2;
#X connect 9 0 4 1;
#X connect 12 0 21 3;
#X connect 13 0 16 0;
#X connect 14 0 16 1;
#X connect 16 0 15 0;
#X connect 16 1 21 0;
#X connect 17 0 6 0;
#X connect 19 0 17 1;
#X connect 20 0 5 1;
#X connect 21 0 17 0;
#X connect 21 1 10 0;
#X connect 22 0 17 2;
#X connect 23 0 17 3;
#X restore 242 130 pd wander;
#X obj 371 267 tgl 15 0 empty empty empty 17 7 0 10 -262144 -1 -1 0
1;
#X obj 371 292 tgl 15 0 empty empty empty 17 7 0 10 -262144 -1 -1 0
1;
#N canvas 464 59 477 349 slowbeam 0;
#X obj 31 11 inlet;
#X obj 92 66 spigot;
#X obj 32 38 t b b, f 9;
#X obj 131 11 inlet;
#X obj 32 66 outlet;
#X floatatom 214 259 5 0 0 0 - - -;
#X obj 95 249 s to-composite;
#N canvas 46 523 450 300 lfo-xy 0;
#X obj 40 24 inlet;
#X obj 42 69 t b b;
#X obj 31 230 outlet;
#X obj 81 230 outlet;
#X obj 74 171 expr sin(time*3.14159 * 0.12) * 200, f 21;
#X obj 40 113 expr sin(time*3.14159 * 0.1021) * 1000, f 21;
#X connect 0 0 1 0;
#X connect 1 0 5 0;
#X connect 1 1 4 0;
#X connect 4 0 3 0;
#X connect 5 0 2 0;
#X restore 146 123 pd lfo-xy;
#X obj 93 95 t b b, f 8;
#X obj 93 158 point, f 16;
#X obj 95 221 render points 8 0;
#X obj 95 189 color white;
#X connect 0 0 2 0;
#X connect 1 0 8 0;
#X connect 2 0 4 0;
#X connect 2 1 1 0;
#X connect 3 0 1 1;
#X connect 7 0 9 1;
#X connect 7 1 9 2;
#X connect 8 0 9 0;
#X connect 8 1 7 0;
#X connect 9 0 11 0;
#X connect 10 0 6 0;
#X connect 10 1 5 0;
#X connect 11 0 10 0;
#X restore 242 291 pd slowbeam;
#X obj 371 319 tgl 15 0 empty empty empty 17 7 0 10 -262144 -1 -1 0
1;
#N canvas 777 518 515 340 scan 0;
#X floatatom 168 291 5 0 0 0 - - -;
#X obj 52 310 s to-composite;
#X obj 73 227 colorscan 500;
#X floatatom 290 170 5 0 0 0 - - -;
#X floatatom 356 170 5 0 0 0 - - -;
#X msg 355 197 bmod \$1;
#X msg 290 197 gmod \$1;
#X floatatom 416 170 5 0 0 0 - - -;
#X msg 415 197 npoints \$1;
#X floatatom 201 167 5 0 0 0 - - -;
#X msg 201 194 rmod \$1;
#X obj 58 162 colorscan2 500;
#X floatatom 269 22 5 0 0 0 - - -;
#X floatatom 335 22 5 0 0 0 - - -;
#X floatatom 403 22 5 0 0 0 - - -;
#X msg 402 49 npoints \$1;
#X floatatom 202 22 5 0 0 0 - - -;
#X msg 202 49 rfreq \$1;
#X msg 269 49 gfreq \$1;
#X msg 334 49 bfreq \$1;
#X floatatom 279 82 5 0 0 0 - - -;
#X floatatom 357 82 5 0 0 0 - - -;
#X floatatom 202 82 5 0 0 0 - - -;
#X msg 202 109 rphase \$1;
#X msg 356 109 bphase \$1;
#X msg 279 109 gphase \$1;
#X obj 10 12 inlet;
#X obj 56 12 inlet;
#X obj 10 60 outlet;
#X obj 10 36 eoshead;
#X obj 52 262 render points 0 64;
#X connect 3 0 6 0;
#X connect 4 0 5 0;
#X connect 5 0 2 1;
#X connect 6 0 2 1;
#X connect 7 0 8 0;
#X connect 8 0 2 1;
#X connect 9 0 10 0;
#X connect 10 0 2 1;
#X connect 11 0 30 0;
#X connect 12 0 18 0;
#X connect 13 0 19 0;
#X connect 14 0 15 0;
#X connect 15 0 11 1;
#X connect 16 0 17 0;
#X connect 17 0 11 1;
#X connect 18 0 11 1;
#X connect 19 0 11 1;
#X connect 20 0 25 0;
#X connect 21 0 24 0;
#X connect 22 0 23 0;
#X connect 23 0 11 1;
#X connect 24 0 11 1;
#X connect 25 0 11 1;
#X connect 26 0 29 0;
#X connect 27 0 29 1;
#X connect 29 0 28 0;
#X connect 29 1 11 0;
#X connect 30 0 1 0;
#X connect 30 1 0 0;
#X restore 242 318 pd scan;
#X obj 371 344 tgl 15 0 empty empty empty 17 7 0 10 -262144 -1 -1 0
1;
#X obj 20 168 composite 32 10;
#X obj 371 371 tgl 15 0 empty empty empty 17 7 0 10 -262144 -1 -1 0
1;
#N canvas 521 180 421 473 subdivision 0;
#X floatatom 223 238 5 0 0 0 - - -;
#X msg 99 110 -1 0 1 1 1 1 0 1 1 1, f 10;
#X floatatom 230 370 12 0 0 0 - - -;
#X obj 270 82 render-control;
#X obj 266 225 render-control;
#X obj 83 80 xyrgb-file square;
#X msg 188 173 accel \$1;
#X floatatom 189 143 5 0 0 0 - - -;
#X obj 94 421 s to-composite;
#X obj 154 12 bng 15 250 50 0 empty empty empty 17 7 0 10 -262144 -1
-1;
#X obj 93 342 render points 4 0 0;
#X obj 120 382 analyze;
#X obj 11 6 inlet;
#X obj 57 6 inlet;
#X obj 11 54 outlet;
#X obj 11 30 eoshead;
#X obj 97 212 render2 lines 0 1024 0;
#X obj 83 151 ttlcolor green;
#X connect 1 0 17 0;
#X connect 3 0 16 1;
#X connect 4 0 10 1;
#X connect 5 0 17 0;
#X connect 6 0 16 1;
#X connect 7 0 6 0;
#X connect 9 0 5 0;
#X connect 10 0 8 0;
#X connect 10 1 2 0;
#X connect 12 0 15 0;
#X connect 13 0 15 1;
#X connect 15 0 14 0;
#X connect 15 1 5 0;
#X connect 16 0 10 0;
#X connect 16 1 0 0;
#X connect 17 0 16 0;
#X restore 242 370 pd subdivision;
#X obj 21 224 scale 2047 2047 255 255 255;
#N canvas 446 395 426 241 graphics-test 0;
#X obj 11 6 inlet;
#X obj 57 6 inlet;
#X obj 11 54 outlet;
#X obj 11 30 eoshead;
#X obj 119 100 graphicstest;
#X floatatom 200 127 5 0 0 0 - - -;
#X obj 212 33 bng 15 250 50 0 empty empty empty 17 7 0 10 -262144 -1
-1;
#X obj 44 116 print;
#X obj 281 27 render-control;
#X obj 117 153 render lines 8 32 5;
#X connect 0 0 3 0;
#X connect 1 0 3 1;
#X connect 3 0 2 0;
#X connect 3 1 4 0;
#X connect 4 0 9 0;
#X connect 4 1 5 0;
#X connect 6 0 4 0;
#X connect 8 0 9 1;
#X restore 405 158 pd graphics-test;
#X obj 531 158 tgl 15 0 empty empty empty 17 7 0 10 -262144 -1 -1 0
1;
#N canvas 485 54 482 302 render-test 0;
#X obj 31 11 inlet;
#X obj 92 66 spigot;
#X obj 32 38 t b b, f 9;
#X obj 131 11 inlet;
#X obj 32 66 outlet;
#X floatatom 216 237 5 0 0 0 - - -;
#X obj 97 199 render points 0 0;
#X obj 296 21 render-control;
#X msg 97 95 -50 0 255 255 255 50 0 255 255 255, f 18;
#X obj 97 227 s to-composite;
#X obj 96 138 normalize;
#X obj 272 199 xyrgb-file square_d0s0;
#X obj 316 163 print;
#X connect 0 0 2 0;
#X connect 1 0 8 0;
#X connect 2 0 4 0;
#X connect 2 1 1 0;
#X connect 3 0 1 1;
#X connect 6 0 9 0;
#X connect 6 1 5 0;
#X connect 7 0 6 1;
#X connect 8 0 10 0;
#X connect 10 0 6 0;
#X restore 242 266 pd render-test;
#N canvas 150 373 693 509 poly-test 0;
#X obj 31 11 inlet;
#X obj 84 65 spigot;
#X obj 32 38 t b b;
#X obj 127 11 inlet;
#X obj 32 66 outlet;
#X obj 85 99 t b b, f 45;
#X obj 405 403 render lines;
#X obj 96 437 s to-composite;
#X obj 408 436 s to-composite;
#X obj 87 300 translate -1500 0;
#X obj 402 296 translate 1500 0;
#X obj 399 267 rotate;
#X obj 400 215 t l b;
#X obj 88 272 rotate;
#X obj 89 218 t l b;
#X obj 222 287 render-control;
#X obj 126 243 expr time * 50;
#X obj 437 240 expr time * -50;
#X obj 554 272 render-control;
#X obj 99 407 render lines 8 32;
#X floatatom 177 127 5 0 0 0 - - -;
#X floatatom 219 186 5 0 0 0 - - -;
#X floatatom 133 126 5 0 0 0 - - -;
#X obj 88 151 polygon 5 512 1;
#X obj 400 150 polygon 4 512 1;
#X obj 88 183 ttlcolor yellow;
#X obj 400 182 ttlcolor cyan;
#X connect 0 0 2 0;
#X connect 1 0 5 0;
#X connect 2 0 4 0;
#X connect 2 1 1 0;
#X connect 3 0 1 1;
#X connect 5 0 23 0;
#X connect 5 1 24 0;
#X connect 6 0 8 0;
#X connect 9 0 19 0;
#X connect 10 0 6 0;
#X connect 11 0 10 0;
#X connect 12 0 11 0;
#X connect 12 1 17 0;
#X connect 13 0 9 0;
#X connect 14 0 13 0;
#X connect 14 1 16 0;
#X connect 15 0 19 1;
#X connect 16 0 13 1;
#X connect 17 0 11 1;
#X connect 18 0 6 1;
#X connect 19 0 7 0;
#X connect 20 0 23 2;
#X connect 22 0 23 1;
#X connect 23 0 25 0;
#X connect 23 1 21 0;
#X connect 24 0 26 0;
#X connect 25 0 14 0;
#X connect 26 0 12 0;
#X restore 242 240 pd poly-test;
#N canvas 48 90 472 281 file-test 0;
#X obj 31 11 inlet;
#X obj 84 65 spigot;
#X obj 32 38 t b b, f 7;
#X obj 127 11 inlet;
#X obj 84 106 xyrgb-file spinning-cube;
#X obj 85 205 s to-composite;
#X floatatom 249 133 5 0 0 0 - - -;
#X floatatom 201 203 5 0 0 0 - - -;
#X obj 32 65 outlet;
#X obj 230 34 xyrgb-file square_d0s0;
#X obj 220 66 print;
#X obj 214 10 bng 15 250 50 0 empty empty empty 17 7 0 10 -262144 -1
-1;
#X obj 84 141 scale 0.5 0.5;
#X obj 85 176 render lines 4 64;
#X connect 0 0 2 0;
#X connect 1 0 4 0;
#X connect 2 0 8 0;
#X connect 2 1 1 0;
#X connect 3 0 1 1;
#X connect 4 0 12 0;
#X connect 4 1 6 0;
#X connect 9 0 10 0;
#X connect 11 0 9 0;
#X connect 12 0 13 0;
#X connect 13 0 5 0;
#X connect 13 1 7 0;
#X restore 242 215 pd file-test;
#N canvas 579 54 349 456 composite-test 0;
#X obj 31 11 inlet;
#X obj 92 66 spigot;
#X obj 32 38 t b b, f 9;
#X obj 131 11 inlet;
#X obj 32 66 outlet;
#X floatatom 208 350 5 0 0 0 - - -;
#X obj 102 413 s to-composite;
#X obj 125 228 tgl 15 0 empty empty empty 17 7 0 10 -262144 -1 -1 0
1;
#X obj 93 198 t l b;
#X obj 125 253 * 4000;
#X obj 93 287 translate;
#X obj 90 157 normalize;
#X obj 92 321 render lines 8 32 0;
#X msg 92 100 -2000 -300 255 255 255 -2000 300 255 255 255, f 22;
#X obj 258 394 print;
#X connect 0 0 2 0;
#X connect 1 0 13 0;
#X connect 2 0 4 0;
#X connect 2 1 1 0;
#X connect 3 0 1 1;
#X connect 7 0 9 0;
#X connect 8 0 10 0;
#X connect 8 1 7 0;
#X connect 9 0 10 1;
#X connect 10 0 12 0;
#X connect 11 0 8 0;
#X connect 12 0 6 0;
#X connect 12 1 5 0;
#X connect 13 0 11 0;
#X restore 242 343 pd composite-test;
#X obj 527 186 tgl 15 0 empty empty empty 17 7 0 10 -262144 -1 -1 0
1;
#X obj 527 213 tgl 15 0 empty empty empty 17 7 0 10 -262144 -1 -1 0
1;
#N canvas 945 469 434 378 gradients 1;
#X obj 11 6 inlet;
#X obj 57 6 inlet;
#X obj 11 54 outlet;
#X obj 11 30 eoshead;
#X obj 61 329 s to-composite;
#X floatatom 153 118 5 0 0 0 - - -;
#X floatatom 183 171 5 0 0 0 - - -;
#X obj 206 22 render-control;
#X floatatom 103 271 5 0 0 0 - - -;
#X floatatom 189 271 5 0 0 0 - - -;
#X floatatom 274 271 5 0 0 0 - - -;
#X obj 61 297 colormap 0.149 1 0.117 1 0.243 1, f 37;
#X floatatom 146 271 5 0 0 0 - - -;
#X floatatom 231 271 5 0 0 0 - - -;
#X floatatom 317 271 5 0 0 0 - - -;
#X text 100 247 Rmin;
#X text 143 247 Rmax;
#X text 186 247 Gmin;
#X text 229 247 Gmax;
#X text 271 247 Bmin;
#X text 314 247 Bmax;
#X floatatom 230 220 5 0 0 0 - - -;
#X floatatom 114 48 5 0 0 0 - - -;
#X obj 65 145 render lines 0 64;
#X obj 63 93 gradients 128;
#X connect 0 0 3 0;
#X connect 1 0 3 1;
#X connect 3 0 2 0;
#X connect 3 1 24 0;
#X connect 7 0 23 1;
#X connect 8 0 11 1;
#X connect 9 0 11 3;
#X connect 10 0 11 5;
#X connect 11 0 4 0;
#X connect 12 0 11 2;
#X connect 13 0 11 4;
#X connect 14 0 11 6;
#X connect 21 0 12 0;
#X connect 21 0 13 0;
#X connect 21 0 14 0;
#X connect 22 0 24 1;
#X connect 23 0 11 0;
#X connect 23 1 6 0;
#X connect 24 0 23 0;
#X connect 24 1 5 0;
#X restore 405 213 pd gradients;
#N canvas 477 465 434 378 colorwheel 0;
#X obj 11 6 inlet;
#X obj 57 6 inlet;
#X obj 11 54 outlet;
#X obj 11 30 eoshead;
#X floatatom 142 107 5 0 0 0 - - -;
#X floatatom 101 107 5 0 0 0 - - -;
#X floatatom 183 158 5 0 0 0 - - -;
#X obj 61 329 s to-composite;
#X obj 60 132 colorwheel 500 100;
#X floatatom 152 254 5 0 0 0 - - -;
#X floatatom 238 254 5 0 0 0 - - -;
#X floatatom 323 254 5 0 0 0 - - -;
#X obj 109 173 spigot;
#X obj 88 174 tgl 15 0 empty empty empty 17 7 0 10 -262144 -1 -1 0
1;
#X obj 60 230 spigot;
#X obj 99 204 expr 1 - $i1;
#X obj 110 280 colormap 0.149 1 0.117 1 0.243 1, f 37;
#X floatatom 195 254 5 0 0 0 - - -;
#X floatatom 280 254 5 0 0 0 - - -;
#X floatatom 366 254 5 0 0 0 - - -;
#X text 149 230 Rmin;
#X text 192 230 Rmax;
#X text 235 230 Gmin;
#X text 278 230 Gmax;
#X text 320 230 Bmin;
#X text 363 230 Bmax;
#X floatatom 196 205 5 0 0 0 - - -;
#X obj 60 54 t b b, f 17;
#X obj 183 106 * 0.1;
#X floatatom 237 81 5 0 0 0 - - -;
#X obj 182 81 v time;
#X connect 0 0 3 0;
#X connect 1 0 3 1;
#X connect 3 0 2 0;
#X connect 3 1 27 0;
#X connect 4 0 8 2;
#X connect 5 0 8 1;
#X connect 8 0 12 0;
#X connect 8 0 14 0;
#X connect 8 1 6 0;
#X connect 9 0 16 1;
#X connect 10 0 16 3;
#X connect 11 0 16 5;
#X connect 12 0 16 0;
#X connect 13 0 12 1;
#X connect 13 0 15 0;
#X connect 14 0 7 0;
#X connect 15 0 14 1;
#X connect 16 0 7 0;
#X connect 17 0 16 2;
#X connect 18 0 16 4;
#X connect 19 0 16 6;
#X connect 26 0 17 0;
#X connect 26 0 18 0;
#X connect 26 0 19 0;
#X connect 27 0 8 0;
#X connect 27 1 30 0;
#X connect 28 0 8 3;
#X connect 29 0 28 1;
#X connect 30 0 28 0;
#X restore 405 186 pd colorwheel;
#X obj 20 93 t b b b, f 51;
#X connect 0 0 10 0;
#X connect 1 0 10 1;
#X connect 4 0 5 0;
#X connect 5 0 6 0;
#X connect 9 0 29 1;
#X connect 10 0 43 0;
#X connect 11 0 22 1;
#X connect 12 0 19 1;
#X connect 13 0 19 0;
#X connect 14 0 13 1;
#X connect 16 0 17 0;
#X connect 17 0 15 0;
#X connect 18 0 37 1;
#X connect 19 0 37 0;
#X connect 20 0 33 0;
#X connect 21 0 36 1;
#X connect 22 0 13 0;
#X connect 23 0 35 1;
#X connect 24 0 25 1;
#X connect 25 0 27 0;
#X connect 26 0 27 1;
#X connect 27 0 38 0;
#X connect 28 0 38 1;
#X connect 29 0 32 0;
#X connect 30 0 31 1;
#X connect 32 0 5 0;
#X connect 33 0 42 0;
#X connect 34 0 33 1;
#X connect 35 0 25 0;
#X connect 36 0 35 0;
#X connect 37 0 36 0;
#X connect 38 0 31 0;
#X connect 39 0 42 1;
#X connect 40 0 41 1;
#X connect 42 0 41 0;
#X connect 43 0 29 0;
#X connect 43 1 22 0;
#X connect 43 2 20 0;
