#N canvas 2140 71 581 808 12;
#X declare -lib pdlua -path eos eos;
#X obj 15 675 helios;
#X obj 14 574 denormalize;
#X obj 30 643 r to-helios;
#X obj 361 538 pdlua;
#X obj 323 416 declare -lib pdlua -path eos eos;
#X obj 29 527 s to-analyzer;
#X obj 323 380 helios-control2;
#X obj 220 126 fpstimer;
#N canvas 2747 112 517 312 network 0;
#X obj 335 111 print RECEIVE (unmapped);
#X obj 183 116 list;
#X obj 183 142 oscid-send;
#X text 195 60 touch control messages;
#X obj 183 81 route touch camcontrol;
#X obj 267 112 list;
#X obj 267 138 oscid-send;
#X obj 38 230 outlet;
#X obj 196 198 r to-analyzer;
#X obj 195 225 scale 1 1;
#X obj 201 255 eoscsend aorus 12000;
#X obj 164 170 print TOUCH;
#X obj 32 38 eoscrecv 12000, f 22;
#X connect 1 0 2 0;
#X connect 1 0 11 0;
#X connect 4 0 1 0;
#X connect 4 1 5 0;
#X connect 4 2 0 0;
#X connect 5 0 6 0;
#X connect 8 0 9 0;
#X connect 9 0 10 0;
#X connect 12 0 7 0;
#X connect 12 1 4 0;
#X restore 172 95 pd network;
#X obj 390 13 helios-flags;
#X obj 390 101 s to-helios;
#X obj 466 139 r xypad1/p1;
#X obj 244 171 numpoints;
#X floatatom 468 198 5 0 0 0 - - - 0;
#X floatatom 533 196 5 0 0 0 - - - 0;
#X obj 466 168 unpack f f;
#X obj 14 494 composite;
#X obj 13 455 t b l;
#X obj 116 293 render-control;
#X obj 7 146 netbuffer, f 24;
#X floatatom 174 175 5 0 0 0 - - - 0;
#X obj 33 707 s \$0-fps;
#X obj 15 744 fpstimer;
#X obj 13 16 bng 20 250 50 0 empty empty empty 0 -10 0 12 #fcfcfc #000000 #000000;
#X msg 44 19 stop;
#X floatatom 113 73 5 0 0 0 - - - 0;
#X obj 15 44 adaptive_metro;
#X obj 174 257 s \$0-bufcount;
#X obj 110 18 r \$0-bufcount;
#X msg 136 643 dumpframe;
#X obj 177 228 hsl 170 20 0 64 0 0 empty empty empty -2 -10 0 12 #fcfcfc #000000 #000000 0 1;
#X msg 361 507 load adaptive_metro;
#X obj 174 198 change;
#X text 256 212 V;
#X obj 319 325 helios-control;
#X obj 13 424 render4 lines 0 8;
#X connect 0 0 22 0;
#X connect 1 0 0 0;
#X connect 2 0 0 0;
#X connect 8 0 12 0;
#X connect 8 0 19 1;
#X connect 8 0 7 0;
#X connect 9 0 10 0;
#X connect 11 0 15 0;
#X connect 15 0 13 0;
#X connect 15 1 14 0;
#X connect 16 0 5 0;
#X connect 16 0 1 0;
#X connect 17 0 16 0;
#X connect 17 1 16 1;
#X connect 18 0 35 1;
#X connect 19 0 35 0;
#X connect 19 1 20 0;
#X connect 20 0 30 0;
#X connect 20 0 32 0;
#X connect 23 0 26 0;
#X connect 24 0 26 0;
#X connect 26 0 19 0;
#X connect 26 1 25 0;
#X connect 28 0 26 1;
#X connect 29 0 0 0;
#X connect 31 0 3 0;
#X connect 32 0 30 0;
#X connect 32 0 27 0;
#X connect 35 0 17 0;
