#N canvas 0 0 1039 474 12;
#X obj 342 16 helios-control;
#X obj 19 365 helios;
#X obj 19 405 helios-status;
#N canvas 0 54 370 266 debug-array 0;
#X obj 33 154 array set heliosdata;
#X obj 80 114 array size heliosdata;
#X obj 78 87 list length;
#X obj 31 210 array define -yrange -2048 2048 heliosdata;
#X obj 32 25 inlet;
#X obj 32 57 t l l, f 7;
#X obj 130 26 r debug-array;
#X connect 2 0 1 0;
#X connect 4 0 5 0;
#X connect 5 0 0 0;
#X connect 5 1 2 0;
#X connect 6 0 5 0;
#X restore 483 41 pd debug-array;
#N canvas 937 278 695 415 reload 1;
#X obj 12 13 inlet;
#X obj 55 601 pdlua;
#X msg 63 13 load zoombots.pd_lua;
#X msg 73 43 load symmetry.pd_lua;
#X msg 81 73 load polygon.pd_lua;
#X obj 13 47 t b;
#X msg 91 102 load composite.pd_lua;
#X msg 111 162 load translate.pd_lua;
#X msg 121 192 load render.pd_lua;
#X msg 131 222 load xygizmo.pd_lua;
#X msg 141 252 load color.pd_lua;
#X msg 101 132 load scale.pd_lua;
#X msg 151 282 load xyrgb-file.pd_lua;
#X msg 161 312 load normalize.pd_lua;
#X msg 171 342 load point.pd_lua;
#X msg 181 372 load colorscan.pd_lua;
#X msg 191 402 load eoshead.pd_lua;
#X msg 201 432 load eos.lua;
#X msg 211 462 load render2.pd_lua;
#X msg 221 492 load analyze.pd_lua;
#X msg 231 522 load graphicstest.pd_lua;
#X msg 241 552 load colorscan2.pd_lua;
#X msg 251 582 load colorwheel.pd_lua;
#X msg 261 612 load colormap.pd_lua;
#X msg 271 642 load ttlcolor.pd_lua;
#X msg 281 672 load gradients.pd_lua;
#X msg 291 702 load colorcurves.pd_lua;
#X msg 301 732 load noop.pd_lua;
#X msg 311 762 load gradient.pd_lua;
#X msg 253 23 load trigger1.pd_lua;
#X msg 263 53 load triggers.pd_lua;
#X msg 273 83 load fadeline.pd_lua;
#X msg 283 113 load qix.pd_lua;
#X msg 293 143 load fadecircle.pd_lua;
#X msg 303 173 load phasetunnel.pd_lua;
#X msg 311 209 load flock.pd_lua;
#X msg 325 241 load presets.pd_lua;
#X msg 335 271 load noisemod.pd_lua;
#X msg 345 301 load traildot.pd_lua;
#X msg 355 331 load ilda-file.pd_lua;
#X msg 365 361 load ilda-library.pd_lua;
#X msg 375 391 load eosline.pd_lua;
#X msg 385 421 load eoscsend.pd_lua;
#X msg 395 451 load eoscdecode.pd_lua;
#X msg 405 481 load surfacewave.pd_lua;
#X msg 415 511 load contourmap.pd_lua;
#X msg 431 545 load render3.pd_lua;
#X msg 441 575 load particlesys.pd_lua;
#X msg 451 605 load deathray.pd_lua;
#X msg 461 635 load lasercutter.pd_lua;
#X msg 471 665 load bezierloop.pd_lua;
#X msg 481 695 load oscid-send.pd_lua;
#X msg 491 725 load convexhull.pd_lua;
#X msg 501 755 load gradients2.pd_lua;
#X connect 0 0 5 0;
#X connect 2 0 1 0;
#X connect 3 0 1 0;
#X connect 4 0 1 0;
#X connect 5 0 2 0;
#X connect 5 0 3 0;
#X connect 5 0 6 0;
#X connect 5 0 8 0;
#X connect 5 0 7 0;
#X connect 5 0 9 0;
#X connect 5 0 10 0;
#X connect 5 0 12 0;
#X connect 5 0 13 0;
#X connect 5 0 11 0;
#X connect 5 0 14 0;
#X connect 5 0 15 0;
#X connect 5 0 16 0;
#X connect 5 0 17 0;
#X connect 5 0 18 0;
#X connect 5 0 19 0;
#X connect 5 0 20 0;
#X connect 5 0 21 0;
#X connect 5 0 22 0;
#X connect 5 0 23 0;
#X connect 5 0 24 0;
#X connect 5 0 25 0;
#X connect 5 0 26 0;
#X connect 5 0 27 0;
#X connect 5 0 28 0;
#X connect 5 0 4 0;
#X connect 6 0 1 0;
#X connect 7 0 1 0;
#X connect 8 0 1 0;
#X connect 9 0 1 0;
#X connect 10 0 1 0;
#X connect 11 0 1 0;
#X connect 12 0 1 0;
#X connect 13 0 1 0;
#X connect 14 0 1 0;
#X connect 15 0 1 0;
#X connect 16 0 1 0;
#X connect 17 0 1 0;
#X connect 18 0 1 0;
#X connect 19 0 1 0;
#X connect 20 0 1 0;
#X connect 21 0 1 0;
#X connect 22 0 1 0;
#X connect 23 0 1 0;
#X connect 24 0 1 0;
#X connect 25 0 1 0;
#X connect 26 0 1 0;
#X connect 27 0 1 0;
#X connect 28 0 1 0;
#X connect 29 0 1 0;
#X connect 30 0 1 0;
#X connect 31 0 1 0;
#X connect 32 0 1 0;
#X connect 33 0 1 0;
#X connect 34 0 1 0;
#X connect 35 0 1 0;
#X connect 36 0 1 0;
#X connect 37 0 1 0;
#X connect 38 0 1 0;
#X connect 39 0 1 0;
#X connect 40 0 1 0;
#X connect 41 0 1 0;
#X connect 42 0 1 0;
#X connect 43 0 1 0;
#X connect 44 0 1 0;
#X connect 45 0 1 0;
#X connect 46 0 1 0;
#X connect 47 0 1 0;
#X connect 48 0 1 0;
#X connect 49 0 1 0;
#X connect 50 0 1 0;
#X connect 51 0 1 0;
#X connect 52 0 1 0;
#X connect 53 0 1 0;
#X restore 484 64 pd reload;
#X obj 122 129 r to-composite;
#X obj 365 130 tgl 15 0 empty empty empty 17 7 0 10 #fcfcfc #000000 #000000 0 1;
#X obj 368 186 tgl 15 0 empty empty empty 17 7 0 10 #fcfcfc #000000 #000000 0 1;
#N canvas 592 86 386 434 bots 0;
#X obj 71 151 zoombots;
#X floatatom 83 98 5 0 0 0 - - - 0;
#X msg 83 122 numbots \$1;
#X obj 71 266 symmetry;
#X floatatom 124 240 5 0 0 0 - - - 0;
#X obj 66 392 s to-composite;
#X obj 11 11 inlet;
#X obj 67 63 spigot;
#X obj 12 36 t b b, f 7;
#X obj 110 9 inlet;
#X obj 13 63 outlet;
#X obj 215 163 render-control;
#X obj 71 299 render points 8 32 12;
#X obj 71 361 colorcurves;
#X obj 70 209 gradient 0 1;
#X floatatom 108 183 5 0 0 0 - - - 0;
#X floatatom 158 183 5 0 0 0 - - - 0;
#X connect 0 0 14 0;
#X connect 1 0 2 0;
#X connect 2 0 0 0;
#X connect 3 0 12 0;
#X connect 4 0 3 1;
#X connect 6 0 8 0;
#X connect 7 0 0 0;
#X connect 8 0 10 0;
#X connect 8 1 7 0;
#X connect 9 0 7 1;
#X connect 11 0 12 1;
#X connect 12 0 13 0;
#X connect 13 0 5 0;
#X connect 14 0 3 0;
#X connect 15 0 14 1;
#X connect 16 0 14 2;
#X restore 242 158 pd bots;
#X obj 367 159 tgl 15 0 empty empty empty 17 7 0 10 #fcfcfc #000000 #000000 0 1;
#X obj 619 65 s to-composite;
#X floatatom 618 13 5 0 0 0 - - - 0;
#X msg 618 37 preblank \$1;
#X obj 370 216 tgl 15 0 empty empty empty 17 7 0 10 #fcfcfc #000000 #000000 0 1;
#N canvas 754 352 359 522 xy-gizmo 0;
#X obj 56 140 xygizmo;
#X obj 54 482 s to-composite;
#X obj 56 391 translate, f 17;
#N canvas 795 176 450 300 lfo-xy 0;
#X obj 40 24 inlet;
#X obj 42 69 t b b;
#X obj 31 230 outlet;
#X obj 81 230 outlet;
#X obj 169 28 inlet;
#X text 167 6 X range;
#X obj 249 27 inlet;
#X text 247 5 Y range;
#X obj 40 113 expr sin(time*3.14159 * 0.2021) * $f2, f 21;
#X obj 74 171 expr sin(time*3.14159 * 0.52) * $f3, f 21;
#X connect 0 0 1 0;
#X connect 1 0 8 0;
#X connect 1 1 9 0;
#X connect 4 0 8 1;
#X connect 6 0 9 2;
#X connect 8 0 2 0;
#X connect 9 0 3 0;
#X restore 114 361 pd lfo-xy;
#X obj 56 333 t l b, f 8;
#X floatatom 100 276 5 0 0 0 - - - 0;
#X floatatom 187 482 5 0 0 0 - - - 0;
#X floatatom 139 332 5 0 0 0 - - - 0;
#X floatatom 179 332 5 0 0 0 - - - 0;
#X floatatom 102 170 5 0 0 0 - - - 0;
#X obj 168 423 tgl 15 0 empty empty empty 17 7 0 10 #fcfcfc #000000 #000000 0 1;
#X floatatom 117 218 5 0 0 0 - - - 0;
#X floatatom 167 218 5 0 0 0 - - - 0;
#X obj 10 17 inlet;
#X obj 56 17 inlet;
#X obj 10 65 outlet;
#X obj 10 41 eoshead;
#X obj 56 423 colorcurves, f 13;
#N canvas 0 54 568 492 wave-control2 0;
#X floatatom 148 142 7 0 0 0 - - - 0;
#X floatatom 202 142 5 0 0 0 - - - 0;
#X floatatom 240 142 5 0 0 0 - - - 0;
#X floatatom 148 161 7 0 0 0 - - - 0;
#X floatatom 202 161 5 0 0 0 - - - 0;
#X floatatom 240 161 5 0 0 0 - - - 0;
#X floatatom 148 180 7 0 0 0 - - - 0;
#X floatatom 202 180 5 0 0 0 - - - 0;
#X floatatom 240 180 5 0 0 0 - - - 0;
#X floatatom 148 199 7 0 0 0 - - - 0;
#X floatatom 202 199 5 0 0 0 - - - 0;
#X floatatom 240 199 5 0 0 0 - - - 0;
#X text 146 122 Freq;
#X text 200 122 Amp;
#X text 238 122 Phase;
#X text 102 141 X1;
#X text 102 161 Y1;
#X text 102 180 X2;
#X text 102 199 Y2;
#X floatatom 239 102 5 0 0 0 - - - 0;
#X text 181 102 Points;
#X obj 129 153 tgl 15 0 empty empty empty 17 7 0 10 #fcfcfc #000000 #000000 0 1;
#X obj 129 191 tgl 15 0 empty empty empty 17 7 0 10 #fcfcfc #000000 #000000 0 1;
#X msg 336 141 x1freq \$1;
#X obj 517 258 outlet;
#X obj 15 157 spigot;
#X obj 15 187 spigot;
#X obj 15 217 spigot;
#X obj 15 247 spigot;
#X obj 15 277 spigot;
#X obj 15 307 spigot;
#X msg 346 167 x1amp \$1;
#X msg 356 193 x1phase \$1;
#X msg 336 221 y1freq \$1;
#X msg 346 247 y1amp \$1;
#X msg 356 273 y1phase \$1;
#X msg 336 301 x2freq \$1;
#X msg 346 327 x2amp \$1;
#X msg 356 353 x2phase \$1;
#X msg 336 381 y2freq \$1;
#X msg 346 407 y2amp \$1;
#X msg 356 433 y2phase \$1;
#X obj 122 40 t b;
#X obj 124 17 loadbang;
#X msg 385 13 0.5;
#X msg 425 13 0;
#X msg 385 37 0.5;
#X msg 425 73 0;
#X msg 425 37 0.25;
#X msg 425 97 0.25;
#X msg 455 142 npoints \$1;
#X msg 80 69 1;
#X msg 335 13 9.005;
#X msg 385 73 0.5;
#X msg 385 97 0.5;
#X msg 152 75 500;
#X msg 335 37 9.005;
#X msg 335 73 5;
#X msg 335 97 -4.995;
#X connect 0 0 23 0;
#X connect 0 0 25 0;
#X connect 1 0 26 0;
#X connect 1 0 31 0;
#X connect 2 0 27 0;
#X connect 2 0 32 0;
#X connect 3 0 33 0;
#X connect 4 0 34 0;
#X connect 5 0 35 0;
#X connect 6 0 28 0;
#X connect 6 0 36 0;
#X connect 7 0 29 0;
#X connect 7 0 37 0;
#X connect 8 0 30 0;
#X connect 8 0 38 0;
#X connect 9 0 39 0;
#X connect 10 0 40 0;
#X connect 11 0 41 0;
#X connect 19 0 50 0;
#X connect 21 0 25 1;
#X connect 21 0 26 1;
#X connect 21 0 27 1;
#X connect 22 0 28 1;
#X connect 22 0 29 1;
#X connect 22 0 30 1;
#X connect 23 0 24 0;
#X connect 25 0 3 0;
#X connect 26 0 4 0;
#X connect 27 0 5 0;
#X connect 28 0 9 0;
#X connect 29 0 10 0;
#X connect 30 0 11 0;
#X connect 31 0 24 0;
#X connect 32 0 24 0;
#X connect 33 0 24 0;
#X connect 34 0 24 0;
#X connect 35 0 24 0;
#X connect 36 0 24 0;
#X connect 37 0 24 0;
#X connect 38 0 24 0;
#X connect 39 0 24 0;
#X connect 40 0 24 0;
#X connect 41 0 24 0;
#X connect 42 0 52 0;
#X connect 42 0 44 0;
#X connect 42 0 45 0;
#X connect 42 0 56 0;
#X connect 42 0 46 0;
#X connect 42 0 48 0;
#X connect 42 0 57 0;
#X connect 42 0 53 0;
#X connect 42 0 47 0;
#X connect 42 0 58 0;
#X connect 42 0 54 0;
#X connect 42 0 49 0;
#X connect 42 0 55 0;
#X connect 42 0 51 0;
#X connect 43 0 42 0;
#X connect 44 0 1 0;
#X connect 45 0 2 0;
#X connect 46 0 4 0;
#X connect 47 0 8 0;
#X connect 48 0 5 0;
#X connect 49 0 11 0;
#X connect 50 0 24 0;
#X connect 51 0 21 0;
#X connect 51 0 22 0;
#X connect 52 0 0 0;
#X connect 53 0 7 0;
#X connect 54 0 10 0;
#X connect 55 0 19 0;
#X connect 56 0 3 0;
#X connect 57 0 6 0;
#X connect 58 0 9 0;
#X coords 0 -1 1 1 180 120 2 100 100;
#X restore 113 13 pd wave-control2;
#X obj 55 299 scale 1 1;
#X obj 220 328 render-control;
#X obj 55 244 gradient 1.12 256;
#X obj 56 457 render points 0 0 1;
#X obj 164 193 / 2;
#X connect 0 0 21 0;
#X connect 0 1 9 0;
#X connect 2 0 17 0;
#X connect 3 0 2 1;
#X connect 3 1 2 2;
#X connect 4 0 2 0;
#X connect 4 1 3 0;
#X connect 5 0 19 1;
#X connect 5 0 19 2;
#X connect 7 0 3 1;
#X connect 8 0 3 2;
#X connect 9 0 23 0;
#X connect 10 0 17 1;
#X connect 11 0 21 1;
#X connect 12 0 21 2;
#X connect 13 0 16 0;
#X connect 14 0 16 1;
#X connect 16 0 15 0;
#X connect 16 1 0 0;
#X connect 17 0 22 0;
#X connect 18 0 0 1;
#X connect 19 0 4 0;
#X connect 20 0 22 1;
#X connect 21 0 19 0;
#X connect 22 0 1 0;
#X connect 22 1 6 0;
#X connect 23 0 12 0;
#X restore 242 186 pd xy-gizmo;
#N canvas 382 1010 924 387 modulate 0;
#X obj 150 335 s helios-control;
#X msg 149 302 rotation \$1;
#X obj 42 13 inlet;
#X obj 152 196 v time;
#X obj 152 255 * 1;
#X floatatom 175 229 5 0 0 0 - - - 0;
#X obj 157 113 spigot;
#X obj 194 80 tgl 15 0 empty empty empty 17 7 0 10 #fcfcfc #000000 #000000 0 1;
#X obj 384 106 spigot;
#X obj 416 77 tgl 15 0 empty empty empty 17 7 0 10 #fcfcfc #000000 #000000 0 1;
#X msg 373 285 linearityx \$1;
#X obj 374 252 * 1;
#X floatatom 402 228 5 0 0 0 - - - 0;
#X floatatom 650 152 5 0 0 0 - - - 0;
#X obj 628 108 spigot;
#X obj 660 79 tgl 15 0 empty empty empty 17 7 0 10 #fcfcfc #000000 #000000 0 1;
#X obj 623 254 * 1;
#X floatatom 653 231 5 0 0 0 - - - 0;
#X msg 624 288 bowy \$1;
#X obj 35 324 outlet;
#X obj 40 45 t b b b b b b b, f 101;
#X obj 630 186 expr sin(time * 3.14159 * $f1);
#X floatatom 401 157 5 0 0 0 - - - 0;
#X obj 381 191 expr sin(time * 3.14159 * $f1);
#X connect 1 0 0 0;
#X connect 2 0 20 0;
#X connect 3 0 4 0;
#X connect 4 0 1 0;
#X connect 5 0 4 1;
#X connect 6 0 3 0;
#X connect 7 0 6 1;
#X connect 8 0 23 0;
#X connect 9 0 8 1;
#X connect 10 0 0 0;
#X connect 11 0 10 0;
#X connect 12 0 11 1;
#X connect 13 0 21 0;
#X connect 14 0 21 0;
#X connect 15 0 14 1;
#X connect 16 0 18 0;
#X connect 17 0 16 1;
#X connect 18 0 0 0;
#X connect 20 0 19 0;
#X connect 20 1 6 0;
#X connect 20 3 8 0;
#X connect 20 5 14 0;
#X connect 21 0 16 0;
#X connect 22 0 23 0;
#X connect 23 0 11 0;
#X restore 570 130 pd modulate;
#X obj 371 243 tgl 15 0 empty empty empty 17 7 0 10 #fcfcfc #000000 #000000 0 1;
#N canvas 1027 137 332 551 wander 0;
#X floatatom 106 93 5 0 0 0 - - - 0;
#X floatatom 150 93 5 0 0 0 - - - 0;
#X obj 60 514 s to-composite;
#X obj 59 396 translate, f 17;
#X obj 59 447 render lines;
#X obj 59 311 rotate;
#X obj 60 242 t l b;
#X obj 59 338 t l b, f 8;
#N canvas 85 463 450 300 lfo-xy 0;
#X obj 40 24 inlet;
#X obj 42 69 t b b;
#X obj 31 230 outlet;
#X obj 81 230 outlet;
#X obj 74 171 expr sin(time*3.14159 * 0.12) * 1000, f 21;
#X obj 40 113 expr sin(time*3.14159 * 0.2021) * 1000, f 21;
#X connect 0 0 1 0;
#X connect 1 0 5 0;
#X connect 1 1 4 0;
#X connect 4 0 3 0;
#X connect 5 0 2 0;
#X restore 117 366 pd lfo-xy;
#X obj 199 329 render-control;
#X floatatom 139 477 5 0 0 0 - - - 0;
#X floatatom 193 93 5 0 0 0 - - - 0;
#X obj 11 6 inlet;
#X obj 57 6 inlet;
#X obj 11 54 outlet;
#X obj 11 30 eoshead;
#X obj 59 215 color hsv 0 1 1;
#X floatatom 91 191 5 0 0 0 - - - 0;
#X obj 97 267 expr sin(time*3.14159 * 0.2) * 720, f 21;
#X obj 62 119 polygon 3 512 1;
#X floatatom 131 191 5 0 0 0 - - - 0;
#X floatatom 171 191 5 0 0 0 - - - 0;
#X obj 62 62 t b b;
#X obj 93 155 expr time * 0.03;
#X connect 0 0 19 1;
#X connect 1 0 19 2;
#X connect 3 0 4 0;
#X connect 4 0 2 0;
#X connect 4 1 10 0;
#X connect 5 0 7 0;
#X connect 6 0 5 0;
#X connect 6 1 18 0;
#X connect 7 0 3 0;
#X connect 7 1 8 0;
#X connect 8 0 3 1;
#X connect 8 1 3 2;
#X connect 9 0 4 1;
#X connect 11 0 19 3;
#X connect 12 0 15 0;
#X connect 13 0 15 1;
#X connect 15 0 14 0;
#X connect 15 1 22 0;
#X connect 16 0 6 0;
#X connect 17 0 16 1;
#X connect 18 0 5 1;
#X connect 19 0 16 0;
#X connect 20 0 16 2;
#X connect 21 0 16 3;
#X connect 22 0 19 0;
#X connect 22 1 23 0;
#X connect 23 0 17 0;
#X restore 242 130 pd wander;
#X obj 371 267 tgl 15 0 empty empty empty 17 7 0 10 #fcfcfc #000000 #000000 0 1;
#X obj 371 292 tgl 15 0 empty empty empty 17 7 0 10 #fcfcfc #000000 #000000 0 1;
#N canvas 31 429 418 425 slowbeam 0;
#X floatatom 187 385 5 0 0 0 - - - 0;
#X obj 68 375 s to-composite;
#X obj 70 71 t b b, f 8;
#X obj 68 347 render points 8 0;
#X floatatom 224 255 5 0 0 0 - - - 0;
#X obj 224 279 / 255;
#X obj 13 10 inlet;
#X obj 59 10 inlet;
#X obj 13 58 outlet;
#X obj 13 34 eoshead;
#X obj 68 315 color hsv 0.9 1 1;
#X msg 69 102 0 0 1 1 1;
#X obj 69 224 noisemod 0 0.2 0 0.6;
#X obj 217 15 noisemod-control;
#X floatatom 121 255 5 0 0 0 - - - 0;
#X floatatom 162 255 5 0 0 0 - - - 0;
#X obj 70 278 translate 334 0;
#X connect 2 0 11 0;
#X connect 3 0 1 0;
#X connect 3 1 0 0;
#X connect 4 0 5 0;
#X connect 5 0 10 1;
#X connect 6 0 9 0;
#X connect 7 0 9 1;
#X connect 9 0 8 0;
#X connect 9 1 2 0;
#X connect 10 0 3 0;
#X connect 11 0 12 0;
#X connect 12 0 16 0;
#X connect 13 0 12 1;
#X connect 14 0 16 1;
#X connect 15 0 16 2;
#X connect 16 0 10 0;
#X restore 242 291 pd slowbeam;
#X obj 371 319 tgl 15 0 empty empty empty 17 7 0 10 #fcfcfc #000000 #000000 0 1;
#N canvas 121 482 317 305 scan 0;
#X obj 58 267 s to-composite;
#X obj 10 12 inlet;
#X obj 56 12 inlet;
#X obj 10 60 outlet;
#X obj 10 36 eoshead;
#X obj 131 204 tgl 15 0 empty empty empty 17 7 0 10 #fcfcfc #000000 #000000 0 1;
#X obj 60 229 colorcurves;
#X obj 58 171 colorscan 500;
#N canvas 51 55 614 485 scan-control 0;
#X floatatom 118 182 7 0 0 0 - - - 0;
#X floatatom 172 182 5 0 0 0 - - - 0;
#X floatatom 210 182 5 0 0 0 - - - 0;
#X floatatom 118 201 7 0 0 0 - - - 0;
#X floatatom 172 201 5 0 0 0 - - - 0;
#X floatatom 210 201 5 0 0 0 - - - 0;
#X floatatom 118 220 7 0 0 0 - - - 0;
#X floatatom 172 220 5 0 0 0 - - - 0;
#X floatatom 210 220 5 0 0 0 - - - 0;
#X text 116 162 Freq;
#X text 170 162 Amp;
#X text 208 162 Phase;
#X floatatom 209 102 5 0 0 0 - - - 0;
#X text 151 102 Points;
#X obj 517 258 outlet;
#X obj 235 35 t b;
#X obj 237 12 loadbang;
#X msg 415 13 0;
#X msg 415 73 0;
#X msg 415 37 0.25;
#X msg 455 142 npoints \$1;
#X msg 335 13 1.01;
#X msg 218 74 500;
#X obj 209 131 vradio 15 1 0 2 empty empty empty 0 -8 0 10 #fcfcfc #000000 #000000 0;
#X msg 336 141 rfreq \$1;
#X msg 346 167 ramp \$1;
#X msg 356 193 rphase \$1;
#X msg 336 221 gfreq \$1;
#X msg 346 247 gamp \$1;
#X msg 356 273 gphase \$1;
#X msg 336 301 bfreq \$1;
#X msg 346 327 bamp \$1;
#X msg 356 353 bphase \$1;
#X text 102 181 R;
#X text 102 201 G;
#X text 102 220 B;
#X text 151 145 Square;
#X text 151 129 Sine;
#X msg 348 112 mode \$1;
#X msg 375 13 1;
#X msg 375 37 1;
#X msg 375 73 1;
#X msg 335 37 1.02;
#X msg 335 73 -1.15;
#X connect 0 0 24 0;
#X connect 1 0 25 0;
#X connect 2 0 26 0;
#X connect 3 0 27 0;
#X connect 4 0 28 0;
#X connect 5 0 29 0;
#X connect 6 0 30 0;
#X connect 7 0 31 0;
#X connect 8 0 32 0;
#X connect 12 0 20 0;
#X connect 15 0 21 0;
#X connect 15 0 39 0;
#X connect 15 0 17 0;
#X connect 15 0 42 0;
#X connect 15 0 40 0;
#X connect 15 0 19 0;
#X connect 15 0 43 0;
#X connect 15 0 41 0;
#X connect 15 0 18 0;
#X connect 15 0 22 0;
#X connect 16 0 15 0;
#X connect 17 0 2 0;
#X connect 18 0 8 0;
#X connect 19 0 5 0;
#X connect 20 0 14 0;
#X connect 21 0 0 0;
#X connect 22 0 12 0;
#X connect 23 0 38 0;
#X connect 24 0 14 0;
#X connect 25 0 14 0;
#X connect 26 0 14 0;
#X connect 27 0 14 0;
#X connect 28 0 14 0;
#X connect 29 0 14 0;
#X connect 30 0 14 0;
#X connect 31 0 14 0;
#X connect 32 0 14 0;
#X connect 38 0 14 0;
#X connect 39 0 1 0;
#X connect 40 0 4 0;
#X connect 41 0 7 0;
#X connect 42 0 3 0;
#X connect 43 0 6 0;
#X coords 0 -1 1 1 150 142 2 100 100;
#X restore 147 12 pd scan-control;
#X floatatom 205 188 5 0 0 0 - - - 0;
#X msg 204 216 thresh \$1;
#X connect 1 0 4 0;
#X connect 2 0 4 1;
#X connect 4 0 3 0;
#X connect 4 1 7 0;
#X connect 5 0 6 1;
#X connect 6 0 0 0;
#X connect 7 0 6 0;
#X connect 8 0 7 1;
#X connect 9 0 10 0;
#X connect 10 0 7 1;
#X restore 242 318 pd scan;
#X obj 371 344 tgl 15 0 empty empty empty 17 7 0 10 #fcfcfc #000000 #000000 0 1;
#X obj 371 371 tgl 15 0 empty empty empty 17 7 0 10 #fcfcfc #000000 #000000 0 1;
#N canvas 939 183 421 473 subdivision 0;
#X floatatom 223 238 5 0 0 0 - - - 0;
#X msg 99 110 -1 0 1 1 1 1 0 1 1 1, f 10;
#X floatatom 230 370 12 0 0 0 - - - 0;
#X obj 270 82 render-control;
#X obj 266 225 render-control;
#X obj 83 80 xyrgb-file square;
#X msg 188 173 accel \$1;
#X floatatom 189 143 5 0 0 0 - - - 0;
#X obj 94 421 s to-composite;
#X obj 154 12 bng 15 250 50 0 empty empty empty 17 7 0 10 #fcfcfc #000000 #000000;
#X obj 93 342 render points 4 0 0;
#X obj 120 382 analyze;
#X obj 11 6 inlet;
#X obj 57 6 inlet;
#X obj 11 54 outlet;
#X obj 11 30 eoshead;
#X obj 83 151 ttlcolor green;
#X obj 97 212 render2 lines 0 128 0;
#X obj 220 19 loadbang;
#X msg 221 47 9.1;
#X connect 1 0 16 0;
#X connect 3 0 17 1;
#X connect 4 0 10 1;
#X connect 5 0 16 0;
#X connect 6 0 17 1;
#X connect 7 0 6 0;
#X connect 9 0 5 0;
#X connect 10 0 8 0;
#X connect 10 1 2 0;
#X connect 12 0 15 0;
#X connect 13 0 15 1;
#X connect 15 0 14 0;
#X connect 15 1 5 0;
#X connect 16 0 17 0;
#X connect 17 0 10 0;
#X connect 17 1 0 0;
#X connect 18 0 19 0;
#X connect 19 0 7 0;
#X restore 242 370 pd subdivision;
#N canvas 446 395 426 241 graphics-test 0;
#X obj 11 6 inlet;
#X obj 57 6 inlet;
#X obj 11 54 outlet;
#X obj 11 30 eoshead;
#X obj 119 100 graphicstest;
#X floatatom 200 127 5 0 0 0 - - - 0;
#X obj 212 33 bng 15 250 50 0 empty empty empty 17 7 0 10 #fcfcfc #000000 #000000;
#X obj 44 116 print;
#X obj 281 27 render-control;
#X obj 117 153 render lines 8 32 5;
#X connect 0 0 3 0;
#X connect 1 0 3 1;
#X connect 3 0 2 0;
#X connect 3 1 4 0;
#X connect 4 0 9 0;
#X connect 4 1 5 0;
#X connect 6 0 4 0;
#X connect 8 0 9 1;
#X restore 405 130 pd graphics-test;
#X obj 531 130 tgl 15 0 empty empty empty 17 7 0 10 #fcfcfc #000000 #000000 0 1;
#N canvas 145 582 354 288 render-test 0;
#X floatatom 186 227 5 0 0 0 - - - 0;
#X obj 67 189 render points 0 0;
#X obj 219 86 render-control;
#X msg 67 85 -50 0 255 255 255 50 0 255 255 255, f 18;
#X obj 67 217 s to-composite;
#X obj 66 128 normalize;
#X obj 11 10 inlet;
#X obj 57 10 inlet;
#X obj 11 58 outlet;
#X obj 11 34 eoshead;
#X connect 1 0 4 0;
#X connect 1 1 0 0;
#X connect 2 0 1 1;
#X connect 3 0 5 0;
#X connect 5 0 1 0;
#X connect 6 0 9 0;
#X connect 7 0 9 1;
#X connect 9 0 8 0;
#X connect 9 1 3 0;
#X restore 242 266 pd render-test;
#N canvas 676 87 693 509 poly-test 0;
#X obj 31 11 inlet;
#X obj 84 65 spigot;
#X obj 32 38 t b b;
#X obj 127 11 inlet;
#X obj 32 66 outlet;
#X obj 85 99 t b b, f 45;
#X obj 405 403 render lines;
#X obj 96 437 s to-composite;
#X obj 408 436 s to-composite;
#X obj 87 300 translate -1500 0;
#X obj 402 296 translate 1500 0;
#X obj 399 267 rotate;
#X obj 400 215 t l b;
#X obj 88 272 rotate;
#X obj 89 218 t l b;
#X obj 222 287 render-control;
#X obj 126 243 expr time * 50;
#X obj 437 240 expr time * -50;
#X obj 554 272 render-control;
#X obj 99 407 render lines 8 32;
#X floatatom 177 127 5 0 0 0 - - - 0;
#X floatatom 219 186 5 0 0 0 - - - 0;
#X floatatom 133 126 5 0 0 0 - - - 0;
#X obj 88 151 polygon 5 512 1;
#X obj 400 150 polygon 4 512 1;
#X obj 87 186 color hsv 0 1 1;
#X floatatom 322 18 5 0 0 0 - - - 0;
#X obj 322 42 / 512;
#X obj 400 182 ttlcolor blue;
#X connect 0 0 2 0;
#X connect 1 0 5 0;
#X connect 2 0 4 0;
#X connect 2 1 1 0;
#X connect 3 0 1 1;
#X connect 5 0 23 0;
#X connect 5 1 24 0;
#X connect 6 0 8 0;
#X connect 9 0 19 0;
#X connect 10 0 6 0;
#X connect 11 0 10 0;
#X connect 12 0 11 0;
#X connect 12 1 17 0;
#X connect 13 0 9 0;
#X connect 14 0 13 0;
#X connect 14 1 16 0;
#X connect 15 0 19 1;
#X connect 16 0 13 1;
#X connect 17 0 11 1;
#X connect 18 0 6 1;
#X connect 19 0 7 0;
#X connect 20 0 23 2;
#X connect 22 0 23 1;
#X connect 23 0 25 0;
#X connect 23 1 21 0;
#X connect 24 0 28 0;
#X connect 25 0 14 0;
#X connect 26 0 27 0;
#X connect 27 0 25 1;
#X connect 28 0 12 0;
#X restore 242 240 pd poly-test;
#N canvas 48 90 472 281 file-test 0;
#X obj 31 11 inlet;
#X obj 84 65 spigot;
#X obj 32 38 t b b, f 7;
#X obj 127 11 inlet;
#X obj 84 106 xyrgb-file spinning-cube;
#X obj 85 205 s to-composite;
#X floatatom 249 133 5 0 0 0 - - - 0;
#X floatatom 201 203 5 0 0 0 - - - 0;
#X obj 32 65 outlet;
#X obj 230 34 xyrgb-file square_d0s0;
#X obj 220 66 print;
#X obj 214 10 bng 15 250 50 0 empty empty empty 17 7 0 10 #fcfcfc #000000 #000000;
#X obj 84 141 scale 0.5 0.5;
#X obj 85 176 render lines 4 64;
#X connect 0 0 2 0;
#X connect 1 0 4 0;
#X connect 2 0 8 0;
#X connect 2 1 1 0;
#X connect 3 0 1 1;
#X connect 4 0 12 0;
#X connect 4 1 6 0;
#X connect 9 0 10 0;
#X connect 11 0 9 0;
#X connect 12 0 13 0;
#X connect 13 0 5 0;
#X connect 13 1 7 0;
#X restore 242 215 pd file-test;
#N canvas 589 380 349 456 composite-test 0;
#X obj 31 11 inlet;
#X obj 92 66 spigot;
#X obj 32 38 t b b, f 9;
#X obj 131 11 inlet;
#X obj 32 66 outlet;
#X floatatom 208 350 5 0 0 0 - - - 0;
#X obj 102 413 s to-composite;
#X obj 125 228 tgl 15 0 empty empty empty 17 7 0 10 #fcfcfc #000000 #000000 0 1;
#X obj 93 198 t l b;
#X obj 125 253 * 4000;
#X obj 93 287 translate;
#X obj 90 157 normalize;
#X obj 92 321 render lines 8 32 0;
#X msg 92 100 -2000 -300 255 255 255 -2000 300 255 255 255, f 22;
#X connect 0 0 2 0;
#X connect 1 0 13 0;
#X connect 2 0 4 0;
#X connect 2 1 1 0;
#X connect 3 0 1 1;
#X connect 7 0 9 0;
#X connect 8 0 10 0;
#X connect 8 1 7 0;
#X connect 9 0 10 1;
#X connect 10 0 12 0;
#X connect 11 0 8 0;
#X connect 12 0 6 0;
#X connect 12 1 5 0;
#X connect 13 0 11 0;
#X restore 242 343 pd composite-test;
#X obj 527 185 tgl 15 0 empty empty empty 17 7 0 10 #fcfcfc #000000 #000000 0 1;
#X obj 527 215 tgl 15 0 empty empty empty 17 7 0 10 #fcfcfc #000000 #000000 0 1;
#N canvas 847 702 815 613 curve-edit 0;
#N canvas 0 54 450 250 (subpatch) 0;
#X array ccR 256 float 5;
#A 0 0.0928572 0.0953126 0.0977679 0.100223 0.102679 0.105134 0.107589 0.110045 0.1125 0.114955 0.117411 0.119866 0.122321 0.124777 0.127232 0.129688 0.132143 0.134598 0.137054 0.139509 0.141964 0.14442 0.146875 0.14933 0.151786 0.154241 0.156696 0.159152 0.161607 0.164062 0.166518 0.168973 0.171429 0.171875 0.172321 0.172768 0.173214 0.173661 0.174107 0.174554 0.175 0.175446 0.175893 0.176339 0.176786 0.177232 0.177679 0.178125 0.178571 0.179018 0.179464 0.179911 0.180357 0.180804 0.18125 0.181697 0.182143 0.182589 0.183036 0.183482 0.183929 0.184375 0.184822 0.185268 0.185714 0.1875 0.189286 0.191072 0.192857 0.194643 0.196429 0.198214 0.2 0.201786 0.203571 0.205357 0.207143 0.208928 0.210714 0.2125 0.214286 0.216071 0.217857 0.219643 0.221428 0.223214 0.225 0.226785 0.228571 0.230357 0.232143 0.233928 0.235714 0.2375 0.239285 0.241071 0.242857 0.244866 0.246875 0.248883 0.250892 0.252901 0.25491 0.256919 0.258928 0.260937 0.262946 0.264955 0.266964 0.268973 0.270982 0.27299 0.274999 0.277008 0.279017 0.281026 0.283035 0.285044 0.287053 0.289062 0.291071 0.29308 0.295088 0.297097 0.299106 0.301115 0.303124 0.305133 0.307142 0.310267 0.313392 0.316517 0.319642 0.322767 0.325892 0.329017 0.332142 0.335267 0.338392 0.341517 0.344642 0.347767 0.350892 0.354017 0.357141 0.360266 0.363391 0.366516 0.369641 0.372766 0.375891 0.379016 0.382141 0.385266 0.388391 0.391516 0.394641 0.397766 0.400891 0.404016 0.407141 0.408704 0.410266 0.411829 0.413392 0.414954 0.416517 0.41808 0.419642 0.421205 0.422768 0.42433 0.425893 0.427456 0.429018 0.430581 0.432144 0.433706 0.435269 0.436832 0.438395 0.439957 0.44152 0.443083 0.444645 0.446208 0.447771 0.449333 0.450896 0.452459 0.454021 0.455584 0.457147 0.459379 0.461611 0.463843 0.466075 0.468307 0.470539 0.472771 0.475004 0.477236 0.479468 0.4817 0.483932 0.486164 0.488396 0.490628 0.492861 0.495093 0.497325 0.499557 0.501789 0.504021 0.506253 0.508485 0.510718 0.51295 0.515182 0.517414 0.519646 0.521878 0.52411 0.526342 0.528574 0.528574 0.528574 0.528574 0.528574 0.528574 0.528574 0.528574 0.528574 0.528574 0.528574 0.528574 0.528574 0.528574 0.528574 0.528574 0.528574 0.528574 0.528574 0.528574 0.528574 0.528574 0.528574 0.528574 0.528574 0.528574 0.528574 0.528574 0.528574 0.528574 0.528574 0.528574;
#X coords 0 1 256 0 256 256 1 0 0;
#X restore 12 18 graph;
#N canvas 0 54 450 250 (subpatch) 0;
#X array ccG 256 float 5;
#A 0 0.114286 0.114955 0.115625 0.116294 0.116964 0.117634 0.118303 0.118973 0.119643 0.120312 0.120982 0.121652 0.122321 0.122991 0.12366 0.12433 0.125 0.125669 0.126339 0.127009 0.127678 0.128348 0.129018 0.129687 0.130357 0.131026 0.131696 0.132366 0.133035 0.133705 0.134375 0.135044 0.135714 0.136384 0.137053 0.137723 0.138393 0.139062 0.139732 0.140402 0.141071 0.141741 0.142411 0.14308 0.14375 0.14442 0.145089 0.145759 0.146429 0.147098 0.147768 0.148438 0.149107 0.149777 0.150447 0.151116 0.151786 0.152456 0.153125 0.153795 0.154465 0.155134 0.155804 0.156474 0.157143 0.157813 0.158482 0.159152 0.159822 0.160491 0.161161 0.161831 0.1625 0.16317 0.16384 0.164509 0.165179 0.165848 0.166518 0.167188 0.167857 0.168527 0.169197 0.169866 0.170536 0.171206 0.171875 0.172545 0.173214 0.173884 0.174554 0.175223 0.175893 0.176563 0.177232 0.177902 0.178572 0.179688 0.180804 0.18192 0.183036 0.184152 0.185268 0.186384 0.1875 0.188616 0.189732 0.190848 0.191964 0.19308 0.194196 0.195312 0.196428 0.197544 0.19866 0.199776 0.200892 0.202008 0.203124 0.20424 0.205356 0.206472 0.207588 0.208704 0.20982 0.210936 0.212052 0.213168 0.214284 0.219195 0.224106 0.229017 0.233927 0.238838 0.243749 0.24866 0.253571 0.258482 0.263393 0.268303 0.273214 0.278125 0.283036 0.287947 0.292858 0.297769 0.302679 0.30759 0.312501 0.317412 0.322323 0.327234 0.332144 0.337055 0.341966 0.346877 0.351788 0.356699 0.36161 0.36652 0.371431 0.373663 0.375896 0.378128 0.38036 0.382592 0.384824 0.387056 0.389288 0.391521 0.393753 0.395985 0.398217 0.400449 0.402681 0.404913 0.407146 0.409378 0.41161 0.413842 0.416074 0.418306 0.420538 0.422771 0.425003 0.427235 0.429467 0.431699 0.433931 0.436163 0.438396 0.440628 0.44286 0.449779 0.456698 0.463618 0.470537 0.477457 0.484376 0.491295 0.498215 0.505134 0.512053 0.518973 0.525892 0.532811 0.539731 0.54665 0.553569 0.560489 0.567408 0.574327 0.581247 0.588166 0.595086 0.602005 0.608924 0.615844 0.622763 0.629682 0.636602 0.643521 0.65044 0.65736 0.664279 0.664279 0.664279 0.664279 0.664279 0.664279 0.664279 0.664279 0.664279 0.664279 0.664279 0.664279 0.664279 0.664279 0.664279 0.664279 0.664279 0.664279 0.664279 0.664279 0.664279 0.664279 0.664279 0.664279 0.664279 0.664279 0.664279 0.664279 0.664279 0.664279 0.664279 0.664279;
#X coords 0 1 256 0 256 256 1 0 0;
#X restore 278 19 graph;
#N canvas 0 54 450 250 (subpatch) 0;
#X array ccB 256 float 5;
#A 0 0.235713 0.236383 0.237053 0.237722 0.238392 0.239062 0.239731 0.240401 0.241071 0.24174 0.24241 0.24308 0.243749 0.244419 0.245089 0.245758 0.246428 0.247097 0.247767 0.248437 0.249106 0.249776 0.250446 0.251115 0.251785 0.252455 0.253124 0.253794 0.254464 0.255133 0.255803 0.256472 0.257142 0.259597 0.262053 0.264508 0.266964 0.269419 0.271874 0.27433 0.276785 0.27924 0.281696 0.284151 0.286606 0.289062 0.291517 0.293972 0.296428 0.298883 0.301338 0.303794 0.306249 0.308704 0.31116 0.313615 0.31607 0.318526 0.320981 0.323436 0.325892 0.328347 0.330803 0.333258 0.335713 0.33616 0.336606 0.337053 0.337499 0.337946 0.338392 0.338839 0.339285 0.339731 0.340178 0.340624 0.341071 0.341517 0.341964 0.34241 0.342857 0.343303 0.34375 0.344196 0.344643 0.345089 0.345536 0.345982 0.346429 0.346875 0.347322 0.347768 0.348214 0.348661 0.349107 0.349554 0.35 0.352009 0.354018 0.356027 0.358036 0.360045 0.362054 0.364063 0.366071 0.36808 0.370089 0.372098 0.374107 0.376116 0.378125 0.380134 0.382143 0.384151 0.38616 0.388169 0.390178 0.392187 0.394196 0.396205 0.398214 0.400223 0.402231 0.40424 0.406249 0.408258 0.410267 0.412276 0.414285 0.417633 0.420981 0.42433 0.427678 0.431027 0.434375 0.437723 0.441072 0.44442 0.447768 0.451117 0.454465 0.457813 0.461162 0.46451 0.467858 0.471207 0.474555 0.477903 0.481252 0.4846 0.487948 0.491297 0.494645 0.497994 0.501342 0.50469 0.508039 0.511387 0.514735 0.518084 0.521432 0.530584 0.539735 0.548887 0.558039 0.56719 0.576342 0.585494 0.594646 0.603797 0.612949 0.622101 0.631252 0.640404 0.649556 0.658707 0.667859 0.677011 0.686162 0.695314 0.704466 0.713617 0.722769 0.731921 0.741072 0.750224 0.759376 0.768528 0.777679 0.786831 0.795983 0.805134 0.814286 0.82009 0.825893 0.831697 0.8375 0.843304 0.849107 0.854911 0.860714 0.866518 0.872322 0.878125 0.883929 0.889732 0.895536 0.901339 0.907143 0.912946 0.91875 0.924554 0.930357 0.936161 0.941964 0.947768 0.953571 0.959375 0.965178 0.970982 0.976786 0.982589 0.988393 0.994196 1 1 1 1 1 1 1 1 1 1 1 1 1 1 1 1 1 1 1 1 1 1 1 1 1 1 1 1 1 1 1 1;
#X coords 0 1 256 0 256 256 1 0 0;
#X restore 543 19 graph;
#X obj 503 500 inlet;
#X obj 549 500 inlet;
#X obj 503 548 outlet;
#X obj 503 524 eoshead;
#N canvas 0 50 450 250 (subpatch) 0;
#X array curvecontrol-r 8 float 3;
#A 0 0.0928572 0.171429 0.185714 0.242857 0.307142 0.407141 0.457147 0.528574;
#X coords 0 1 8 0 200 140 1 0 0;
#X restore 10 293 graph;
#N canvas 0 50 450 250 (subpatch) 0;
#X array curvecontrol-g 8 float 3;
#A 0 0.114286 0.135714 0.157143 0.178572 0.214284 0.371431 0.44286 0.664279;
#X coords 0 1 8 0 200 140 1 0 0;
#X restore 279 295 graph;
#N canvas 799 369 315 510 render-curves 0;
#X obj 59 15 inlet;
#X obj 58 168 float 0;
#X obj 58 140 until;
#X obj 58 111 float;
#X obj 118 169 + 1;
#X obj 56 224 / 32;
#X obj 81 252 / 32;
#X obj 105 278 / 32;
#X obj 56 198 t f f f f f f, f 18;
#X obj 88 343 tabreadlin curvecontrol-g;
#X obj 108 373 tabreadlin curvecontrol-b;
#X obj 88 83 expr 256;
#X obj 58 44 t b b b, f 8;
#X msg 115 141 0;
#X obj 56 313 tabreadlin curvecontrol-r;
#X obj 56 411 array set ccR, f 21;
#X obj 90 441 array set ccG, f 21;
#X obj 110 471 array set ccB, f 21;
#X connect 0 0 12 0;
#X connect 1 0 4 0;
#X connect 1 0 8 0;
#X connect 2 0 1 0;
#X connect 3 0 2 0;
#X connect 4 0 1 1;
#X connect 5 0 14 0;
#X connect 6 0 9 0;
#X connect 7 0 10 0;
#X connect 8 0 5 0;
#X connect 8 1 6 0;
#X connect 8 2 7 0;
#X connect 8 3 15 1;
#X connect 8 4 16 1;
#X connect 8 5 17 1;
#X connect 9 0 16 0;
#X connect 10 0 17 0;
#X connect 11 0 3 1;
#X connect 12 0 3 0;
#X connect 12 1 11 0;
#X connect 12 2 13 0;
#X connect 13 0 1 1;
#X connect 14 0 15 0;
#X restore 555 550 pd render-curves;
#N canvas 0 50 450 250 (subpatch) 0;
#X array curvecontrol-b 8 float 3;
#A 0 0.235713 0.257142 0.335713 0.35 0.414285 0.521432 0.814286 1;
#X coords 0 1 8 0 200 140 1 0 0;
#X restore 543 293 graph;
#X obj 11 442 vsl 15 128 0 1 0 0 empty empty empty 0 -9 0 10 #fcfcfc #000000 #000000 0 1;
#X obj 26 442 vsl 15 128 0 1 0 0 empty empty empty 0 -9 0 10 #fcfcfc #000000 #000000 0 1;
#N canvas 712 590 380 210 slidertoarray 0;
#X obj 23 23 inlet;
#X obj 63 23 inlet;
#X obj 103 23 inlet;
#X obj 143 23 inlet;
#X obj 183 23 inlet;
#X obj 223 23 inlet;
#X obj 263 23 inlet;
#X obj 303 23 inlet;
#X obj 23 48 t f b;
#X msg 51 78 0;
#X obj 63 48 t f b;
#X obj 103 48 t f b;
#X obj 143 48 t f b;
#X obj 183 48 t f b;
#X obj 223 48 t f b;
#X obj 263 48 t f b;
#X obj 303 48 t f b;
#X msg 91 78 1;
#X msg 131 78 2;
#X msg 171 78 3;
#X msg 211 78 4;
#X msg 251 78 5;
#X msg 291 78 6;
#X msg 331 78 7;
#X obj 23 170 array set curvecontrol-r 0, f 46;
#X connect 0 0 8 0;
#X connect 1 0 10 0;
#X connect 2 0 11 0;
#X connect 3 0 12 0;
#X connect 4 0 13 0;
#X connect 5 0 14 0;
#X connect 6 0 15 0;
#X connect 7 0 16 0;
#X connect 8 0 24 0;
#X connect 8 1 9 0;
#X connect 9 0 24 1;
#X connect 10 0 24 0;
#X connect 10 1 17 0;
#X connect 11 0 24 0;
#X connect 11 1 18 0;
#X connect 12 0 24 0;
#X connect 12 1 19 0;
#X connect 13 0 24 0;
#X connect 13 1 20 0;
#X connect 14 0 24 0;
#X connect 14 1 21 0;
#X connect 15 0 24 0;
#X connect 15 1 22 0;
#X connect 16 0 24 0;
#X connect 16 1 23 0;
#X connect 17 0 24 1;
#X connect 18 0 24 1;
#X connect 19 0 24 1;
#X connect 20 0 24 1;
#X connect 21 0 24 1;
#X connect 22 0 24 1;
#X connect 23 0 24 1;
#X restore 11 580 pd slidertoarray;
#X obj 41 442 vsl 15 128 0 1 0 0 empty empty empty 0 -9 0 10 #fcfcfc #000000 #000000 0 1;
#X obj 56 442 vsl 15 128 0 1 0 0 empty empty empty 0 -9 0 10 #fcfcfc #000000 #000000 0 1;
#X obj 71 442 vsl 15 128 0 1 0 0 empty empty empty 0 -9 0 10 #fcfcfc #000000 #000000 0 1;
#X obj 86 442 vsl 15 128 0 1 0 0 empty empty empty 0 -9 0 10 #fcfcfc #000000 #000000 0 1;
#X obj 101 442 vsl 15 128 0 1 0 0 empty empty empty 0 -9 0 10 #fcfcfc #000000 #000000 0 1;
#X obj 116 442 vsl 15 128 0 1 0 0 empty empty empty 0 -9 0 10 #fcfcfc #000000 #000000 0 1;
#X connect 3 0 6 0;
#X connect 4 0 6 1;
#X connect 6 0 5 0;
#X connect 6 1 9 0;
#X connect 11 0 13 0;
#X connect 12 0 13 1;
#X connect 14 0 13 2;
#X connect 15 0 13 3;
#X connect 16 0 13 4;
#X connect 17 0 13 5;
#X connect 18 0 13 6;
#X connect 19 0 13 7;
#X restore 406 249 pd curve-edit;
#X obj 529 249 tgl 15 0 empty empty empty 17 7 0 10 #fcfcfc #000000 #000000 0 1;
#X obj 527 280 tgl 15 0 empty empty empty 17 7 0 10 #fcfcfc #000000 #000000 0 1;
#N canvas 945 469 434 378 range-map 0;
#X obj 11 6 inlet;
#X obj 57 6 inlet;
#X obj 11 54 outlet;
#X obj 11 30 eoshead;
#X obj 81 329 s to-composite;
#X floatatom 166 90 5 0 0 0 - - - 0;
#X floatatom 201 325 5 0 0 0 - - - 0;
#X obj 247 199 render-control;
#X floatatom 123 141 5 0 0 0 - - - 0;
#X floatatom 209 141 5 0 0 0 - - - 0;
#X floatatom 294 141 5 0 0 0 - - - 0;
#X floatatom 166 141 5 0 0 0 - - - 0;
#X floatatom 251 141 5 0 0 0 - - - 0;
#X floatatom 337 141 5 0 0 0 - - - 0;
#X text 120 117 Rmin;
#X text 163 117 Rmax;
#X text 206 117 Gmin;
#X text 249 117 Gmax;
#X text 291 117 Bmin;
#X text 334 117 Bmax;
#X floatatom 250 90 5 0 0 0 - - - 0;
#X floatatom 160 40 5 0 0 0 - - - 0;
#X obj 84 297 render lines 0 64;
#X obj 78 64 gradients 128;
#X obj 81 167 rangemap 0.149 1 0.117 1 0.243 1, f 37;
#X connect 0 0 3 0;
#X connect 1 0 3 1;
#X connect 3 0 2 0;
#X connect 3 1 23 0;
#X connect 7 0 22 1;
#X connect 8 0 24 1;
#X connect 9 0 24 3;
#X connect 10 0 24 5;
#X connect 11 0 24 2;
#X connect 12 0 24 4;
#X connect 13 0 24 6;
#X connect 20 0 11 0;
#X connect 20 0 12 0;
#X connect 20 0 13 0;
#X connect 21 0 23 1;
#X connect 22 0 4 0;
#X connect 22 1 6 0;
#X connect 23 0 24 0;
#X connect 23 1 5 0;
#X connect 24 0 22 0;
#X restore 405 185 pd range-map;
#N canvas 1385 708 385 300 curve-map 0;
#X obj 11 6 inlet;
#X obj 57 6 inlet;
#X obj 11 54 outlet;
#X obj 11 30 eoshead;
#X obj 64 259 s to-composite;
#X floatatom 153 118 5 0 0 0 - - - 0;
#X floatatom 182 171 5 0 0 0 - - - 0;
#X obj 206 22 render-control;
#X floatatom 114 48 5 0 0 0 - - - 0;
#X obj 65 145 render lines 0 64;
#X obj 63 93 gradients 128;
#X obj 138 193 tgl 15 0 empty empty empty 17 7 0 10 #fcfcfc #000000 #000000 0 1;
#X obj 64 214 colorcurves;
#X connect 0 0 3 0;
#X connect 1 0 3 1;
#X connect 3 0 2 0;
#X connect 3 1 10 0;
#X connect 7 0 9 1;
#X connect 8 0 10 1;
#X connect 9 0 12 0;
#X connect 9 1 6 0;
#X connect 10 0 9 0;
#X connect 10 1 5 0;
#X connect 11 0 12 1;
#X connect 12 0 4 0;
#X restore 405 215 pd curve-map;
#X obj 527 158 tgl 15 0 empty empty empty 17 7 0 10 #fcfcfc #000000 #000000 0 1;
#N canvas 962 686 317 317 colorwheel 0;
#X obj 11 6 inlet;
#X obj 57 6 inlet;
#X obj 11 54 outlet;
#X obj 11 30 eoshead;
#X obj 61 279 s to-composite;
#X floatatom 258 7 5 0 0 0 - - - 0;
#X obj 203 7 v time;
#X obj 136 223 tgl 15 0 empty empty empty 17 7 0 10 #fcfcfc #000000 #000000 0 1;
#X obj 204 32 * 0;
#X floatatom 99 143 5 0 0 0 - - - 0;
#X floatatom 139 143 5 0 0 0 - - - 0;
#X obj 61 245 colorcurves;
#X floatatom 77 74 5 0 0 0 - - - 0;
#X floatatom 117 74 5 0 0 0 - - - 0;
#X obj 60 100 polygon 256;
#X obj 61 169 gradient 0 2;
#X connect 0 0 3 0;
#X connect 1 0 3 1;
#X connect 3 0 2 0;
#X connect 3 1 14 0;
#X connect 5 0 8 1;
#X connect 6 0 8 0;
#X connect 7 0 11 1;
#X connect 9 0 15 1;
#X connect 10 0 15 2;
#X connect 11 0 4 0;
#X connect 12 0 14 1;
#X connect 13 0 14 2;
#X connect 14 0 15 0;
#X connect 15 0 11 0;
#X restore 405 158 pd colorwheel;
#X obj 20 291 denormalize;
#X obj 524 310 tgl 15 0 empty empty empty 17 7 0 10 #fcfcfc #000000 #000000 0 1;
#X obj 531 338 tgl 15 0 empty empty empty 17 7 0 10 #fcfcfc #000000 #000000 0 1;
#N canvas 1012 586 315 537 qix 0;
#X obj 58 507 s to-composite;
#X obj 10 17 inlet;
#X obj 56 17 inlet;
#X obj 10 65 outlet;
#X obj 10 41 eoshead;
#X obj 56 226 qix;
#X floatatom 105 300 5 0 0 0 - - - 0;
#X obj 60 323 scale 1 1;
#X obj 180 278 render-control;
#X obj 60 375 symmetry;
#X floatatom 113 349 5 0 0 0 - - - 0;
#X obj 105 43 qix-control;
#X obj 60 407 render lines 1 64;
#X floatatom 105 242 5 0 0 0 - - - 0;
#X floatatom 155 242 5 0 0 0 - - - 0;
#X obj 67 268 gradient 1 0.75;
#X connect 1 0 4 0;
#X connect 2 0 4 1;
#X connect 4 0 3 0;
#X connect 4 1 5 0;
#X connect 5 0 15 0;
#X connect 6 0 7 1;
#X connect 6 0 7 2;
#X connect 7 0 9 0;
#X connect 8 0 12 1;
#X connect 9 0 12 0;
#X connect 10 0 9 1;
#X connect 11 0 5 1;
#X connect 12 0 0 0;
#X connect 13 0 15 1;
#X connect 14 0 15 2;
#X connect 15 0 7 0;
#X restore 405 338 pd qix;
#N canvas 763 368 336 350 phase-tunnel 0;
#X obj 11 6 inlet;
#X obj 57 6 inlet;
#X obj 11 54 outlet;
#X obj 11 30 eoshead;
#X obj 55 312 s to-composite;
#X obj 57 281 colorcurves;
#X obj 57 184 phasetunnel;
#X floatatom 102 221 5 0 0 0 - - - 0;
#X obj 57 248 scale 1 1;
#X obj 132 12 phasetunnel-control;
#X obj 165 240 tgl 20 0 empty empty empty 0 -10 0 12 #fcfcfc #000000 #000000 0 1;
#X connect 0 0 3 0;
#X connect 1 0 3 1;
#X connect 3 0 2 0;
#X connect 3 1 6 0;
#X connect 5 0 4 0;
#X connect 6 0 8 0;
#X connect 7 0 8 1;
#X connect 7 0 8 2;
#X connect 8 0 5 0;
#X connect 9 0 6 1;
#X connect 10 0 5 1;
#X restore 407 368 pd phase-tunnel;
#X obj 531 368 tgl 15 0 empty empty empty 17 7 0 10 #fcfcfc #000000 #000000 0 1;
#N canvas 730 462 553 285 triggers 0;
#X obj 11 6 inlet;
#X obj 57 6 inlet;
#X obj 11 54 outlet;
#X obj 11 30 eoshead;
#X obj 412 42 trigger1;
#X obj 412 8 bng 30 250 50 0 empty empty empty 17 7 0 10 #fcfcfc #000000 #000000;
#X obj 67 93 v time;
#X obj 67 123 triggers;
#X floatatom 94 149 5 0 0 0 - - - 0;
#X obj 477 8 bng 30 250 50 0 empty empty empty 17 7 0 10 #fcfcfc #000000 #000000;
#X obj 477 42 trigger2;
#X obj 198 97 v time;
#X obj 198 147 change;
#X obj 198 172 t b;
#X obj 65 232 s to-composite;
#X obj 142 179 tgl 15 0 empty empty empty 17 7 0 10 #fcfcfc #000000 #000000 0 1;
#X obj 67 201 colorcurves;
#X obj 120 88 bng 30 250 50 0 empty empty RESET 0 16 0 10 #fcfcfc #000000 #000000;
#X obj 67 60 t b b b, f 45;
#X floatatom 134 149 5 0 0 0 - - - 0;
#X floatatom 327 96 5 0 0 0 - - - 0;
#X obj 206 216 bng 30 50 10 0 empty empty empty 17 7 0 10 #fcfcfc #000000 #000000;
#X obj 197 123 expr int($f1 * $f2);
#X obj 378 215 bng 30 250 50 0 empty empty empty 17 7 0 10 #fcfcfc #000000 #000000;
#X obj 373 97 v time;
#X obj 373 147 change;
#X floatatom 502 96 5 0 0 0 - - - 0;
#X obj 372 123 expr int($f1 * $f2);
#X obj 373 172 t b;
#X floatatom 483 210 5 0 0 0 - - - 0;
#X obj 378 249 fadecircle 2 50;
#X obj 200 250 fadeline 2;
#X connect 0 0 3 0;
#X connect 1 0 3 1;
#X connect 3 0 2 0;
#X connect 3 1 18 0;
#X connect 5 0 4 0;
#X connect 6 0 7 0;
#X connect 7 0 16 0;
#X connect 7 1 8 0;
#X connect 7 2 19 0;
#X connect 9 0 10 0;
#X connect 11 0 22 0;
#X connect 12 0 13 0;
#X connect 13 0 31 0;
#X connect 15 0 16 1;
#X connect 16 0 14 0;
#X connect 17 0 7 1;
#X connect 18 0 6 0;
#X connect 18 1 11 0;
#X connect 18 2 24 0;
#X connect 20 0 22 1;
#X connect 21 0 31 0;
#X connect 22 0 12 0;
#X connect 23 0 30 0;
#X connect 24 0 27 0;
#X connect 25 0 28 0;
#X connect 26 0 27 1;
#X connect 27 0 25 0;
#X connect 28 0 30 0;
#X connect 29 0 30 1;
#X restore 405 311 pd triggers;
#X obj 685 160 tgl 15 0 empty empty empty 17 7 0 10 #fcfcfc #000000 #000000 0 1;
#N canvas 189 420 339 445 greg-scan 0;
#X obj 10 10 inlet;
#X obj 56 10 inlet;
#X obj 10 58 outlet;
#X obj 10 34 eoshead;
#X obj 74 116 normalize;
#X obj 212 120 render-control;
#X floatatom 119 313 5 0 0 0 - - - 0;
#X obj 75 409 s to-composite;
#X msg 73 68 -2000 0 255 255 255 2000 0 255 255 255, f 19;
#X obj 75 339 scale 0.5 0.5;
#X floatatom 153 257 5 0 0 0 - - - 0;
#X obj 75 226 render lines 0 480 0;
#X obj 75 374 render points 8 16 10;
#X obj 74 282 gradient 0 2;
#X connect 0 0 3 0;
#X connect 1 0 3 1;
#X connect 3 0 2 0;
#X connect 3 1 8 0;
#X connect 4 0 11 0;
#X connect 5 0 11 1;
#X connect 6 0 9 1;
#X connect 8 0 4 0;
#X connect 9 0 12 0;
#X connect 10 0 13 2;
#X connect 11 0 13 0;
#X connect 12 0 7 0;
#X connect 13 0 9 0;
#X restore 570 160 pd greg-scan;
#X obj 686 192 tgl 15 0 empty empty empty 17 7 0 10 #fcfcfc #000000 #000000 0 1;
#N canvas 533 274 322 349 square 0;
#X obj 10 10 inlet;
#X obj 56 10 inlet;
#X obj 10 58 outlet;
#X obj 10 34 eoshead;
#X obj 197 99 render-control;
#X floatatom 99 246 5 0 0 0 - - - 0;
#X obj 55 312 s to-composite;
#X obj 56 96 xyrgb-file square;
#X obj 55 272 scale 2 2;
#X floatatom 134 136 5 0 0 0 - - - 0;
#X obj 55 161 gradient 0 2;
#X floatatom 94 136 5 0 0 0 - - - 0;
#X obj 155 28 bng 15 250 50 0 empty empty empty 17 7 0 10 #fcfcfc #000000 #000000;
#X obj 53 221 render points 4 32 16;
#X connect 0 0 3 0;
#X connect 1 0 3 1;
#X connect 3 0 2 0;
#X connect 3 1 7 0;
#X connect 4 0 13 1;
#X connect 5 0 8 1;
#X connect 5 0 8 2;
#X connect 7 0 13 0;
#X connect 8 0 6 0;
#X connect 9 0 10 2;
#X connect 11 0 10 1;
#X connect 12 0 7 0;
#X connect 13 0 8 0;
#X restore 570 190 pd square;
#X obj 686 221 tgl 15 0 empty empty empty 17 7 0 10 #fcfcfc #000000 #000000 0 1;
#N canvas 1055 0 628 637 testpatterns 0;
#X obj 10 10 inlet;
#X obj 56 10 inlet;
#X obj 10 58 outlet;
#X obj 10 34 eoshead;
#X obj 229 134 render-control;
#X floatatom 102 336 5 0 0 0 - - - 0;
#X obj 55 512 s to-composite;
#X obj 58 362 scale 0.2;
#X msg 203 48 load Logo7_26.ild;
#X obj 56 168 ilda-file, f 17;
#X msg 200 20 load lmtestfromkarl.ild;
#X floatatom 94 195 5 0 0 0 - - - 0;
#X floatatom 134 195 5 0 0 0 - - - 0;
#X floatatom 174 195 5 0 0 0 - - - 0;
#X msg 201 106 load ildatsta.ild;
#X msg 201 76 load ildatestfromkarl.ild;
#X obj 58 258 render lines 0 64 0;
#X obj 121 43 bng 15 250 50 0 empty empty empty 17 7 0 10 #fcfcfc #000000 #000000;
#X obj 245 495 normalize;
#X msg 272 363 -1024 0 255 0 0 0 0 0 255 0 1024 0 0 0 255, f 15;
#X floatatom 107 453 5 0 0 0 - - - 0;
#X floatatom 148 453 5 0 0 0 - - - 0;
#X obj 56 476 translate 0 0;
#X msg 243 272 -1024 -1024 255 255 255 1024 -1024 255 255 255 1024 1024 255 255 255 -1024 1024 255 255 255 -1024 -1024 255 255 255, f 24;
#X obj 383 553 tgl 20 0 empty empty empty 0 -10 0 12 #fcfcfc #000000 #000000 0 1;
#X obj 248 584 eoscsend aorus 12000;
#X obj 420 363 render-control;
#X obj 53 583 s to-composite;
#X obj 436 487 tgl 20 0 empty empty empty 0 -10 0 12 #fcfcfc #000000 #000000 0 1;
#X msg 436 511 smoothblank \$1;
#X msg 436 271 -1024 -1024 255 255 255 1024 -1024 255 255 255 1024 1024 255 255 255 -1024 1024 255 255 255, f 24;
#X msg 432 172 -1024 -1024 255 255 255 -1024 -1024 0 0 0 1024 -1024 255 255 255 1024 1024 255 255 255 -1024 1024 255 255 255, f 24;
#X obj 244 527 render3 points 0 32 0;
#X msg 437 564 beziercontrol \$1;
#X floatatom 438 541 5 0 0 0 - - - 0;
#X connect 0 0 3 0;
#X connect 1 0 3 1;
#X connect 3 0 2 0;
#X connect 3 1 9 0;
#X connect 4 0 16 1;
#X connect 5 0 7 1;
#X connect 5 0 7 2;
#X connect 7 0 22 0;
#X connect 8 0 9 1;
#X connect 9 0 16 0;
#X connect 9 1 11 0;
#X connect 9 2 12 0;
#X connect 9 3 13 0;
#X connect 10 0 9 1;
#X connect 14 0 9 1;
#X connect 15 0 9 1;
#X connect 16 0 7 0;
#X connect 17 0 9 0;
#X connect 18 0 32 0;
#X connect 19 0 18 0;
#X connect 20 0 22 1;
#X connect 21 0 22 2;
#X connect 22 0 6 0;
#X connect 23 0 18 0;
#X connect 24 0 25 1;
#X connect 26 0 32 1;
#X connect 28 0 29 0;
#X connect 29 0 32 1;
#X connect 31 0 18 0;
#X connect 32 0 27 0;
#X connect 33 0 32 1;
#X connect 34 0 33 0;
#X restore 570 250 pd testpatterns;
#X obj 687 253 tgl 15 0 empty empty empty 17 7 0 10 #fcfcfc #000000 #000000 0 1;
#N canvas 1091 275 634 755 flock 1;
#X obj 57 642 s to-composite;
#X obj 11 11 inlet;
#X obj 55 11 inlet;
#X obj 88 42 flock-control;
#X obj 10 58 outlet;
#X obj 10 34 eoshead;
#X obj 37 482 flock;
#X obj 202 426 render-control;
#X obj 223 546 tgl 20 0 empty empty empty 0 -10 0 12 #fcfcfc #000000 #000000 0 1;
#X msg 223 570 smoothblank \$1;
#X obj 57 605 render3 points 4 32 8;
#X msg 234 618 beziercontrol \$1;
#X floatatom 235 595 5 0 0 0 - - - 0;
#X obj 57 559 symmetry;
#X floatatom 110 533 5 0 0 0 - - - 0;
#X obj 413 556 convexhull;
#X obj 51 517 t l l;
#X obj 412 621 ttlcolor white;
#X obj 411 664 render4 lines 20 64 0;
#X floatatom 560 706 5 0 0 0 - - - 0;
#X connect 1 0 5 0;
#X connect 2 0 5 1;
#X connect 3 0 6 1;
#X connect 5 0 4 0;
#X connect 5 1 6 0;
#X connect 6 0 16 0;
#X connect 7 0 10 1;
#X connect 8 0 9 0;
#X connect 9 0 10 1;
#X connect 10 0 0 0;
#X connect 11 0 10 1;
#X connect 12 0 11 0;
#X connect 13 0 10 0;
#X connect 14 0 13 1;
#X connect 15 0 17 0;
#X connect 16 0 13 0;
#X connect 16 1 15 0;
#X connect 17 0 18 0;
#X connect 18 0 0 0;
#X connect 18 1 19 0;
#X restore 572 219 pd flock;
#X obj 686 282 tgl 15 0 empty empty empty 17 7 0 10 #fcfcfc #000000 #000000 0 1;
#N canvas 852 34 323 641 noise-scan 0;
#X obj 10 12 inlet;
#X obj 56 12 inlet;
#X obj 10 60 outlet;
#X obj 10 36 eoshead;
#X obj 14 603 s to-composite;
#X obj 107 580 tgl 15 0 empty empty empty 17 7 0 10 #fcfcfc #000000 #000000 0 1;
#X obj 16 575 colorcurves;
#X obj 16 191 colorscan 500;
#N canvas 830 82 614 485 scan-control 0;
#X floatatom 118 212 7 0 0 0 - - - 0;
#X floatatom 172 212 5 0 0 0 - - - 0;
#X floatatom 210 212 5 0 0 0 - - - 0;
#X floatatom 118 231 7 0 0 0 - - - 0;
#X floatatom 172 231 5 0 0 0 - - - 0;
#X floatatom 210 231 5 0 0 0 - - - 0;
#X floatatom 118 250 7 0 0 0 - - - 0;
#X floatatom 172 250 5 0 0 0 - - - 0;
#X floatatom 210 250 5 0 0 0 - - - 0;
#X text 116 192 Freq;
#X text 170 192 Amp;
#X text 208 192 Phase;
#X floatatom 209 102 5 0 0 0 - - - 0;
#X text 151 102 Points;
#X obj 517 258 outlet;
#X obj 235 35 t b;
#X obj 237 12 loadbang;
#X msg 455 142 npoints \$1;
#X obj 209 131 vradio 15 1 0 2 empty empty empty 0 -8 0 10 #fcfcfc #000000 #000000 0;
#X msg 336 141 rfreq \$1;
#X msg 346 167 ramp \$1;
#X msg 356 193 rphase \$1;
#X msg 336 221 gfreq \$1;
#X msg 346 247 gamp \$1;
#X msg 356 273 gphase \$1;
#X msg 336 301 bfreq \$1;
#X msg 346 327 bamp \$1;
#X msg 356 353 bphase \$1;
#X text 102 211 R;
#X text 102 231 G;
#X text 102 250 B;
#X text 151 145 Square;
#X text 151 129 Sine;
#X msg 348 112 mode \$1;
#X msg 375 13 1;
#X msg 375 37 1;
#X msg 375 73 1;
#X floatatom 208 171 5 0 0 0 - - - 0;
#X msg 218 336 offset \$1;
#X text 151 172 Offset;
#X msg 415 13 0.00281;
#X msg 415 37 -0.00337;
#X msg 415 73 -0.02423;
#X msg 335 73 0.321;
#X msg 335 37 0.431;
#X msg 335 13 0.422;
#X msg 218 74 400;
#X msg 148 34 0.5;
#X connect 0 0 19 0;
#X connect 1 0 20 0;
#X connect 2 0 21 0;
#X connect 3 0 22 0;
#X connect 4 0 23 0;
#X connect 5 0 24 0;
#X connect 6 0 25 0;
#X connect 7 0 26 0;
#X connect 8 0 27 0;
#X connect 12 0 17 0;
#X connect 15 0 45 0;
#X connect 15 0 34 0;
#X connect 15 0 40 0;
#X connect 15 0 44 0;
#X connect 15 0 35 0;
#X connect 15 0 41 0;
#X connect 15 0 43 0;
#X connect 15 0 36 0;
#X connect 15 0 42 0;
#X connect 15 0 46 0;
#X connect 15 0 47 0;
#X connect 16 0 15 0;
#X connect 17 0 14 0;
#X connect 18 0 33 0;
#X connect 19 0 14 0;
#X connect 20 0 14 0;
#X connect 21 0 14 0;
#X connect 22 0 14 0;
#X connect 23 0 14 0;
#X connect 24 0 14 0;
#X connect 25 0 14 0;
#X connect 26 0 14 0;
#X connect 27 0 14 0;
#X connect 33 0 14 0;
#X connect 34 0 1 0;
#X connect 35 0 4 0;
#X connect 36 0 7 0;
#X connect 37 0 38 0;
#X connect 38 0 14 0;
#X connect 40 0 2 0;
#X connect 41 0 5 0;
#X connect 42 0 8 0;
#X connect 43 0 6 0;
#X connect 44 0 3 0;
#X connect 45 0 0 0;
#X connect 46 0 12 0;
#X connect 47 0 37 0;
#X coords 0 -1 1 1 150 170 2 100 100;
#X restore 133 14 pd scan-control;
#X obj 92 254 noisemod-control;
#X floatatom 56 454 5 0 0 0 - - - 0;
#X floatatom 97 454 5 0 0 0 - - - 0;
#X floatatom 69 513 5 0 0 0 - - - 0;
#X floatatom 110 513 5 0 0 0 - - - 0;
#X obj 16 479 scale 2 1, f 12;
#X obj 18 536 translate 334 0;
#X connect 0 0 3 0;
#X connect 1 0 3 1;
#X connect 3 0 2 0;
#X connect 3 1 7 0;
#X connect 5 0 6 1;
#X connect 6 0 4 0;
#X connect 7 0 14 0;
#X connect 8 0 7 1;
#X connect 10 0 14 1;
#X connect 11 0 14 2;
#X connect 12 0 15 1;
#X connect 13 0 15 2;
#X connect 14 0 15 0;
#X connect 15 0 6 0;
#X restore 570 280 pd noise-scan;
#N canvas 1217 73 392 495 blobber 0;
#X obj 10 12 inlet;
#X obj 56 12 inlet;
#X obj 10 60 outlet;
#X obj 10 36 eoshead;
#X obj 56 458 s to-composite;
#X obj 149 435 tgl 15 0 empty empty empty 17 7 0 10 #fcfcfc #000000 #000000 0 1;
#X obj 58 430 colorcurves;
#X obj 202 67 render-control;
#X floatatom 77 74 5 0 0 0 - - - 0;
#X floatatom 117 74 5 0 0 0 - - - 0;
#X floatatom 96 133 5 0 0 0 - - - 0;
#X floatatom 136 133 5 0 0 0 - - - 0;
#X obj 58 159 gradient 0 2;
#X obj 58 210 render lines 0 32 0;
#X obj 60 100 polygon 256;
#X obj 52 398 noisemod 0 0.2 0 0.6;
#X obj 200 215 noisemod-control;
#X connect 0 0 3 0;
#X connect 1 0 3 1;
#X connect 3 0 2 0;
#X connect 3 1 14 0;
#X connect 5 0 6 1;
#X connect 6 0 4 0;
#X connect 7 0 13 1;
#X connect 8 0 14 1;
#X connect 9 0 14 2;
#X connect 10 0 12 1;
#X connect 11 0 12 2;
#X connect 12 0 13 0;
#X connect 13 0 15 0;
#X connect 14 0 12 0;
#X connect 15 0 6 0;
#X connect 16 0 15 1;
#X restore 570 310 pd blobber;
#X obj 686 312 tgl 15 0 empty empty empty 17 7 0 10 #fcfcfc #000000 #000000 0 1;
#N canvas 225 641 407 804 traildot 0;
#X obj 19 769 s to-composite;
#X floatatom 67 540 5 0 0 0 - - - 0;
#X obj 10 17 inlet;
#X obj 56 17 inlet;
#X obj 10 65 outlet;
#X obj 10 41 eoshead;
#X obj 17 577 scale 1 1, f 12;
#X obj 175 614 render-control;
#X obj 16 332 traildot;
#X obj 207 20 traildot-control;
#X obj 16 616 noisemod 0 0.2 0 0.6, f 10;
#X obj 202 411 noisemod-control;
#X obj 19 514 rotate;
#X obj 91 433 v time;
#X obj 91 485 * 1;
#X floatatom 108 461 8 0 0 0 - - - 0;
#X obj 16 396 symmetry;
#X floatatom 69 370 5 0 0 0 - - - 0;
#X msg 51 275 trailcolor \$1;
#X obj 105 136 v time;
#X obj 55 104 t b b b, f 8;
#X floatatom 155 165 5 0 0 0 - - - 0;
#X msg 106 249 headcolor \$1;
#X floatatom 158 197 5 0 0 0 - - - 0;
#X obj 105 224 + 0.1;
#X obj 18 699 symmetry;
#X floatatom 71 673 5 0 0 0 - - - 0;
#X obj 104 187 * 0.01;
#X obj 19 741 render4 lines 0 32 0;
#X connect 1 0 6 1;
#X connect 1 0 6 2;
#X connect 2 0 5 0;
#X connect 3 0 5 1;
#X connect 5 0 4 0;
#X connect 5 1 20 0;
#X connect 6 0 10 0;
#X connect 7 0 28 1;
#X connect 8 0 16 0;
#X connect 9 0 8 1;
#X connect 10 0 25 0;
#X connect 11 0 10 1;
#X connect 12 0 6 0;
#X connect 13 0 14 0;
#X connect 14 0 12 1;
#X connect 15 0 14 1;
#X connect 16 0 12 0;
#X connect 17 0 16 1;
#X connect 18 0 8 1;
#X connect 19 0 27 0;
#X connect 20 0 8 0;
#X connect 20 1 13 0;
#X connect 20 2 19 0;
#X connect 21 0 27 1;
#X connect 22 0 8 1;
#X connect 23 0 24 1;
#X connect 24 0 22 0;
#X connect 25 0 28 0;
#X connect 26 0 25 1;
#X connect 27 0 18 0;
#X connect 27 0 24 0;
#X connect 28 0 0 0;
#X restore 570 341 pd traildot;
#X obj 685 344 tgl 15 0 empty empty empty 17 7 0 10 #fcfcfc #000000 #000000 0 1;
#N canvas 505 702 358 573 ilda-file 0;
#X obj 13 14 inlet;
#X obj 59 14 inlet;
#X obj 13 62 outlet;
#X obj 13 38 eoshead;
#X obj 58 506 s to-composite;
#X obj 198 308 render-control;
#X obj 59 138 ilda-file;
#X msg 141 116 dump;
#X obj 79 91 bng 15 250 50 0 empty empty empty 17 7 0 10 #fcfcfc #000000 #000000;
#X floatatom 79 167 5 0 0 0 - - - 0;
#X floatatom 119 167 5 0 0 0 - - - 0;
#X obj 82 285 hsl 128 8 1 1 0 0 empty empty empty -2 -8 0 10 #202020 #00fc04 #000000 0 1;
#X msg 119 249 range 1 \$1;
#X obj 119 223 change;
#X msg 79 194 set \$1;
#X floatatom 80 112 5 0 0 0 - - - 0;
#X obj 136 26 ilda-library-control;
#X floatatom 195 465 5 0 0 0 - - - 0;
#X floatatom 190 168 5 0 0 0 - - - 0;
#X obj 58 345 scale -1 -1;
#X obj 58 433 render lines 1 32 0;
#X connect 0 0 3 0;
#X connect 1 0 3 1;
#X connect 3 0 2 0;
#X connect 3 1 6 0;
#X connect 5 0 20 1;
#X connect 6 0 19 0;
#X connect 6 1 9 0;
#X connect 6 2 10 0;
#X connect 6 3 18 0;
#X connect 7 0 6 1;
#X connect 8 0 6 0;
#X connect 9 0 14 0;
#X connect 10 0 13 0;
#X connect 12 0 11 0;
#X connect 13 0 12 0;
#X connect 14 0 11 0;
#X connect 15 0 6 0;
#X connect 16 0 6 1;
#X connect 19 0 20 0;
#X connect 20 0 4 0;
#X connect 20 1 17 0;
#X restore 571 372 pd ilda-file;
#X obj 684 374 tgl 15 0 empty empty empty 17 7 0 10 #fcfcfc #000000 #000000 0 1;
#X obj 20 157 composite 32 10;
#X obj 833 132 tgl 15 0 empty empty empty 17 7 0 10 #fcfcfc #000000 #000000 0 1;
#N canvas 1301 34 376 744 noise-scan2 0;
#X obj 10 12 inlet;
#X obj 56 12 inlet;
#X obj 10 60 outlet;
#X obj 10 36 eoshead;
#X obj 14 683 s to-composite;
#X obj 107 660 tgl 15 0 empty empty empty 17 7 0 10 #fcfcfc #000000 #000000 0 1;
#X obj 16 655 colorcurves;
#X obj 177 150 noisemod-control;
#X floatatom 56 534 5 0 0 0 - - - 0;
#X floatatom 97 534 5 0 0 0 - - - 0;
#X floatatom 69 593 5 0 0 0 - - - 0;
#X floatatom 110 593 5 0 0 0 - - - 0;
#X obj 167 373 render-control;
#X obj 18 499 render points 4 32 0;
#X obj 16 559 scale 1 1, f 12;
#X obj 18 616 translate 0 0;
#X floatatom 183 543 5 0 0 0 - - - 0;
#X obj 62 94 eosline -2047 0 2047 0;
#X msg 212 63 npoints \$1;
#X floatatom 214 32 5 0 0 0 - - - 0;
#X floatatom 213 122 5 0 0 0 - - - 0;
#X obj 22 232 noop;
#X obj 17 329 surfacewave 0 0.2 0 0.6;
#X connect 0 0 3 0;
#X connect 1 0 3 1;
#X connect 3 0 2 0;
#X connect 3 1 17 0;
#X connect 5 0 6 1;
#X connect 6 0 4 0;
#X connect 7 0 22 1;
#X connect 8 0 14 1;
#X connect 9 0 14 2;
#X connect 10 0 15 1;
#X connect 11 0 15 2;
#X connect 12 0 13 1;
#X connect 13 0 14 0;
#X connect 13 1 16 0;
#X connect 14 0 15 0;
#X connect 15 0 6 0;
#X connect 17 0 22 0;
#X connect 17 1 20 0;
#X connect 18 0 17 1;
#X connect 19 0 18 0;
#X connect 22 0 13 0;
#X restore 717 131 pd noise-scan2;
#X obj 833 162 tgl 15 0 empty empty empty 17 7 0 10 #fcfcfc #000000 #000000 0 1;
#X obj 833 192 tgl 15 0 empty empty empty 17 7 0 10 #fcfcfc #000000 #000000 0 1;
#N canvas 1117 636 374 547 contourmap 0;
#X obj 10 10 inlet;
#X obj 56 10 inlet;
#X obj 10 58 outlet;
#X obj 10 34 eoshead;
#X obj 62 478 s to-composite;
#X obj 228 281 render-control;
#X obj 51 255 contourmap;
#N canvas 14 442 518 544 contourmap-control 0;
#X obj 54 50 preset-library contourmap;
#X floatatom 147 162 5 0 0 0 - \$0-isovalue - 0;
#X floatatom 147 202 5 0 0 0 - \$0-timestep - 0;
#X floatatom 147 122 5 0 0 0 - \$0-noisescale - 0;
#X msg 365 167 noisescale \$1;
#X msg 366 287 timestep \$1;
#X floatatom 147 182 5 0 0 0 - \$0-hue - 0;
#X msg 366 256 hue \$1;
#X floatatom 147 102 5 0 0 0 - \$0-noisedimx - 0;
#X msg 366 227 isovalue \$1;
#X floatatom 147 142 5 0 0 0 - \$0-nlayers - 0;
#X msg 366 197 nlayers \$1;
#X msg 363 107 noisedimx \$1;
#X floatatom 186 102 5 0 0 0 - \$0-noisedimy - 0;
#X msg 363 137 noisedimy \$1;
#X text 55 122 Scale;
#X text 55 142 Layers;
#X text 55 162 Isovalue;
#X text 55 182 Hue;
#X text 55 202 Time step;
#X text 55 102 Noise dim;
#X obj 51 19 r \$0-preset-in;
#X obj 321 349 t a a, f 16;
#X obj 430 376 outlet;
#X obj 321 376 s \$0-preset-in;
#X obj 49 261 dispatch-send \$0;
#X obj 49 288 send, f 16;
#X text 55 222 Optimize;
#X msg 366 316 optimizepath \$1;
#X obj 147 222 tgl 20 0 empty \$0-optimizepath empty 0 -10 0 12 #fcfcfc #000000 #000000 0 1;
#X connect 0 0 25 0;
#X connect 1 0 9 0;
#X connect 2 0 5 0;
#X connect 3 0 4 0;
#X connect 4 0 22 0;
#X connect 5 0 22 0;
#X connect 6 0 7 0;
#X connect 7 0 22 0;
#X connect 8 0 12 0;
#X connect 9 0 22 0;
#X connect 10 0 11 0;
#X connect 11 0 22 0;
#X connect 12 0 22 0;
#X connect 13 0 14 0;
#X connect 14 0 22 0;
#X connect 21 0 0 0;
#X connect 22 0 24 0;
#X connect 22 1 23 0;
#X connect 25 0 26 0;
#X connect 25 1 26 1;
#X connect 28 0 22 0;
#X connect 29 0 28 0;
#X coords 0 -1 1 1 180 200 2 50 46;
#X restore 156 9 pd contourmap-control;
#X obj 87 118 v time;
#X obj 57 89 t b b;
#X msg 87 177 hue \$1;
#X obj 87 147 * 0.005;
#X obj 242 400 tgl 20 0 empty empty empty 0 -10 0 12 #fcfcfc #000000 #000000 0 1;
#X msg 242 421 smoothblank \$1;
#X msg 235 465 beziercontrol \$1;
#X floatatom 237 439 5 0 0 0 - - - 0;
#X floatatom 158 214 5 0 0 0 - - - 0;
#X msg 157 237 endpointdwell \$1;
#X floatatom 116 378 5 0 0 0 - - - 0;
#X obj 49 411 scale 1 1;
#X obj 57 329 symmetry;
#X floatatom 110 303 5 0 0 0 - - - 0;
#X obj 56 446 render4 lines 0 20 0;
#X connect 0 0 3 0;
#X connect 1 0 3 1;
#X connect 3 0 2 0;
#X connect 3 1 9 0;
#X connect 5 0 22 1;
#X connect 6 0 20 0;
#X connect 7 0 6 1;
#X connect 8 0 11 0;
#X connect 9 0 6 0;
#X connect 9 1 8 0;
#X connect 10 0 6 1;
#X connect 11 0 10 0;
#X connect 12 0 13 0;
#X connect 13 0 22 1;
#X connect 14 0 22 1;
#X connect 15 0 14 0;
#X connect 16 0 17 0;
#X connect 17 0 6 1;
#X connect 18 0 19 1;
#X connect 18 0 19 2;
#X connect 19 0 22 0;
#X connect 20 0 19 0;
#X connect 21 0 20 1;
#X connect 22 0 4 0;
#X restore 719 193 pd contourmap;
#X obj 122 186 s \$0-fps;
#X obj 109 260 tgl 15 0 empty empty empty 17 7 0 10 #fcfcfc #000000 #000000 0 1;
#X obj 21 260 colorcurves;
#X obj 37 222 eoscsend aorus 12000;
#X obj 833 222 tgl 15 0 empty empty empty 17 7 0 10 #fcfcfc #000000 #000000 0 1;
#N canvas 884 34 374 547 particlesys 0;
#X obj 10 10 inlet;
#X obj 56 10 inlet;
#X obj 10 58 outlet;
#X obj 10 34 eoshead;
#X obj 62 478 s to-composite;
#X obj 244 233 render-control;
#X obj 226 361 tgl 20 0 empty empty empty 0 -10 0 12 #fcfcfc #000000 #000000 0 1;
#X msg 227 379 smoothblank \$1;
#X msg 220 423 beziercontrol \$1;
#X floatatom 221 400 5 0 0 0 - - - 0;
#X obj 54 271 particlesys;
#X floatatom 155 2 5 0 0 0 - - - 0;
#X msg 154 25 maxparticles \$1;
#X floatatom 155 52 5 0 0 0 - - - 0;
#X msg 154 75 emitprobability \$1;
#X floatatom 155 102 5 0 0 0 - - - 0;
#X msg 154 125 lifespan \$1;
#X floatatom 155 152 5 0 0 0 - - - 0;
#X msg 154 175 gravity \$1;
#X obj 56 446 render points 4 32 2;
#X floatatom 155 202 5 0 0 0 - - - 0;
#X msg 154 225 velocity \$1;
#X connect 0 0 3 0;
#X connect 1 0 3 1;
#X connect 3 0 2 0;
#X connect 3 1 10 0;
#X connect 5 0 19 1;
#X connect 6 0 7 0;
#X connect 7 0 19 1;
#X connect 8 0 19 1;
#X connect 9 0 8 0;
#X connect 10 0 19 0;
#X connect 11 0 12 0;
#X connect 12 0 10 1;
#X connect 13 0 14 0;
#X connect 14 0 10 1;
#X connect 15 0 16 0;
#X connect 16 0 10 1;
#X connect 17 0 18 0;
#X connect 18 0 10 1;
#X connect 19 0 4 0;
#X connect 20 0 21 0;
#X connect 21 0 10 1;
#X restore 719 223 pd particlesys;
#X obj 836 258 tgl 15 0 empty empty empty 17 7 0 10 #fcfcfc #000000 #000000 0 1;
#N canvas 864 25 325 584 deathray 0;
#X obj 5 546 s to-composite;
#X floatatom 46 394 5 0 0 0 - - - 0;
#X obj 109 464 tgl 15 0 empty empty empty 17 7 0 10 #fcfcfc #000000 #000000 0 1;
#X obj 10 17 inlet;
#X obj 56 17 inlet;
#X obj 10 65 outlet;
#X obj 10 41 eoshead;
#X obj 6 464 colorcurves, f 13;
#X obj 6 419 scale 1 1, f 12;
#X obj 196 399 render-control;
#X obj 128 14 traildot-control;
#X floatatom 87 394 5 0 0 0 - - - 0;
#X obj 6 358 deathray;
#X msg 62 328 drawtrail \$1;
#X obj 60 305 tgl 20 0 empty empty empty 0 -10 0 12 #fcfcfc #000000 #000000 0 1;
#X obj 5 518 render lines 1 32 0;
#X floatatom 133 364 5 0 0 0 - - - 0;
#X connect 1 0 8 1;
#X connect 2 0 7 1;
#X connect 3 0 6 0;
#X connect 4 0 6 1;
#X connect 6 0 5 0;
#X connect 6 1 12 0;
#X connect 7 0 15 0;
#X connect 8 0 7 0;
#X connect 9 0 15 1;
#X connect 10 0 12 1;
#X connect 11 0 8 2;
#X connect 12 0 8 0;
#X connect 12 1 16 0;
#X connect 13 0 12 1;
#X connect 14 0 13 0;
#X connect 15 0 0 0;
#X restore 721 255 pd deathray;
#X obj 839 288 tgl 15 0 empty empty empty 17 7 0 10 #fcfcfc #000000 #000000 0 1;
#N canvas 982 66 467 565 lasercutter 0;
#X obj 10 10 inlet;
#X obj 56 10 inlet;
#X obj 10 58 outlet;
#X obj 10 34 eoshead;
#X msg 263 131 load Logo7_26.ild;
#X obj 92 191 ilda-file, f 17;
#X msg 260 103 load lmtestfromkarl.ild;
#X floatatom 130 218 5 0 0 0 - - - 0;
#X floatatom 170 218 5 0 0 0 - - - 0;
#X floatatom 210 218 5 0 0 0 - - - 0;
#X msg 261 159 load ildatestfromkarl.ild;
#X obj 92 129 bng 15 250 50 0 empty empty empty 17 7 0 10 #fcfcfc #000000 #000000;
#X obj 268 209 render-control;
#X obj 56 529 s to-composite;
#X obj 273 333 tgl 20 0 empty empty empty 0 -10 0 12 #fcfcfc #000000 #000000 0 1;
#X msg 297 334 smoothblank \$1;
#X msg 298 385 beziercontrol \$1;
#X floatatom 299 362 5 0 0 0 - - - 0;
#X obj 92 281 scale -1 -1;
#X obj 55 384 lasercutter;
#X floatatom 129 411 5 0 0 0 - - - 0;
#X obj 92 351 render3 lines 0 32 0;
#X obj 55 492 render lines 1 16 0;
#X obj 246 12 ilda-library-control;
#X obj 90 438 s next-frame;
#X obj 90 100 r next-frame;
#X floatatom 249 402 5 0 0 0 - - - 0;
#X msg 248 425 maxparticles \$1;
#X connect 0 0 3 0;
#X connect 1 0 3 1;
#X connect 3 0 2 0;
#X connect 3 1 19 0;
#X connect 4 0 5 1;
#X connect 5 0 18 0;
#X connect 5 1 7 0;
#X connect 5 2 8 0;
#X connect 5 3 9 0;
#X connect 6 0 5 1;
#X connect 10 0 5 1;
#X connect 11 0 5 0;
#X connect 12 0 21 1;
#X connect 14 0 15 0;
#X connect 15 0 21 1;
#X connect 16 0 21 1;
#X connect 17 0 16 0;
#X connect 18 0 21 0;
#X connect 19 0 22 0;
#X connect 19 1 24 0;
#X connect 19 2 20 0;
#X connect 21 0 19 1;
#X connect 22 0 13 0;
#X connect 23 0 5 1;
#X connect 25 0 11 0;
#X connect 26 0 27 0;
#X connect 27 0 19 2;
#X restore 722 285 pd lasercutter;
#X obj 835 313 tgl 15 0 empty empty empty 17 7 0 10 #fcfcfc #000000 #000000 0 1;
#N canvas 663 541 387 918 bezierloop 1;
#X obj 10 10 inlet;
#X obj 56 10 inlet;
#X obj 10 58 outlet;
#X obj 10 34 eoshead;
#X obj 27 890 s to-composite;
#X obj 55 459 bezierloop;
#X obj 188 624 render-control;
#X obj 157 5 bezierloop-control;
#X obj 40 624 noisemod 0 0.2 0 0.6, f 11;
#X obj 159 447 noisemod-control;
#X obj 44 706 symmetry;
#X floatatom 97 680 5 0 0 0 - - - 0;
#X obj 37 740 render4 lines 0 64 0;
#X obj 154 777 convexhull;
#X obj 79 540 t l l;
#X obj 156 807 ttlcolor white;
#X obj 154 839 render4 lines 10 64 0;
#X connect 0 0 3 0;
#X connect 1 0 3 1;
#X connect 3 0 2 0;
#X connect 3 1 5 0;
#X connect 5 0 14 0;
#X connect 6 0 12 1;
#X connect 7 0 5 1;
#X connect 8 0 10 0;
#X connect 9 0 8 1;
#X connect 10 0 12 0;
#X connect 11 0 10 1;
#X connect 12 0 4 0;
#X connect 13 0 15 0;
#X connect 14 0 8 0;
#X connect 14 1 13 0;
#X connect 15 0 16 0;
#X connect 16 0 4 0;
#X restore 722 314 pd bezierloop;
#X obj 32 332 r to-helios;
#N canvas 477 847 529 354 network 0;
#X obj 32 39 eoscrecv 12000, f 22;
#X obj 183 81 route touch, f 13;
#X text 31 196 SENDING;
#X obj 271 141 print RECEIVE touch;
#X text 30 12 RECEIVING;
#X obj 271 111 print RECEIVE (unmapped);
#X obj 183 116 list;
#X obj 183 142 oscid-send;
#X obj 32 308 netsend -u -b;
#X msg 45 280 connect 192.168.1.103 12001;
#X obj 44 253 loadbang;
#X obj 32 225 r to-touch;
#X text 40 62 frame data;
#X text 195 60 touch control messages;
#X obj 31 95 s net-frame;
#X connect 0 0 14 0;
#X connect 0 0 3 0;
#X connect 0 1 1 0;
#X connect 1 0 6 0;
#X connect 1 1 5 0;
#X connect 6 0 7 0;
#X connect 9 0 8 0;
#X connect 10 0 9 0;
#X connect 11 0 8 0;
#X restore 482 16 pd network;
#X obj 343 42 helios-control2;
#N canvas 769 585 448 401 streaming 0;
#X obj 10 10 inlet;
#X obj 56 10 inlet;
#X obj 10 58 outlet;
#X obj 10 34 eoshead;
#X obj 56 333 s to-composite;
#X obj 198 98 render-control;
#X msg 204 242 beziercontrol \$1;
#X floatatom 205 219 5 0 0 0 - - - 0;
#X obj 205 263 tgl 20 0 empty empty empty 0 -10 0 12 #fcfcfc #000000 #000000 0 1;
#X msg 206 281 smoothblank \$1;
#X obj 56 296 render3 lines 1 32 0;
#X obj 353 215 loadbang;
#X msg 353 243 bypass 1;
#X obj 56 103 list;
#X obj 81 70 r net-frame;
#X connect 0 0 3 0;
#X connect 1 0 3 1;
#X connect 3 0 2 0;
#X connect 3 1 13 0;
#X connect 5 0 10 1;
#X connect 6 0 10 1;
#X connect 7 0 6 0;
#X connect 8 0 9 0;
#X connect 9 0 10 1;
#X connect 10 0 4 0;
#X connect 11 0 12 0;
#X connect 12 0 10 1;
#X connect 13 0 10 0;
#X connect 14 0 13 1;
#X restore 720 161 pd streaming;
#N canvas 943 697 317 336 center-point 0;
#X obj 11 6 inlet;
#X obj 57 6 inlet;
#X obj 11 54 outlet;
#X obj 11 30 eoshead;
#X obj 57 166 s to-composite;
#X obj 57 92 point 0 0;
#X floatatom 139 61 5 0 0 0 - - - 0;
#X obj 57 126 ttlcolor black;
#X connect 0 0 3 0;
#X connect 1 0 3 1;
#X connect 3 0 2 0;
#X connect 3 1 5 0;
#X connect 5 0 7 0;
#X connect 6 0 5 2;
#X connect 7 0 4 0;
#X restore 405 280 pd center-point;
#N canvas 914 612 534 491 clock-control 0;
#X obj 2 3 tgl 32 0 empty empty empty 17 7 0 10 #fcfcfc #000000 #000000 0 1;
#X floatatom 130 38 5 0 0 0 - - - 0;
#N canvas 1007 701 332 373 clock 0;
#X obj 27 148 metro 50;
#X msg 83 87 1000 \$1;
#X obj 83 114 /;
#X obj 164 20 loadbang;
#X obj 28 40 inlet;
#X obj 85 40 inlet;
#X text 82 14 FPS;
#X obj 27 319 outlet;
#X text 25 14 start;
#X obj 167 84 v fps;
#X obj 58 272 v time;
#X obj 59 205 float;
#X obj 107 205 + 1;
#X obj 27 177 t b b;
#X obj 58 240 expr $f1 / fps;
#X msg 171 139 0;
#X msg 163 45 90;
#X connect 0 0 13 0;
#X connect 1 0 2 0;
#X connect 2 0 0 1;
#X connect 3 0 16 0;
#X connect 4 0 0 0;
#X connect 5 0 1 0;
#X connect 5 0 9 0;
#X connect 11 0 12 0;
#X connect 11 0 14 0;
#X connect 12 0 11 1;
#X connect 13 0 7 0;
#X connect 13 1 11 0;
#X connect 14 0 10 0;
#X connect 15 0 11 1;
#X restore 164 355 pd clock;
#X obj 38 2 fpstimer;
#X obj 232 10 r \$0-fps;
#X obj 164 390 outlet;
#X obj 195 8 t f;
#X text 76 38 Target;
#X obj 330 11 loadbang;
#X msg 329 36 90;
#X obj 330 76 s eosctl/targetfps;
#X obj 15 180 t b f b, f 29;
#X obj 108 218 t f f;
#X floatatom 15 145 5 0 0 0 - - - 0;
#X obj 12 305 s to-touch;
#X obj 15 114 r eosctl/clockenable;
#X obj 13 263 sync-touch eosctl/clockenable;
#X obj 235 177 t b f b, f 29;
#X obj 328 215 t f f;
#X floatatom 235 142 5 0 0 0 - - - 0;
#X obj 232 302 s to-touch;
#X obj 235 111 r eosctl/targetfps;
#X obj 233 260 sync-touch eosctl/targetfps;
#X connect 0 0 6 0;
#X connect 0 0 12 0;
#X connect 1 0 18 0;
#X connect 2 0 5 0;
#X connect 4 0 3 0;
#X connect 6 0 3 1;
#X connect 8 0 9 0;
#X connect 9 0 10 0;
#X connect 11 0 16 0;
#X connect 11 1 0 0;
#X connect 11 2 16 2;
#X connect 12 0 16 1;
#X connect 12 1 2 0;
#X connect 13 0 11 0;
#X connect 15 0 13 0;
#X connect 16 0 14 0;
#X connect 17 0 22 0;
#X connect 17 1 1 0;
#X connect 17 2 22 2;
#X connect 18 0 22 1;
#X connect 18 1 2 1;
#X connect 19 0 17 0;
#X connect 21 0 19 0;
#X connect 22 0 20 0;
#X coords 0 -1 1 1 170 60 2 0 0;
#X restore 20 15 pd clock-control;
#N canvas 956 913 399 343 xypad 0;
#X obj 10 17 inlet;
#X obj 56 17 inlet;
#X obj 10 65 outlet;
#X obj 10 41 eoshead;
#X obj 154 67 r xypad1/p1;
#X obj 58 257 s to-composite;
#X obj 58 189 render points 16 32 16;
#X obj 59 110 list 0 0 0 0 0;
#X obj 58 158 ttlcolor magenta;
#X connect 0 0 3 0;
#X connect 1 0 3 1;
#X connect 3 0 2 0;
#X connect 3 1 7 0;
#X connect 4 0 7 1;
#X connect 6 0 5 0;
#X connect 7 0 8 0;
#X connect 8 0 6 0;
#X restore 722 344 pd xypad;
#X obj 833 345 tgl 15 0 empty empty empty 17 7 0 10 #fcfcfc #000000 #000000 0 1;
#X obj 833 375 tgl 15 0 empty empty empty 17 7 0 10 #fcfcfc #000000 #000000 0 1;
#N canvas 419 932 436 404 convex-hull 1;
#X obj 10 17 inlet;
#X obj 56 17 inlet;
#X obj 10 65 outlet;
#X obj 10 41 eoshead;
#X obj 59 338 s to-composite;
#X obj 158 67 r uibase/points;
#X obj 59 270 render points 16 32 16;
#X obj 244 195 convexhull;
#X obj 60 138 t l l, f 27;
#X obj 242 269 render lines 16 32 0;
#X obj 59 239 ttlcolor green;
#X obj 240 234 ttlcolor red;
#X obj 59 110 list 0 0 0 0 0;
#X connect 0 0 3 0;
#X connect 1 0 3 1;
#X connect 3 0 2 0;
#X connect 3 1 12 0;
#X connect 5 0 12 1;
#X connect 6 0 4 0;
#X connect 7 0 11 0;
#X connect 8 0 10 0;
#X connect 8 1 7 0;
#X connect 9 0 4 0;
#X connect 10 0 6 0;
#X connect 11 0 9 0;
#X connect 12 0 8 0;
#X restore 722 374 pd convex-hull;
#X obj 1003 130 tgl 15 0 empty empty empty 17 7 0 10 #fcfcfc #000000 #000000 0 1;
#N canvas 611 568 379 512 gradients 0;
#X obj 11 6 inlet;
#X obj 57 6 inlet;
#X obj 11 54 outlet;
#X obj 11 30 eoshead;
#X obj 55 472 s to-composite;
#X floatatom 155 293 5 0 0 0 - - - 0;
#X floatatom 170 388 5 0 0 0 - - - 0;
#X obj 105 70 r colorhsv1/rgb;
#X obj 132 111 unpack f f f, f 14;
#X obj 156 171 r colorhsv2/rgb;
#X floatatom 132 136 5 0 0 0 - - - 0;
#X floatatom 179 136 5 0 0 0 - - - 0;
#X floatatom 227 135 5 0 0 0 - - - 0;
#X obj 181 211 unpack f f f, f 14;
#X floatatom 181 236 5 0 0 0 - - - 0;
#X floatatom 228 236 5 0 0 0 - - - 0;
#X floatatom 276 235 5 0 0 0 - - - 0;
#X obj 237 270 render-control;
#X obj 232 430 eoscsend aorus 12000;
#X obj 146 425 tgl 15 0 empty empty empty 17 7 0 10 #fcfcfc #000000 #000000 0 1;
#X obj 58 425 colorcurves;
#X obj 53 257 gradients2 128, f 15;
#X obj 53 362 render4 lines 0 64;
#X connect 0 0 3 0;
#X connect 1 0 3 1;
#X connect 3 0 2 0;
#X connect 3 1 21 0;
#X connect 7 0 8 0;
#X connect 7 0 21 1;
#X connect 8 0 10 0;
#X connect 8 1 11 0;
#X connect 8 2 12 0;
#X connect 9 0 13 0;
#X connect 9 0 21 2;
#X connect 13 0 14 0;
#X connect 13 1 15 0;
#X connect 13 2 16 0;
#X connect 17 0 22 1;
#X connect 19 0 20 1;
#X connect 20 0 4 0;
#X connect 21 0 22 0;
#X connect 21 1 5 0;
#X connect 22 0 20 0;
#X connect 22 1 6 0;
#X restore 881 130 pd gradients;
#X obj 20 93 t b b b b b b, f 123;
#X obj 1003 164 tgl 15 0 empty empty empty 17 7 0 10 #fcfcfc #000000 #000000 0 1;
#N canvas 0 541 484 510 dwelltest 1;
#X obj 11 6 inlet;
#X obj 57 6 inlet;
#X obj 11 54 outlet;
#X obj 11 30 eoshead;
#X obj 70 462 s to-composite;
#X floatatom 214 273 5 0 0 0 - - - 0;
#X obj 292 61 render-control;
#X floatatom 162 56 5 0 0 0 - - - 0;
#X floatatom 172 117 5 0 0 0 - - - 0;
#X floatatom 118 55 5 0 0 0 - - - 0;
#X obj 73 80 polygon 5 512 1;
#X floatatom 372 273 5 0 0 0 - - - 0;
#X obj 70 239 render4 lines 10 64 0;
#X obj 235 238 render lines 10 64 0;
#N canvas 959 830 450 300 abtest 0;
#X obj 58 59 inlet;
#X obj 151 60 inlet;
#X obj 251 60 inlet;
#X obj 55 191 spigot;
#X obj 155 191 spigot;
#X msg 107 104 1 \$1;
#X obj 79 245 outlet;
#X obj 107 135 -;
#X obj 211 166 tgl 20 0 empty empty empty 0 -10 0 12 #fcfcfc #000000 #000000 0 1;
#X obj 108 168 tgl 20 0 empty empty empty 0 -10 0 12 #fcfcfc #000000 #000000 0 1;
#X obj 159 245 outlet;
#X obj 229 245 outlet;
#X connect 0 0 3 0;
#X connect 1 0 4 0;
#X connect 2 0 5 0;
#X connect 2 0 8 0;
#X connect 3 0 6 0;
#X connect 4 0 6 0;
#X connect 5 0 7 0;
#X connect 7 0 9 0;
#X connect 8 0 4 1;
#X connect 8 0 11 0;
#X connect 9 0 3 1;
#X connect 9 0 10 0;
#X restore 70 422 pd abtest;
#X f 47;
#X obj 396 392 tgl 20 0 empty empty empty 0 -10 0 12 #fcfcfc #000000 #000000 0 1;
#X obj 75 173 t l l, f 23;
#X obj 396 452 tgl 20 0 empty empty empty 0 -10 0 12 #fcfcfc #000000 #000000 0 1;
#X obj 233 452 tgl 20 0 empty empty empty 0 -10 0 12 #fcfcfc #000000 #000000 0 1;
#X obj 389 315 loadbang;
#X msg 395 352 0;
#X connect 0 0 3 0;
#X connect 1 0 3 1;
#X connect 3 0 2 0;
#X connect 3 1 10 0;
#X connect 6 0 12 1;
#X connect 6 0 13 1;
#X connect 7 0 10 2;
#X connect 9 0 10 1;
#X connect 10 0 16 0;
#X connect 10 1 8 0;
#X connect 12 0 14 0;
#X connect 12 1 5 0;
#X connect 13 0 14 1;
#X connect 13 1 11 0;
#X connect 14 0 4 0;
#X connect 14 1 18 0;
#X connect 14 2 17 0;
#X connect 15 0 14 2;
#X connect 16 0 12 0;
#X connect 16 1 13 0;
#X connect 19 0 20 0;
#X connect 20 0 15 0;
#X restore 881 164 pd dwelltest;
#X connect 1 0 2 0;
#X connect 5 0 64 1;
#X connect 6 0 17 1;
#X connect 7 0 14 1;
#X connect 8 0 14 0;
#X connect 9 0 8 1;
#X connect 11 0 12 0;
#X connect 12 0 10 0;
#X connect 13 0 30 1;
#X connect 14 0 30 0;
#X connect 15 0 49 0;
#X connect 16 0 29 1;
#X connect 17 0 8 0;
#X connect 18 0 28 1;
#X connect 19 0 20 1;
#X connect 20 0 22 0;
#X connect 21 0 22 1;
#X connect 22 0 31 0;
#X connect 23 0 31 1;
#X connect 24 0 25 1;
#X connect 26 0 40 0;
#X connect 27 0 26 1;
#X connect 28 0 20 0;
#X connect 29 0 28 0;
#X connect 30 0 29 0;
#X connect 31 0 25 0;
#X connect 32 0 37 1;
#X connect 33 0 38 1;
#X connect 34 0 86 0;
#X connect 35 0 34 1;
#X connect 36 0 86 1;
#X connect 37 0 38 0;
#X connect 38 0 34 0;
#X connect 39 0 40 1;
#X connect 40 0 37 0;
#X connect 41 0 1 0;
#X connect 42 0 47 1;
#X connect 43 0 44 1;
#X connect 44 0 45 0;
#X connect 46 0 45 1;
#X connect 47 0 44 0;
#X connect 48 0 49 1;
#X connect 49 0 51 0;
#X connect 50 0 51 1;
#X connect 51 0 55 0;
#X connect 52 0 55 1;
#X connect 53 0 57 0;
#X connect 54 0 53 1;
#X connect 55 0 53 0;
#X connect 56 0 57 1;
#X connect 57 0 58 0;
#X connect 58 0 60 0;
#X connect 59 0 58 1;
#X connect 60 0 62 0;
#X connect 61 0 60 1;
#X connect 63 0 62 1;
#X connect 64 0 72 0;
#X connect 64 0 73 0;
#X connect 64 1 70 0;
#X connect 65 0 66 1;
#X connect 66 0 85 0;
#X connect 67 0 85 1;
#X connect 68 0 69 1;
#X connect 69 0 75 0;
#X connect 71 0 72 1;
#X connect 72 0 41 0;
#X connect 74 0 75 1;
#X connect 75 0 77 0;
#X connect 76 0 77 1;
#X connect 77 0 79 0;
#X connect 78 0 79 1;
#X connect 79 0 81 0;
#X connect 80 0 81 1;
#X connect 81 0 88 0;
#X connect 82 0 1 0;
#X connect 85 0 69 0;
#X connect 86 0 47 0;
#X connect 87 0 94 0;
#X connect 88 0 91 0;
#X connect 89 0 88 1;
#X connect 90 0 91 1;
#X connect 92 0 93 1;
#X connect 93 0 96 0;
#X connect 94 0 64 0;
#X connect 94 1 17 0;
#X connect 94 2 26 0;
#X connect 94 3 15 0;
#X connect 94 4 66 0;
#X connect 94 5 93 0;
#X connect 95 0 96 1;
