#N canvas 970 54 473 404 12;
#X obj 19 8 tgl 24 0 empty empty empty 17 7 0 10 -262144 -1 -1 1 1
;
#X floatatom 72 13 5 0 0 0 - - -;
#X text 113 12 FPS;
#X obj 171 13 helios-control;
#X obj 32 220 r helios-control;
#X obj 19 250 helios;
#X obj 19 281 helios-status;
#N canvas 0 54 370 266 debug-array 0;
#X obj 33 154 array set heliosdata;
#X obj 80 114 array size heliosdata;
#X obj 78 87 list length;
#X obj 31 210 array define -yrange -2048 2048 heliosdata;
#X obj 32 25 inlet;
#X obj 32 57 t l l, f 7;
#X connect 2 0 1 0;
#X connect 4 0 5 0;
#X connect 5 0 0 0;
#X connect 5 1 2 0;
#X restore 171 37 pd debug-array;
#N canvas 302 435 402 447 reload 1;
#X obj 42 13 inlet;
#X obj 100 396 pdlua;
#X msg 93 13 load zoombots.pd_lua;
#X msg 103 43 load symmetry.pd_lua;
#X msg 111 73 load polygon.pd_lua;
#X obj 43 47 t b;
#X msg 121 102 load composite.pd_lua;
#X msg 141 162 load translate.pd_lua;
#X msg 151 192 load render.pd_lua;
#X msg 161 222 load xygizmo.pd_lua;
#X msg 171 252 load color.pd_lua;
#X msg 131 132 load scale.pd_lua;
#X msg 181 282 load xyrgb-file.pd_lua;
#X msg 191 312 load normalize.pd_lua;
#X msg 201 342 load point.pd_lua;
#X msg 211 372 load colorscan.pd_lua;
#X connect 0 0 5 0;
#X connect 2 0 1 0;
#X connect 3 0 1 0;
#X connect 4 0 1 0;
#X connect 5 0 2 0;
#X connect 5 0 3 0;
#X connect 5 0 4 0;
#X connect 5 0 6 0;
#X connect 5 0 8 0;
#X connect 5 0 7 0;
#X connect 5 0 9 0;
#X connect 5 0 10 0;
#X connect 5 0 12 0;
#X connect 5 0 13 0;
#X connect 5 0 11 0;
#X connect 5 0 14 0;
#X connect 5 0 15 0;
#X connect 6 0 1 0;
#X connect 7 0 1 0;
#X connect 8 0 1 0;
#X connect 9 0 1 0;
#X connect 10 0 1 0;
#X connect 11 0 1 0;
#X connect 12 0 1 0;
#X connect 13 0 1 0;
#X connect 14 0 1 0;
#X connect 15 0 1 0;
#X restore 172 60 pd reload;
#X obj 77 139 r to-composite;
#N canvas 400 443 332 373 clock 0;
#X obj 27 148 metro 50;
#X msg 83 87 1000 \$1;
#X obj 83 114 /;
#X obj 164 20 loadbang;
#X obj 28 40 inlet;
#X obj 85 40 inlet;
#X text 82 14 FPS;
#X obj 27 319 outlet;
#X text 25 14 start;
#X obj 167 84 v fps;
#X msg 163 45 30;
#X obj 58 272 v time;
#X obj 59 205 float;
#X obj 107 205 + 1;
#X obj 27 177 t b b;
#X obj 58 240 expr $f1 / fps;
#X msg 171 139 0;
#X connect 0 0 14 0;
#X connect 1 0 2 0;
#X connect 2 0 0 1;
#X connect 3 0 10 0;
#X connect 4 0 0 0;
#X connect 5 0 1 0;
#X connect 5 0 9 0;
#X connect 10 0 1 0;
#X connect 10 0 9 0;
#X connect 12 0 13 0;
#X connect 12 0 15 0;
#X connect 13 0 12 1;
#X connect 14 0 7 0;
#X connect 14 1 12 0;
#X connect 15 0 11 0;
#X connect 16 0 12 1;
#X restore 19 40 pd clock;
#X obj 332 143 tgl 15 0 empty empty empty 17 7 0 10 -262144 -1 -1 1
1;
#X obj 335 199 tgl 15 0 empty empty empty 17 7 0 10 -262144 -1 -1 1
1;
#N canvas 621 80 363 468 bots 1;
#X obj 91 151 zoombots;
#X floatatom 103 98 5 0 0 0 - - -;
#X msg 103 122 numbots \$1;
#X obj 101 246 symmetry;
#X floatatom 154 220 5 0 0 0 - - -;
#X obj 100 432 s to-composite;
#X floatatom 154 275 5 0 0 0 - - -;
#X floatatom 144 179 5 0 0 0 - - -;
#X obj 31 11 inlet;
#X obj 87 63 spigot;
#X obj 32 36 t b b, f 7;
#X obj 130 9 inlet;
#X obj 33 63 outlet;
#X obj 89 309 render points 8 32 8 0;
#X obj 210 100 render-control;
#X obj 151 359 color cyan green;
#X obj 79 199 color blue;
#X connect 0 0 16 0;
#X connect 0 1 7 0;
#X connect 1 0 2 0;
#X connect 2 0 0 0;
#X connect 3 0 13 0;
#X connect 3 1 6 0;
#X connect 4 0 3 1;
#X connect 8 0 10 0;
#X connect 9 0 0 0;
#X connect 10 0 12 0;
#X connect 10 1 9 0;
#X connect 11 0 9 1;
#X connect 13 0 5 0;
#X connect 14 0 13 1;
#X connect 16 0 3 0;
#X restore 209 171 pd bots;
#X obj 334 172 tgl 15 0 empty empty empty 17 7 0 10 -262144 -1 -1 1
1;
#X obj 301 66 s to-composite;
#X floatatom 300 14 5 0 0 0 - - -;
#X msg 300 38 preblank \$1;
#X floatatom 78 195 5 0 0 0 - - -;
#X obj 337 229 tgl 15 0 empty empty empty 17 7 0 10 -262144 -1 -1 0
1;
#N canvas 728 505 661 382 xy-gizmo 1;
#X obj 85 120 xygizmo;
#X obj 84 341 s to-composite;
#N canvas 332 217 784 550 wave-control 0;
#X obj 637 363 v TWOPI;
#X msg 632 273 3.14159;
#X obj 634 314 * 2;
#X obj 108 260 tgl 15 0 empty empty empty 17 7 0 10 -262144 -1 -1 0
1;
#X obj 108 330 tgl 15 0 empty empty empty 17 7 0 10 -262144 -1 -1 0
1;
#X obj 108 164 spigot;
#X obj 230 167 spigot;
#X obj 114 406 spigot;
#X obj 233 406 spigot;
#X obj 630 238 loadbang;
#X obj 129 207 numvar npoints 600;
#X obj 128 246 numvar x1freq 1;
#X obj 268 246 numvar x1amp 0.5;
#X obj 408 246 numvar x1phase 0;
#X obj 128 275 numvar y1freq 1;
#X obj 268 275 numvar y1amp 0.5;
#X obj 408 275 numvar y1phase 0.25;
#X obj 128 314 numvar x2freq 1;
#X obj 268 314 numvar x2amp 0.5;
#X obj 408 314 numvar x2phase 0;
#X obj 128 343 numvar y2freq 1;
#X obj 268 343 numvar y2amp 0.5;
#X obj 408 343 numvar y2phase 0.25;
#X obj 408 476 outlet;
#X obj 414 437 r \$0-out;
#X obj 409 390 s \$0-out;
#X obj 406 207 s \$0-out;
#X connect 1 0 2 0;
#X connect 2 0 0 0;
#X connect 3 0 5 1;
#X connect 3 0 6 1;
#X connect 4 0 8 1;
#X connect 4 0 7 1;
#X connect 5 0 14 0;
#X connect 6 0 15 0;
#X connect 7 0 20 0;
#X connect 8 0 21 0;
#X connect 9 0 1 0;
#X connect 10 1 26 0;
#X connect 11 0 5 0;
#X connect 11 1 26 0;
#X connect 12 0 6 0;
#X connect 12 1 26 0;
#X connect 13 1 26 0;
#X connect 14 1 26 0;
#X connect 15 1 26 0;
#X connect 16 1 26 0;
#X connect 17 0 7 0;
#X connect 17 1 25 0;
#X connect 18 0 8 0;
#X connect 18 1 25 0;
#X connect 19 1 25 0;
#X connect 20 1 25 0;
#X connect 21 1 25 0;
#X connect 22 1 25 0;
#X connect 24 0 23 0;
#X coords 0 -1 1 1 450 170 2 100 200;
#X restore 204 11 pd wave-control;
#X obj 31 11 inlet;
#X obj 85 65 spigot;
#X obj 32 38 t b b, f 7;
#X obj 128 11 inlet;
#X obj 32 65 outlet;
#X obj 86 284 translate, f 17;
#N canvas 803 238 450 300 lfo-xy 0;
#X obj 40 24 inlet;
#X obj 42 69 t b b;
#X obj 31 230 outlet;
#X obj 81 230 outlet;
#X obj 40 113 expr sin(time*3.14159 * 0.2021) * 0, f 21;
#X obj 74 171 expr sin(time*3.14159 * 0.12) * 0, f 21;
#X connect 0 0 1 0;
#X connect 1 0 4 0;
#X connect 1 1 5 0;
#X connect 4 0 2 0;
#X connect 5 0 3 0;
#X restore 144 254 pd lfo-xy;
#X obj 86 226 t l b, f 8;
#X obj 85 311 scale 2047 2047 255 255 255;
#X obj 90 187 scale 0.5 0.5;
#X floatatom 168 161 5 0 0 0 - - -;
#X obj 84 150 color green;
#X connect 0 0 14 0;
#X connect 2 0 0 1;
#X connect 3 0 5 0;
#X connect 4 0 0 0;
#X connect 5 0 7 0;
#X connect 5 1 4 0;
#X connect 6 0 4 1;
#X connect 8 0 11 0;
#X connect 9 0 8 1;
#X connect 9 1 8 2;
#X connect 10 0 8 0;
#X connect 10 1 9 0;
#X connect 11 0 1 0;
#X connect 12 0 10 0;
#X connect 13 0 12 1;
#X connect 13 0 12 2;
#X connect 14 0 12 0;
#X restore 209 199 pd xy-gizmo;
#N canvas 36 465 924 387 modulate 0;
#X obj 150 335 s helios-control;
#X msg 150 283 rotation \$1;
#X obj 42 13 inlet;
#X obj 152 196 v time;
#X obj 152 255 * 1;
#X floatatom 175 229 5 0 0 0 - - -;
#X obj 157 113 spigot;
#X obj 194 80 tgl 15 0 empty empty empty 17 7 0 10 -262144 -1 -1 0
1;
#X obj 384 106 spigot;
#X obj 416 77 tgl 15 0 empty empty empty 17 7 0 10 -262144 -1 -1 0
1;
#X msg 373 285 linearityx \$1;
#X obj 374 252 * 1;
#X floatatom 402 228 5 0 0 0 - - -;
#X floatatom 650 152 5 0 0 0 - - -;
#X obj 628 108 spigot;
#X obj 660 79 tgl 15 0 empty empty empty 17 7 0 10 -262144 -1 -1 0
1;
#X obj 623 254 * 1;
#X floatatom 653 231 5 0 0 0 - - -;
#X msg 624 288 bowy \$1;
#X obj 35 324 outlet;
#X obj 40 45 t b b b b b b b, f 101;
#X obj 630 186 expr sin(time * 3.14159 * $f1);
#X floatatom 401 157 5 0 0 0 - - -;
#X obj 381 191 expr sin(time * 3.14159 * $f1);
#X connect 1 0 0 0;
#X connect 2 0 20 0;
#X connect 3 0 4 0;
#X connect 4 0 1 0;
#X connect 5 0 4 1;
#X connect 6 0 3 0;
#X connect 7 0 6 1;
#X connect 8 0 23 0;
#X connect 9 0 8 1;
#X connect 10 0 0 0;
#X connect 11 0 10 0;
#X connect 12 0 11 1;
#X connect 13 0 21 0;
#X connect 14 0 21 0;
#X connect 15 0 14 1;
#X connect 16 0 18 0;
#X connect 17 0 16 1;
#X connect 18 0 0 0;
#X connect 20 0 19 0;
#X connect 20 1 6 0;
#X connect 20 3 8 0;
#X connect 20 5 14 0;
#X connect 21 0 16 0;
#X connect 22 0 23 0;
#X connect 23 0 11 0;
#X restore 362 147 pd modulate;
#X obj 338 256 tgl 15 0 empty empty empty 17 7 0 10 -262144 -1 -1 0
1;
#N canvas 48 90 429 220 filetest 0;
#X obj 31 11 inlet;
#X obj 84 65 spigot;
#X obj 32 38 t b b, f 7;
#X obj 127 11 inlet;
#X obj 84 106 xyrgb-file spinning-cube;
#X obj 85 165 s to-composite;
#X floatatom 249 133 5 0 0 0 - - -;
#X floatatom 201 163 5 0 0 0 - - -;
#X obj 32 65 outlet;
#X obj 230 34 xyrgb-file square_d0s0;
#X obj 220 66 print;
#X obj 214 10 bng 15 250 50 0 empty empty empty 17 7 0 10 -262144 -1
-1;
#X obj 85 136 render lines 2 32;
#X connect 0 0 2 0;
#X connect 1 0 4 0;
#X connect 2 0 8 0;
#X connect 2 1 1 0;
#X connect 3 0 1 1;
#X connect 4 0 12 0;
#X connect 4 1 6 0;
#X connect 9 0 10 0;
#X connect 11 0 9 0;
#X connect 12 0 5 0;
#X connect 12 1 7 0;
#X restore 209 228 pd filetest;
#N canvas 596 54 404 492 wander 0;
#X obj 31 11 inlet;
#X floatatom 123 102 5 0 0 0 - - -;
#X floatatom 167 102 5 0 0 0 - - -;
#X obj 79 128 polygon 3 512;
#X obj 79 449 s to-composite;
#X obj 79 344 translate, f 17;
#X obj 79 415 render lines;
#X obj 79 259 rotate;
#X obj 80 190 t l b;
#X obj 79 286 t l b, f 8;
#N canvas 0 54 450 300 lfo-xy 0;
#X obj 40 24 inlet;
#X obj 42 69 t b b;
#X obj 31 230 outlet;
#X obj 81 230 outlet;
#X obj 40 113 expr sin(time*3.14159 * 0.2021) * 2000, f 21;
#X obj 74 171 expr sin(time*3.14159 * 0.12) * 2000, f 21;
#X connect 0 0 1 0;
#X connect 1 0 4 0;
#X connect 1 1 5 0;
#X connect 4 0 2 0;
#X connect 5 0 3 0;
#X restore 137 314 pd lfo-xy;
#X obj 117 215 expr sin(time*3.14159 * 0.1) * 720, f 21;
#X obj 246 275 render-control;
#X obj 84 65 spigot;
#X obj 32 38 t b b, f 7;
#X obj 30 65 outlet;
#X obj 127 11 inlet;
#X floatatom 291 146 5 0 0 0 - - -;
#X floatatom 208 443 5 0 0 0 - - -;
#X obj 79 160 color cyan;
#X connect 0 0 14 0;
#X connect 1 0 3 1;
#X connect 2 0 3 2;
#X connect 3 0 19 0;
#X connect 3 1 17 0;
#X connect 5 0 6 0;
#X connect 6 0 4 0;
#X connect 6 1 18 0;
#X connect 7 0 9 0;
#X connect 8 0 7 0;
#X connect 8 1 11 0;
#X connect 9 0 5 0;
#X connect 9 1 10 0;
#X connect 10 0 5 1;
#X connect 10 1 5 2;
#X connect 11 0 7 1;
#X connect 12 0 6 1;
#X connect 13 0 3 0;
#X connect 14 0 15 0;
#X connect 14 1 13 0;
#X connect 16 0 13 1;
#X connect 19 0 8 0;
#X restore 209 143 pd wander;
#N canvas 1 54 693 509 polytest 0;
#X obj 31 11 inlet;
#X obj 84 65 spigot;
#X obj 32 38 t b b;
#X obj 127 11 inlet;
#X obj 32 66 outlet;
#X obj 85 99 t b b, f 45;
#X obj 400 182 color blue;
#X obj 405 403 render lines;
#X obj 96 437 s to-composite;
#X obj 408 436 s to-composite;
#X obj 88 151 polygon 3 512;
#X obj 400 150 polygon 4 512;
#X obj 87 300 translate -1500 0;
#X obj 402 296 translate 1500 0;
#X obj 399 267 rotate;
#X obj 400 215 t l b;
#X obj 88 272 rotate;
#X obj 89 218 t l b;
#X obj 222 287 render-control;
#X obj 88 183 color blue;
#X obj 126 243 expr time * 50;
#X obj 437 240 expr time * -50;
#X obj 554 272 render-control;
#X obj 99 407 render lines 8 32;
#X connect 0 0 2 0;
#X connect 1 0 5 0;
#X connect 2 0 4 0;
#X connect 2 1 1 0;
#X connect 3 0 1 1;
#X connect 5 0 10 0;
#X connect 5 1 11 0;
#X connect 6 0 15 0;
#X connect 7 0 9 0;
#X connect 10 0 19 0;
#X connect 11 0 6 0;
#X connect 12 0 23 0;
#X connect 13 0 7 0;
#X connect 14 0 13 0;
#X connect 15 0 14 0;
#X connect 15 1 21 0;
#X connect 16 0 12 0;
#X connect 17 0 16 0;
#X connect 17 1 20 0;
#X connect 18 0 23 1;
#X connect 19 0 17 0;
#X connect 20 0 16 1;
#X connect 21 0 14 1;
#X connect 22 0 7 1;
#X connect 23 0 8 0;
#X restore 209 253 pd polytest;
#N canvas 485 54 482 302 rendertest 1;
#X obj 31 11 inlet;
#X obj 92 66 spigot;
#X obj 32 38 t b b, f 9;
#X obj 131 11 inlet;
#X obj 32 66 outlet;
#X floatatom 216 237 5 0 0 0 - - -;
#X obj 97 199 render points 0 0;
#X obj 296 21 render-control;
#X msg 97 95 -50 0 255 255 255 50 0 255 255 255, f 18;
#X obj 97 227 s to-composite;
#X obj 96 138 normalize;
#X obj 272 199 xyrgb-file square_d0s0;
#X obj 316 163 print;
#X connect 0 0 2 0;
#X connect 1 0 8 0;
#X connect 2 0 4 0;
#X connect 2 1 1 0;
#X connect 3 0 1 1;
#X connect 6 0 9 0;
#X connect 6 1 5 0;
#X connect 7 0 6 1;
#X connect 8 0 10 0;
#X connect 10 0 6 0;
#X restore 209 279 pd rendertest;
#X obj 338 280 tgl 15 0 empty empty empty 17 7 0 10 -262144 -1 -1 0
1;
#X obj 18 110 t b b b, f 55;
#X obj 338 305 tgl 15 0 empty empty empty 17 7 0 10 -262144 -1 -1 0
1;
#N canvas 464 59 477 349 slowbeam 0;
#X obj 31 11 inlet;
#X obj 92 66 spigot;
#X obj 32 38 t b b, f 9;
#X obj 131 11 inlet;
#X obj 32 66 outlet;
#X floatatom 214 259 5 0 0 0 - - -;
#X obj 95 249 s to-composite;
#N canvas 46 523 450 300 lfo-xy 0;
#X obj 40 24 inlet;
#X obj 42 69 t b b;
#X obj 31 230 outlet;
#X obj 81 230 outlet;
#X obj 74 171 expr sin(time*3.14159 * 0.12) * 200, f 21;
#X obj 40 113 expr sin(time*3.14159 * 0.1021) * 1000, f 21;
#X connect 0 0 1 0;
#X connect 1 0 5 0;
#X connect 1 1 4 0;
#X connect 4 0 3 0;
#X connect 5 0 2 0;
#X restore 146 123 pd lfo-xy;
#X obj 93 95 t b b, f 8;
#X obj 93 158 point, f 16;
#X obj 95 221 render points 8 0;
#X obj 95 189 color cyan;
#X connect 0 0 2 0;
#X connect 1 0 8 0;
#X connect 2 0 4 0;
#X connect 2 1 1 0;
#X connect 3 0 1 1;
#X connect 7 0 9 1;
#X connect 7 1 9 2;
#X connect 8 0 9 0;
#X connect 8 1 7 0;
#X connect 9 0 11 0;
#X connect 10 0 6 0;
#X connect 10 1 5 0;
#X connect 11 0 10 0;
#X restore 209 304 pd slowbeam;
#X obj 338 332 tgl 15 0 empty empty empty 17 7 0 10 -262144 -1 -1 0
1;
#N canvas 464 59 477 349 scan 0;
#X obj 31 11 inlet;
#X obj 92 66 spigot;
#X obj 32 38 t b b, f 9;
#X obj 131 11 inlet;
#X obj 32 66 outlet;
#X floatatom 211 240 5 0 0 0 - - -;
#X obj 95 259 s to-composite;
#X obj 94 164 colorscan 500;
#X floatatom 115 108 5 0 0 0 - - -;
#X floatatom 181 108 5 0 0 0 - - -;
#X msg 180 135 bmod \$1;
#X msg 115 135 gmod \$1;
#X floatatom 241 108 5 0 0 0 - - -;
#X msg 240 135 npoints \$1;
#X obj 95 211 render points 0 96;
#X connect 0 0 2 0;
#X connect 1 0 7 0;
#X connect 2 0 4 0;
#X connect 2 1 1 0;
#X connect 3 0 1 1;
#X connect 7 0 14 0;
#X connect 8 0 11 0;
#X connect 9 0 10 0;
#X connect 10 0 7 1;
#X connect 11 0 7 1;
#X connect 12 0 13 0;
#X connect 13 0 7 1;
#X connect 14 0 6 0;
#X connect 14 1 5 0;
#X restore 209 331 pd scan;
#X obj 338 357 tgl 15 0 empty empty empty 17 7 0 10 -262144 -1 -1 0
1;
#N canvas 603 54 349 456 compositetest 0;
#X obj 31 11 inlet;
#X obj 92 66 spigot;
#X obj 32 38 t b b, f 9;
#X obj 131 11 inlet;
#X obj 32 66 outlet;
#X floatatom 208 350 5 0 0 0 - - -;
#X obj 102 413 s to-composite;
#X obj 125 228 tgl 15 0 empty empty empty 17 7 0 10 -262144 -1 -1 0
1;
#X obj 93 198 t l b;
#X obj 125 253 * 4000;
#X obj 93 287 translate;
#X obj 90 157 normalize;
#X obj 92 321 render lines 8 32 0;
#X msg 92 100 -2000 -300 255 255 255 -2000 300 255 255 255, f 22;
#X obj 258 394 print;
#X connect 0 0 2 0;
#X connect 1 0 13 0;
#X connect 2 0 4 0;
#X connect 2 1 1 0;
#X connect 3 0 1 1;
#X connect 7 0 9 0;
#X connect 8 0 10 0;
#X connect 8 1 7 0;
#X connect 9 0 10 1;
#X connect 10 0 12 0;
#X connect 11 0 8 0;
#X connect 12 0 6 0;
#X connect 12 1 5 0;
#X connect 13 0 11 0;
#X restore 209 356 pd compositetest;
#X obj 18 170 composite 32 10;
#X connect 0 0 10 0;
#X connect 1 0 10 1;
#X connect 4 0 5 0;
#X connect 5 0 6 0;
#X connect 9 0 35 1;
#X connect 10 0 28 0;
#X connect 11 0 24 1;
#X connect 12 0 20 1;
#X connect 13 0 20 0;
#X connect 14 0 13 1;
#X connect 16 0 17 0;
#X connect 17 0 15 0;
#X connect 19 0 23 1;
#X connect 20 0 23 0;
#X connect 22 0 25 1;
#X connect 23 0 25 0;
#X connect 24 0 13 0;
#X connect 25 0 26 0;
#X connect 26 0 30 0;
#X connect 27 0 26 1;
#X connect 28 0 35 0;
#X connect 28 1 24 0;
#X connect 28 2 21 0;
#X connect 29 0 30 1;
#X connect 30 0 32 0;
#X connect 31 0 32 1;
#X connect 32 0 34 0;
#X connect 33 0 34 1;
#X connect 35 0 5 0;
#X connect 35 1 18 0;
