#N canvas 5 54 712 416 12;
#X obj 19 18 tgl 24 0 empty empty empty 17 7 0 10 -262144 -1 -1 1 1
;
#X floatatom 72 23 5 0 0 0 - - -;
#X text 113 22 FPS;
#X obj 171 13 helios-control;
#X obj 33 319 r helios-control;
#X obj 21 347 helios;
#X obj 21 377 helios-status;
#N canvas 0 54 370 266 debug-array 0;
#X obj 33 154 array set heliosdata;
#X obj 80 114 array size heliosdata;
#X obj 78 87 list length;
#X obj 31 210 array define -yrange -2048 2048 heliosdata;
#X obj 32 25 inlet;
#X obj 32 57 t l l, f 7;
#X connect 2 0 1 0;
#X connect 4 0 5 0;
#X connect 5 0 0 0;
#X connect 5 1 2 0;
#X restore 171 37 pd debug-array;
#N canvas 838 517 522 359 reload 1;
#X obj 12 13 inlet;
#X obj 55 601 pdlua;
#X msg 63 13 load zoombots.pd_lua;
#X msg 73 43 load symmetry.pd_lua;
#X msg 81 73 load polygon.pd_lua;
#X obj 13 47 t b;
#X msg 91 102 load composite.pd_lua;
#X msg 111 162 load translate.pd_lua;
#X msg 121 192 load render.pd_lua;
#X msg 131 222 load xygizmo.pd_lua;
#X msg 141 252 load color.pd_lua;
#X msg 101 132 load scale.pd_lua;
#X msg 151 282 load xyrgb-file.pd_lua;
#X msg 161 312 load normalize.pd_lua;
#X msg 171 342 load point.pd_lua;
#X msg 181 372 load colorscan.pd_lua;
#X msg 191 402 load eoshead.pd_lua;
#X msg 201 432 load eos.lua;
#X msg 211 462 load render2.pd_lua;
#X msg 221 492 load analyze.pd_lua;
#X msg 231 522 load graphicstest.pd_lua;
#X msg 241 552 load colorscan2.pd_lua;
#X msg 251 582 load colorwheel.pd_lua;
#X msg 261 612 load colormap.pd_lua;
#X msg 271 642 load ttlcolor.pd_lua;
#X msg 281 672 load gradients.pd_lua;
#X msg 291 702 load colorcurves.pd_lua;
#X msg 301 732 load noop.pd_lua;
#X msg 311 762 load gradient.pd_lua;
#X msg 253 23 load trigger1.pd_lua;
#X msg 263 53 load triggers.pd_lua;
#X msg 273 83 load fadeline.pd_lua;
#X msg 283 113 load qix.pd_lua;
#X msg 293 143 load fadecircle.pd_lua;
#X msg 303 173 load phasetunnel.pd_lua;
#X msg 311 209 load flocking.pd_lua;
#X connect 0 0 5 0;
#X connect 2 0 1 0;
#X connect 3 0 1 0;
#X connect 4 0 1 0;
#X connect 5 0 2 0;
#X connect 5 0 3 0;
#X connect 5 0 6 0;
#X connect 5 0 8 0;
#X connect 5 0 7 0;
#X connect 5 0 9 0;
#X connect 5 0 10 0;
#X connect 5 0 12 0;
#X connect 5 0 13 0;
#X connect 5 0 11 0;
#X connect 5 0 14 0;
#X connect 5 0 15 0;
#X connect 5 0 16 0;
#X connect 5 0 17 0;
#X connect 5 0 18 0;
#X connect 5 0 19 0;
#X connect 5 0 20 0;
#X connect 5 0 21 0;
#X connect 5 0 22 0;
#X connect 5 0 23 0;
#X connect 5 0 24 0;
#X connect 5 0 25 0;
#X connect 5 0 26 0;
#X connect 5 0 27 0;
#X connect 5 0 28 0;
#X connect 5 0 4 0;
#X connect 6 0 1 0;
#X connect 7 0 1 0;
#X connect 8 0 1 0;
#X connect 9 0 1 0;
#X connect 10 0 1 0;
#X connect 11 0 1 0;
#X connect 12 0 1 0;
#X connect 13 0 1 0;
#X connect 14 0 1 0;
#X connect 15 0 1 0;
#X connect 16 0 1 0;
#X connect 17 0 1 0;
#X connect 18 0 1 0;
#X connect 19 0 1 0;
#X connect 20 0 1 0;
#X connect 21 0 1 0;
#X connect 22 0 1 0;
#X connect 23 0 1 0;
#X connect 24 0 1 0;
#X connect 25 0 1 0;
#X connect 26 0 1 0;
#X connect 27 0 1 0;
#X connect 28 0 1 0;
#X connect 29 0 1 0;
#X connect 30 0 1 0;
#X connect 31 0 1 0;
#X connect 32 0 1 0;
#X connect 33 0 1 0;
#X connect 34 0 1 0;
#X connect 35 0 1 0;
#X restore 172 60 pd reload;
#X obj 122 129 r to-composite;
#N canvas 400 443 332 373 clock 0;
#X obj 27 148 metro 50;
#X msg 83 87 1000 \$1;
#X obj 83 114 /;
#X obj 164 20 loadbang;
#X obj 28 40 inlet;
#X obj 85 40 inlet;
#X text 82 14 FPS;
#X obj 27 319 outlet;
#X text 25 14 start;
#X obj 167 84 v fps;
#X obj 58 272 v time;
#X obj 59 205 float;
#X obj 107 205 + 1;
#X obj 27 177 t b b;
#X obj 58 240 expr $f1 / fps;
#X msg 171 139 0;
#X msg 163 45 50;
#X connect 0 0 13 0;
#X connect 1 0 2 0;
#X connect 2 0 0 1;
#X connect 3 0 16 0;
#X connect 4 0 0 0;
#X connect 5 0 1 0;
#X connect 5 0 9 0;
#X connect 11 0 12 0;
#X connect 11 0 14 0;
#X connect 12 0 11 1;
#X connect 13 0 7 0;
#X connect 13 1 11 0;
#X connect 14 0 10 0;
#X connect 15 0 11 1;
#X connect 16 0 1 0;
#X connect 16 0 9 0;
#X restore 19 50 pd clock;
#X obj 365 130 tgl 15 0 empty empty empty 17 7 0 10 -262144 -1 -1 0
1;
#X obj 368 186 tgl 15 0 empty empty empty 17 7 0 10 -262144 -1 -1 0
1;
#N canvas 592 86 386 434 bots 0;
#X obj 71 151 zoombots;
#X floatatom 83 98 5 0 0 0 - - -;
#X msg 83 122 numbots \$1;
#X obj 71 266 symmetry;
#X floatatom 124 240 5 0 0 0 - - -;
#X obj 66 392 s to-composite;
#X obj 11 11 inlet;
#X obj 67 63 spigot;
#X obj 12 36 t b b, f 7;
#X obj 110 9 inlet;
#X obj 13 63 outlet;
#X obj 215 163 render-control;
#X obj 71 299 render points 8 32 12;
#X obj 71 361 colorcurves;
#X obj 70 209 gradient 0 1;
#X floatatom 108 183 5 0 0 0 - - -;
#X floatatom 158 183 5 0 0 0 - - -;
#X connect 0 0 14 0;
#X connect 1 0 2 0;
#X connect 2 0 0 0;
#X connect 3 0 12 0;
#X connect 4 0 3 1;
#X connect 6 0 8 0;
#X connect 7 0 0 0;
#X connect 8 0 10 0;
#X connect 8 1 7 0;
#X connect 9 0 7 1;
#X connect 11 0 12 1;
#X connect 12 0 13 0;
#X connect 13 0 5 0;
#X connect 14 0 3 0;
#X connect 15 0 14 1;
#X connect 16 0 14 2;
#X restore 242 158 pd bots;
#X obj 367 159 tgl 15 0 empty empty empty 17 7 0 10 -262144 -1 -1 0
1;
#X obj 301 66 s to-composite;
#X floatatom 300 14 5 0 0 0 - - -;
#X msg 300 38 preblank \$1;
#X obj 370 216 tgl 15 0 empty empty empty 17 7 0 10 -262144 -1 -1 0
1;
#N canvas 712 343 327 522 xy-gizmo 0;
#X obj 56 140 xygizmo;
#X obj 54 482 s to-composite;
#X obj 56 391 translate, f 17;
#N canvas 795 176 450 300 lfo-xy 0;
#X obj 40 24 inlet;
#X obj 42 69 t b b;
#X obj 31 230 outlet;
#X obj 81 230 outlet;
#X obj 169 28 inlet;
#X text 167 6 X range;
#X obj 249 27 inlet;
#X text 247 5 Y range;
#X obj 40 113 expr sin(time*3.14159 * 0.2021) * $f2, f 21;
#X obj 74 171 expr sin(time*3.14159 * 0.52) * $f3, f 21;
#X connect 0 0 1 0;
#X connect 1 0 8 0;
#X connect 1 1 9 0;
#X connect 4 0 8 1;
#X connect 6 0 9 2;
#X connect 8 0 2 0;
#X connect 9 0 3 0;
#X restore 114 361 pd lfo-xy;
#X obj 56 333 t l b, f 8;
#X floatatom 100 276 5 0 0 0 - - -;
#X floatatom 187 482 5 0 0 0 - - -;
#X floatatom 139 332 5 0 0 0 - - -;
#X floatatom 179 332 5 0 0 0 - - -;
#X floatatom 102 170 5 0 0 0 - - -;
#X obj 168 423 tgl 15 0 empty empty empty 17 7 0 10 -262144 -1 -1 0
1;
#X floatatom 117 218 5 0 0 0 - - -;
#X floatatom 167 218 5 0 0 0 - - -;
#X obj 10 17 inlet;
#X obj 56 17 inlet;
#X obj 10 65 outlet;
#X obj 10 41 eoshead;
#X obj 56 423 colorcurves, f 13;
#N canvas 0 54 568 492 wave-control2 0;
#X floatatom 148 142 7 0 0 0 - - -;
#X floatatom 202 142 5 0 0 0 - - -;
#X floatatom 240 142 5 0 0 0 - - -;
#X floatatom 148 161 7 0 0 0 - - -;
#X floatatom 202 161 5 0 0 0 - - -;
#X floatatom 240 161 5 0 0 0 - - -;
#X floatatom 148 180 7 0 0 0 - - -;
#X floatatom 202 180 5 0 0 0 - - -;
#X floatatom 240 180 5 0 0 0 - - -;
#X floatatom 148 199 7 0 0 0 - - -;
#X floatatom 202 199 5 0 0 0 - - -;
#X floatatom 240 199 5 0 0 0 - - -;
#X text 146 122 Freq;
#X text 200 122 Amp;
#X text 238 122 Phase;
#X text 102 141 X1;
#X text 102 161 Y1;
#X text 102 180 X2;
#X text 102 199 Y2;
#X floatatom 239 102 5 0 0 0 - - -;
#X text 181 102 Points;
#X obj 129 153 tgl 15 0 empty empty empty 17 7 0 10 -262144 -1 -1 1
1;
#X obj 129 191 tgl 15 0 empty empty empty 17 7 0 10 -262144 -1 -1 1
1;
#X msg 336 141 x1freq \$1;
#X obj 517 258 outlet;
#X obj 15 157 spigot;
#X obj 15 187 spigot;
#X obj 15 217 spigot;
#X obj 15 247 spigot;
#X obj 15 277 spigot;
#X obj 15 307 spigot;
#X msg 346 167 x1amp \$1;
#X msg 356 193 x1phase \$1;
#X msg 336 221 y1freq \$1;
#X msg 346 247 y1amp \$1;
#X msg 356 273 y1phase \$1;
#X msg 336 301 x2freq \$1;
#X msg 346 327 x2amp \$1;
#X msg 356 353 x2phase \$1;
#X msg 336 381 y2freq \$1;
#X msg 346 407 y2amp \$1;
#X msg 356 433 y2phase \$1;
#X obj 122 40 t b;
#X obj 124 17 loadbang;
#X msg 385 13 0.5;
#X msg 425 13 0;
#X msg 385 37 0.5;
#X msg 425 73 0;
#X msg 425 37 0.25;
#X msg 425 97 0.25;
#X msg 455 142 npoints \$1;
#X msg 80 69 1;
#X msg 335 13 9.005;
#X msg 385 73 0.5;
#X msg 385 97 0.5;
#X msg 152 75 500;
#X msg 335 37 9.005;
#X msg 335 73 5;
#X msg 335 97 -4.995;
#X connect 0 0 23 0;
#X connect 0 0 25 0;
#X connect 1 0 26 0;
#X connect 1 0 31 0;
#X connect 2 0 27 0;
#X connect 2 0 32 0;
#X connect 3 0 33 0;
#X connect 4 0 34 0;
#X connect 5 0 35 0;
#X connect 6 0 28 0;
#X connect 6 0 36 0;
#X connect 7 0 29 0;
#X connect 7 0 37 0;
#X connect 8 0 30 0;
#X connect 8 0 38 0;
#X connect 9 0 39 0;
#X connect 10 0 40 0;
#X connect 11 0 41 0;
#X connect 19 0 50 0;
#X connect 21 0 25 1;
#X connect 21 0 26 1;
#X connect 21 0 27 1;
#X connect 22 0 28 1;
#X connect 22 0 29 1;
#X connect 22 0 30 1;
#X connect 23 0 24 0;
#X connect 25 0 3 0;
#X connect 26 0 4 0;
#X connect 27 0 5 0;
#X connect 28 0 9 0;
#X connect 29 0 10 0;
#X connect 30 0 11 0;
#X connect 31 0 24 0;
#X connect 32 0 24 0;
#X connect 33 0 24 0;
#X connect 34 0 24 0;
#X connect 35 0 24 0;
#X connect 36 0 24 0;
#X connect 37 0 24 0;
#X connect 38 0 24 0;
#X connect 39 0 24 0;
#X connect 40 0 24 0;
#X connect 41 0 24 0;
#X connect 42 0 52 0;
#X connect 42 0 44 0;
#X connect 42 0 45 0;
#X connect 42 0 56 0;
#X connect 42 0 46 0;
#X connect 42 0 48 0;
#X connect 42 0 57 0;
#X connect 42 0 53 0;
#X connect 42 0 47 0;
#X connect 42 0 58 0;
#X connect 42 0 54 0;
#X connect 42 0 49 0;
#X connect 42 0 55 0;
#X connect 42 0 51 0;
#X connect 43 0 42 0;
#X connect 44 0 1 0;
#X connect 45 0 2 0;
#X connect 46 0 4 0;
#X connect 47 0 8 0;
#X connect 48 0 5 0;
#X connect 49 0 11 0;
#X connect 50 0 24 0;
#X connect 51 0 21 0;
#X connect 51 0 22 0;
#X connect 52 0 0 0;
#X connect 53 0 7 0;
#X connect 54 0 10 0;
#X connect 55 0 19 0;
#X connect 56 0 3 0;
#X connect 57 0 6 0;
#X connect 58 0 9 0;
#X coords 0 -1 1 1 180 120 2 100 100;
#X restore 113 13 pd wave-control2;
#X obj 55 299 scale 1 1;
#X obj 195 357 render-control;
#X obj 55 244 gradient 1.12 256;
#X obj 56 457 render points 0 0 1;
#X obj 164 193 / 2;
#X connect 0 0 21 0;
#X connect 0 1 9 0;
#X connect 2 0 17 0;
#X connect 3 0 2 1;
#X connect 3 1 2 2;
#X connect 4 0 2 0;
#X connect 4 1 3 0;
#X connect 5 0 19 1;
#X connect 5 0 19 2;
#X connect 7 0 3 1;
#X connect 8 0 3 2;
#X connect 9 0 23 0;
#X connect 10 0 17 1;
#X connect 11 0 21 1;
#X connect 12 0 21 2;
#X connect 13 0 16 0;
#X connect 14 0 16 1;
#X connect 16 0 15 0;
#X connect 16 1 0 0;
#X connect 17 0 22 0;
#X connect 18 0 0 1;
#X connect 19 0 4 0;
#X connect 20 0 22 1;
#X connect 21 0 19 0;
#X connect 22 0 1 0;
#X connect 22 1 6 0;
#X connect 23 0 12 0;
#X restore 242 186 pd xy-gizmo;
#N canvas 36 465 924 387 modulate 0;
#X obj 150 335 s helios-control;
#X msg 150 283 rotation \$1;
#X obj 42 13 inlet;
#X obj 152 196 v time;
#X obj 152 255 * 1;
#X floatatom 175 229 5 0 0 0 - - -;
#X obj 157 113 spigot;
#X obj 194 80 tgl 15 0 empty empty empty 17 7 0 10 -262144 -1 -1 0
1;
#X obj 384 106 spigot;
#X obj 416 77 tgl 15 0 empty empty empty 17 7 0 10 -262144 -1 -1 0
1;
#X msg 373 285 linearityx \$1;
#X obj 374 252 * 1;
#X floatatom 402 228 5 0 0 0 - - -;
#X floatatom 650 152 5 0 0 0 - - -;
#X obj 628 108 spigot;
#X obj 660 79 tgl 15 0 empty empty empty 17 7 0 10 -262144 -1 -1 0
1;
#X obj 623 254 * 1;
#X floatatom 653 231 5 0 0 0 - - -;
#X msg 624 288 bowy \$1;
#X obj 35 324 outlet;
#X obj 40 45 t b b b b b b b, f 101;
#X obj 630 186 expr sin(time * 3.14159 * $f1);
#X floatatom 401 157 5 0 0 0 - - -;
#X obj 381 191 expr sin(time * 3.14159 * $f1);
#X connect 1 0 0 0;
#X connect 2 0 20 0;
#X connect 3 0 4 0;
#X connect 4 0 1 0;
#X connect 5 0 4 1;
#X connect 6 0 3 0;
#X connect 7 0 6 1;
#X connect 8 0 23 0;
#X connect 9 0 8 1;
#X connect 10 0 0 0;
#X connect 11 0 10 0;
#X connect 12 0 11 1;
#X connect 13 0 21 0;
#X connect 14 0 21 0;
#X connect 15 0 14 1;
#X connect 16 0 18 0;
#X connect 17 0 16 1;
#X connect 18 0 0 0;
#X connect 20 0 19 0;
#X connect 20 1 6 0;
#X connect 20 3 8 0;
#X connect 20 5 14 0;
#X connect 21 0 16 0;
#X connect 22 0 23 0;
#X connect 23 0 11 0;
#X restore 577 130 pd modulate;
#X obj 371 243 tgl 15 0 empty empty empty 17 7 0 10 -262144 -1 -1 0
1;
#N canvas 136 160 332 551 wander 0;
#X floatatom 106 93 5 0 0 0 - - -;
#X floatatom 150 93 5 0 0 0 - - -;
#X obj 60 514 s to-composite;
#X obj 59 396 translate, f 17;
#X obj 59 447 render lines;
#X obj 59 311 rotate;
#X obj 60 242 t l b;
#X obj 59 338 t l b, f 8;
#N canvas 0 54 450 300 lfo-xy 0;
#X obj 40 24 inlet;
#X obj 42 69 t b b;
#X obj 31 230 outlet;
#X obj 81 230 outlet;
#X obj 40 113 expr sin(time*3.14159 * 0.2021) * 2000, f 21;
#X obj 74 171 expr sin(time*3.14159 * 0.12) * 2000, f 21;
#X connect 0 0 1 0;
#X connect 1 0 4 0;
#X connect 1 1 5 0;
#X connect 4 0 2 0;
#X connect 5 0 3 0;
#X restore 117 366 pd lfo-xy;
#X obj 199 329 render-control;
#X floatatom 139 477 5 0 0 0 - - -;
#X floatatom 193 93 5 0 0 0 - - -;
#X obj 11 6 inlet;
#X obj 57 6 inlet;
#X obj 11 54 outlet;
#X obj 11 30 eoshead;
#X obj 59 215 color hsv 0 1 1;
#X floatatom 91 191 5 0 0 0 - - -;
#X obj 97 267 expr sin(time*3.14159 * 0.2) * 720, f 21;
#X obj 62 119 polygon 3 512 1;
#X floatatom 131 191 5 0 0 0 - - -;
#X floatatom 171 191 5 0 0 0 - - -;
#X obj 62 62 t b b;
#X obj 93 155 expr time * 0.03;
#X connect 0 0 19 1;
#X connect 1 0 19 2;
#X connect 3 0 4 0;
#X connect 4 0 2 0;
#X connect 4 1 10 0;
#X connect 5 0 7 0;
#X connect 6 0 5 0;
#X connect 6 1 18 0;
#X connect 7 0 3 0;
#X connect 7 1 8 0;
#X connect 8 0 3 1;
#X connect 8 1 3 2;
#X connect 9 0 4 1;
#X connect 11 0 19 3;
#X connect 12 0 15 0;
#X connect 13 0 15 1;
#X connect 15 0 14 0;
#X connect 15 1 22 0;
#X connect 16 0 6 0;
#X connect 17 0 16 1;
#X connect 18 0 5 1;
#X connect 19 0 16 0;
#X connect 20 0 16 2;
#X connect 21 0 16 3;
#X connect 22 0 19 0;
#X connect 22 1 23 0;
#X connect 23 0 17 0;
#X restore 242 130 pd wander;
#X obj 371 267 tgl 15 0 empty empty empty 17 7 0 10 -262144 -1 -1 0
1;
#X obj 371 292 tgl 15 0 empty empty empty 17 7 0 10 -262144 -1 -1 0
1;
#N canvas 401 374 332 278 slowbeam 0;
#X floatatom 191 235 5 0 0 0 - - -;
#X obj 72 225 s to-composite;
#N canvas 46 523 450 300 lfo-xy 0;
#X obj 40 24 inlet;
#X obj 42 69 t b b;
#X obj 31 230 outlet;
#X obj 81 230 outlet;
#X obj 40 113 expr sin(time*3.14159 * 0.01021) * 1000, f 21;
#X obj 74 171 expr sin(time*3.14159 * 0.012) * 1000, f 21;
#X connect 0 0 1 0;
#X connect 1 0 4 0;
#X connect 1 1 5 0;
#X connect 4 0 2 0;
#X connect 5 0 3 0;
#X restore 123 99 pd lfo-xy;
#X obj 70 71 t b b, f 8;
#X obj 70 134 point, f 16;
#X obj 72 197 render points 8 0;
#X floatatom 258 95 5 0 0 0 - - -;
#X obj 258 119 / 255;
#X obj 13 10 inlet;
#X obj 59 10 inlet;
#X obj 13 58 outlet;
#X obj 13 34 eoshead;
#X obj 72 165 color hsv 0.9 1 1;
#X connect 2 0 4 1;
#X connect 2 1 4 2;
#X connect 3 0 4 0;
#X connect 3 1 2 0;
#X connect 4 0 12 0;
#X connect 5 0 1 0;
#X connect 5 1 0 0;
#X connect 6 0 7 0;
#X connect 7 0 12 1;
#X connect 8 0 11 0;
#X connect 9 0 11 1;
#X connect 11 0 10 0;
#X connect 11 1 3 0;
#X connect 12 0 5 0;
#X restore 242 291 pd slowbeam;
#X obj 371 319 tgl 15 0 empty empty empty 17 7 0 10 -262144 -1 -1 0
1;
#N canvas 891 509 317 305 scan 0;
#X obj 58 267 s to-composite;
#X obj 10 12 inlet;
#X obj 56 12 inlet;
#X obj 10 60 outlet;
#X obj 10 36 eoshead;
#X obj 131 204 tgl 15 0 empty empty empty 17 7 0 10 -262144 -1 -1 0
1;
#X obj 60 229 colorcurves;
#X obj 58 171 colorscan 500;
#N canvas 51 55 614 485 scan-control 0;
#X floatatom 118 182 7 0 0 0 - - -;
#X floatatom 172 182 5 0 0 0 - - -;
#X floatatom 210 182 5 0 0 0 - - -;
#X floatatom 118 201 7 0 0 0 - - -;
#X floatatom 172 201 5 0 0 0 - - -;
#X floatatom 210 201 5 0 0 0 - - -;
#X floatatom 118 220 7 0 0 0 - - -;
#X floatatom 172 220 5 0 0 0 - - -;
#X floatatom 210 220 5 0 0 0 - - -;
#X text 116 162 Freq;
#X text 170 162 Amp;
#X text 208 162 Phase;
#X floatatom 209 102 5 0 0 0 - - -;
#X text 151 102 Points;
#X obj 517 258 outlet;
#X obj 235 35 t b;
#X obj 237 12 loadbang;
#X msg 415 13 0;
#X msg 415 73 0;
#X msg 415 37 0.25;
#X msg 455 142 npoints \$1;
#X msg 335 13 1.01;
#X msg 218 74 500;
#X obj 209 131 vradio 15 1 0 2 empty empty empty 0 -8 0 10 -262144
-1 -1 1;
#X msg 336 141 rfreq \$1;
#X msg 346 167 ramp \$1;
#X msg 356 193 rphase \$1;
#X msg 336 221 gfreq \$1;
#X msg 346 247 gamp \$1;
#X msg 356 273 gphase \$1;
#X msg 336 301 bfreq \$1;
#X msg 346 327 bamp \$1;
#X msg 356 353 bphase \$1;
#X text 102 181 R;
#X text 102 201 G;
#X text 102 220 B;
#X text 151 145 Square;
#X text 151 129 Sine;
#X msg 348 112 mode \$1;
#X msg 375 13 1;
#X msg 375 37 1;
#X msg 375 73 1;
#X msg 335 37 1.02;
#X msg 335 73 -1.15;
#X connect 0 0 24 0;
#X connect 1 0 25 0;
#X connect 2 0 26 0;
#X connect 3 0 27 0;
#X connect 4 0 28 0;
#X connect 5 0 29 0;
#X connect 6 0 30 0;
#X connect 7 0 31 0;
#X connect 8 0 32 0;
#X connect 12 0 20 0;
#X connect 15 0 21 0;
#X connect 15 0 39 0;
#X connect 15 0 17 0;
#X connect 15 0 42 0;
#X connect 15 0 40 0;
#X connect 15 0 19 0;
#X connect 15 0 43 0;
#X connect 15 0 41 0;
#X connect 15 0 18 0;
#X connect 15 0 22 0;
#X connect 16 0 15 0;
#X connect 17 0 2 0;
#X connect 18 0 8 0;
#X connect 19 0 5 0;
#X connect 20 0 14 0;
#X connect 21 0 0 0;
#X connect 22 0 12 0;
#X connect 23 0 38 0;
#X connect 24 0 14 0;
#X connect 25 0 14 0;
#X connect 26 0 14 0;
#X connect 27 0 14 0;
#X connect 28 0 14 0;
#X connect 29 0 14 0;
#X connect 30 0 14 0;
#X connect 31 0 14 0;
#X connect 32 0 14 0;
#X connect 38 0 14 0;
#X connect 39 0 1 0;
#X connect 40 0 4 0;
#X connect 41 0 7 0;
#X connect 42 0 3 0;
#X connect 43 0 6 0;
#X coords 0 -1 1 1 150 142 2 100 100;
#X restore 147 12 pd scan-control;
#X floatatom 205 188 5 0 0 0 - - -;
#X msg 204 216 thresh \$1;
#X connect 1 0 4 0;
#X connect 2 0 4 1;
#X connect 4 0 3 0;
#X connect 4 1 7 0;
#X connect 5 0 6 1;
#X connect 6 0 0 0;
#X connect 7 0 6 0;
#X connect 8 0 7 1;
#X connect 9 0 10 0;
#X connect 10 0 7 1;
#X restore 242 318 pd scan;
#X obj 371 344 tgl 15 0 empty empty empty 17 7 0 10 -262144 -1 -1 0
1;
#X obj 20 157 composite 32 10;
#X obj 371 371 tgl 15 0 empty empty empty 17 7 0 10 -262144 -1 -1 0
1;
#N canvas 582 199 421 473 subdivision 0;
#X floatatom 223 238 5 0 0 0 - - -;
#X msg 99 110 -1 0 1 1 1 1 0 1 1 1, f 10;
#X floatatom 230 370 12 0 0 0 - - -;
#X obj 270 82 render-control;
#X obj 266 225 render-control;
#X obj 83 80 xyrgb-file square;
#X msg 188 173 accel \$1;
#X floatatom 189 143 5 0 0 0 - - -;
#X obj 94 421 s to-composite;
#X obj 154 12 bng 15 250 50 0 empty empty empty 17 7 0 10 -262144 -1
-1;
#X obj 93 342 render points 4 0 0;
#X obj 120 382 analyze;
#X obj 11 6 inlet;
#X obj 57 6 inlet;
#X obj 11 54 outlet;
#X obj 11 30 eoshead;
#X obj 97 212 render2 lines 0 1024 0;
#X obj 83 151 ttlcolor green;
#X connect 1 0 17 0;
#X connect 3 0 16 1;
#X connect 4 0 10 1;
#X connect 5 0 17 0;
#X connect 6 0 16 1;
#X connect 7 0 6 0;
#X connect 9 0 5 0;
#X connect 10 0 8 0;
#X connect 10 1 2 0;
#X connect 12 0 15 0;
#X connect 13 0 15 1;
#X connect 15 0 14 0;
#X connect 15 1 5 0;
#X connect 16 0 10 0;
#X connect 16 1 0 0;
#X connect 17 0 16 0;
#X restore 242 370 pd subdivision;
#N canvas 446 395 426 241 graphics-test 0;
#X obj 11 6 inlet;
#X obj 57 6 inlet;
#X obj 11 54 outlet;
#X obj 11 30 eoshead;
#X obj 119 100 graphicstest;
#X floatatom 200 127 5 0 0 0 - - -;
#X obj 212 33 bng 15 250 50 0 empty empty empty 17 7 0 10 -262144 -1
-1;
#X obj 44 116 print;
#X obj 281 27 render-control;
#X obj 117 153 render lines 8 32 5;
#X connect 0 0 3 0;
#X connect 1 0 3 1;
#X connect 3 0 2 0;
#X connect 3 1 4 0;
#X connect 4 0 9 0;
#X connect 4 1 5 0;
#X connect 6 0 4 0;
#X connect 8 0 9 1;
#X restore 405 130 pd graphics-test;
#X obj 531 130 tgl 15 0 empty empty empty 17 7 0 10 -262144 -1 -1 0
1;
#N canvas 145 582 354 288 render-test 0;
#X floatatom 186 227 5 0 0 0 - - -;
#X obj 67 189 render points 0 0;
#X obj 219 86 render-control;
#X msg 67 85 -50 0 255 255 255 50 0 255 255 255, f 18;
#X obj 67 217 s to-composite;
#X obj 66 128 normalize;
#X obj 11 10 inlet;
#X obj 57 10 inlet;
#X obj 11 58 outlet;
#X obj 11 34 eoshead;
#X connect 1 0 4 0;
#X connect 1 1 0 0;
#X connect 2 0 1 1;
#X connect 3 0 5 0;
#X connect 5 0 1 0;
#X connect 6 0 9 0;
#X connect 7 0 9 1;
#X connect 9 0 8 0;
#X connect 9 1 3 0;
#X restore 242 266 pd render-test;
#N canvas 150 373 693 509 poly-test 0;
#X obj 31 11 inlet;
#X obj 84 65 spigot;
#X obj 32 38 t b b;
#X obj 127 11 inlet;
#X obj 32 66 outlet;
#X obj 85 99 t b b, f 45;
#X obj 405 403 render lines;
#X obj 96 437 s to-composite;
#X obj 408 436 s to-composite;
#X obj 87 300 translate -1500 0;
#X obj 402 296 translate 1500 0;
#X obj 399 267 rotate;
#X obj 400 215 t l b;
#X obj 88 272 rotate;
#X obj 89 218 t l b;
#X obj 222 287 render-control;
#X obj 126 243 expr time * 50;
#X obj 437 240 expr time * -50;
#X obj 554 272 render-control;
#X obj 99 407 render lines 8 32;
#X floatatom 177 127 5 0 0 0 - - -;
#X floatatom 219 186 5 0 0 0 - - -;
#X floatatom 133 126 5 0 0 0 - - -;
#X obj 88 151 polygon 5 512 1;
#X obj 400 150 polygon 4 512 1;
#X obj 87 186 color hsv 0 1 1;
#X floatatom 322 18 5 0 0 0 - - -;
#X obj 322 42 / 512;
#X obj 400 182 ttlcolor blue;
#X connect 0 0 2 0;
#X connect 1 0 5 0;
#X connect 2 0 4 0;
#X connect 2 1 1 0;
#X connect 3 0 1 1;
#X connect 5 0 23 0;
#X connect 5 1 24 0;
#X connect 6 0 8 0;
#X connect 9 0 19 0;
#X connect 10 0 6 0;
#X connect 11 0 10 0;
#X connect 12 0 11 0;
#X connect 12 1 17 0;
#X connect 13 0 9 0;
#X connect 14 0 13 0;
#X connect 14 1 16 0;
#X connect 15 0 19 1;
#X connect 16 0 13 1;
#X connect 17 0 11 1;
#X connect 18 0 6 1;
#X connect 19 0 7 0;
#X connect 20 0 23 2;
#X connect 22 0 23 1;
#X connect 23 0 25 0;
#X connect 23 1 21 0;
#X connect 24 0 28 0;
#X connect 25 0 14 0;
#X connect 26 0 27 0;
#X connect 27 0 25 1;
#X connect 28 0 12 0;
#X restore 242 240 pd poly-test;
#N canvas 48 90 472 281 file-test 0;
#X obj 31 11 inlet;
#X obj 84 65 spigot;
#X obj 32 38 t b b, f 7;
#X obj 127 11 inlet;
#X obj 84 106 xyrgb-file spinning-cube;
#X obj 85 205 s to-composite;
#X floatatom 249 133 5 0 0 0 - - -;
#X floatatom 201 203 5 0 0 0 - - -;
#X obj 32 65 outlet;
#X obj 230 34 xyrgb-file square_d0s0;
#X obj 220 66 print;
#X obj 214 10 bng 15 250 50 0 empty empty empty 17 7 0 10 -262144 -1
-1;
#X obj 84 141 scale 0.5 0.5;
#X obj 85 176 render lines 4 64;
#X connect 0 0 2 0;
#X connect 1 0 4 0;
#X connect 2 0 8 0;
#X connect 2 1 1 0;
#X connect 3 0 1 1;
#X connect 4 0 12 0;
#X connect 4 1 6 0;
#X connect 9 0 10 0;
#X connect 11 0 9 0;
#X connect 12 0 13 0;
#X connect 13 0 5 0;
#X connect 13 1 7 0;
#X restore 242 215 pd file-test;
#N canvas 589 380 349 456 composite-test 0;
#X obj 31 11 inlet;
#X obj 92 66 spigot;
#X obj 32 38 t b b, f 9;
#X obj 131 11 inlet;
#X obj 32 66 outlet;
#X floatatom 208 350 5 0 0 0 - - -;
#X obj 102 413 s to-composite;
#X obj 125 228 tgl 15 0 empty empty empty 17 7 0 10 -262144 -1 -1 0
1;
#X obj 93 198 t l b;
#X obj 125 253 * 4000;
#X obj 93 287 translate;
#X obj 90 157 normalize;
#X obj 92 321 render lines 8 32 0;
#X msg 92 100 -2000 -300 255 255 255 -2000 300 255 255 255, f 22;
#X connect 0 0 2 0;
#X connect 1 0 13 0;
#X connect 2 0 4 0;
#X connect 2 1 1 0;
#X connect 3 0 1 1;
#X connect 7 0 9 0;
#X connect 8 0 10 0;
#X connect 8 1 7 0;
#X connect 9 0 10 1;
#X connect 10 0 12 0;
#X connect 11 0 8 0;
#X connect 12 0 6 0;
#X connect 12 1 5 0;
#X connect 13 0 11 0;
#X restore 242 343 pd composite-test;
#X obj 527 185 tgl 15 0 empty empty empty 17 7 0 10 -262144 -1 -1 0
1;
#X obj 527 215 tgl 15 0 empty empty empty 17 7 0 10 -262144 -1 -1 0
1;
#N canvas 196 54 815 613 curve-edit 0;
#N canvas 0 54 450 250 (subpatch) 0;
#X array ccR 256 float 5;
#A 0 -0.00714213 -0.00223145 0.00267923 0.0075899 0.0125006 0.0174113
0.0223219 0.0272326 0.0321433 0.037054 0.0419646 0.0468753 0.051786
0.0566967 0.0616073 0.066518 0.0714287 0.0763394 0.08125 0.0861607
0.0910714 0.0959821 0.100893 0.105803 0.110714 0.115625 0.120535 0.125446
0.130357 0.135267 0.140178 0.145089 0.149999 0.15 0.15 0.15 0.15 0.15
0.15 0.15 0.15 0.15 0.15 0.15 0.15 0.15 0.15 0.15 0.15 0.15 0.15 0.15
0.15 0.15 0.15 0.15 0.15 0.15 0.15 0.15 0.15 0.15 0.15 0.15 0.15 0.150224
0.150447 0.15067 0.150893 0.151116 0.15134 0.151563 0.151786 0.152009
0.152233 0.152456 0.152679 0.152902 0.153125 0.153349 0.153572 0.153795
0.154018 0.154241 0.154465 0.154688 0.154911 0.155134 0.155358 0.155581
0.155804 0.156027 0.15625 0.156474 0.156697 0.15692 0.157143 0.15759
0.158036 0.158483 0.158929 0.159375 0.159822 0.160268 0.160715 0.161161
0.161607 0.162054 0.1625 0.162947 0.163393 0.16384 0.164286 0.164732
0.165179 0.165625 0.166072 0.166518 0.166965 0.167411 0.167857 0.168304
0.16875 0.169197 0.169643 0.17009 0.170536 0.170982 0.171429 0.173215
0.175 0.176786 0.178572 0.180357 0.182143 0.183929 0.185715 0.1875
0.189286 0.191072 0.192857 0.194643 0.196429 0.198215 0.2 0.201786
0.203572 0.205357 0.207143 0.208929 0.210715 0.2125 0.214286 0.216072
0.217857 0.219643 0.221429 0.223215 0.225 0.226786 0.228572 0.231473
0.234375 0.237277 0.240179 0.24308 0.245982 0.248884 0.251786 0.254687
0.257589 0.260491 0.263393 0.266294 0.269196 0.272098 0.275 0.277901
0.280803 0.283705 0.286607 0.289508 0.29241 0.295312 0.298214 0.301115
0.304017 0.306919 0.309821 0.312722 0.315624 0.318526 0.321427 0.327231
0.333035 0.338838 0.344642 0.350445 0.356249 0.362052 0.367856 0.37366
0.379463 0.385267 0.39107 0.396874 0.402677 0.408481 0.414284 0.420088
0.425892 0.431695 0.437499 0.443302 0.449106 0.454909 0.460713 0.466517
0.47232 0.478124 0.483927 0.489731 0.495534 0.501338 0.507142 0.507142
0.507142 0.507142 0.507142 0.507142 0.507142 0.507142 0.507142 0.507142
0.507142 0.507142 0.507142 0.507142 0.507142 0.507142 0.507142 0.507142
0.507142 0.507142 0.507142 0.507142 0.507142 0.507142 0.507142 0.507142
0.507142 0.507142 0.507142 0.507142 0.507142 0.507142;
#X coords 0 1 256 0 256 256 1 0 0;
#X restore 12 18 graph;
#N canvas 0 54 450 250 (subpatch) 0;
#X array ccG 256 float 5;
#A 0 -1.78814e-06 0.0035697 0.00714118 0.0107127 0.0142841 0.0178556
0.0214271 0.0249986 0.0285701 0.0321416 0.0357131 0.0392845 0.042856
0.0464275 0.049999 0.0535705 0.057142 0.0607134 0.0642849 0.0678564
0.0714279 0.0749994 0.0785709 0.0821424 0.0857138 0.0892853 0.0928568
0.0964283 0.0999998 0.103571 0.107143 0.110714 0.114286 0.114509 0.114732
0.114955 0.115178 0.115402 0.115625 0.115848 0.116071 0.116294 0.116518
0.116741 0.116964 0.117187 0.11741 0.117634 0.117857 0.11808 0.118303
0.118526 0.11875 0.118973 0.119196 0.119419 0.119642 0.119866 0.120089
0.120312 0.120535 0.120758 0.120982 0.121205 0.121428 0.121651 0.121874
0.122098 0.122321 0.122544 0.122767 0.122991 0.123214 0.123437 0.123661
0.123884 0.124107 0.12433 0.124554 0.124777 0.125 0.125223 0.125446
0.12567 0.125893 0.126116 0.126339 0.126563 0.126786 0.127009 0.127233
0.127456 0.127679 0.127902 0.128126 0.128349 0.128572 0.130135 0.131697
0.13326 0.134822 0.136385 0.137947 0.139509 0.141072 0.142634 0.144197
0.145759 0.147322 0.148885 0.150447 0.15201 0.153572 0.155134 0.156697
0.15826 0.159822 0.161384 0.162947 0.164509 0.166072 0.167635 0.169197
0.170759 0.172322 0.173884 0.175447 0.177009 0.178572 0.181474 0.184375
0.187277 0.190179 0.193081 0.195982 0.198884 0.201786 0.204688 0.20759
0.210491 0.213393 0.216295 0.219196 0.222098 0.225 0.227902 0.230804
0.233705 0.236607 0.239509 0.24241 0.245312 0.248214 0.251116 0.254018
0.256919 0.259821 0.262723 0.265624 0.268526 0.271428 0.27299 0.274553
0.276116 0.277678 0.27924 0.280803 0.282366 0.283928 0.28549 0.287053
0.288615 0.290178 0.29174 0.293303 0.294865 0.296428 0.297991 0.299553
0.301116 0.302678 0.30424 0.305803 0.307366 0.308928 0.31049 0.312053
0.313616 0.315178 0.316741 0.318303 0.319865 0.321428 0.326562 0.331696
0.33683 0.341964 0.347098 0.352232 0.357366 0.3625 0.367634 0.372768
0.377901 0.383035 0.388169 0.393303 0.398437 0.403571 0.408705 0.413839
0.418973 0.424107 0.429241 0.434375 0.439509 0.444643 0.449777 0.454911
0.460045 0.465179 0.470313 0.475447 0.480581 0.485714 0.485714 0.485714
0.485714 0.485714 0.485714 0.485714 0.485714 0.485714 0.485714 0.485714
0.485714 0.485714 0.485714 0.485714 0.485714 0.485714 0.485714 0.485714
0.485714 0.485714 0.485714 0.485714 0.485714 0.485714 0.485714 0.485714
0.485714 0.485714 0.485714 0.485714 0.485714;
#X coords 0 1 256 0 256 256 1 0 0;
#X restore 278 19 graph;
#N canvas 0 54 450 250 (subpatch) 0;
#X array ccB 256 float 5;
#A 0 4.76837e-07 0.00736653 0.0147326 0.0220986 0.0294647 0.0368308
0.0441968 0.0515629 0.0589289 0.066295 0.073661 0.0810271 0.0883931
0.0957592 0.103125 0.110491 0.117857 0.125223 0.132589 0.139956 0.147322
0.154688 0.162054 0.16942 0.176786 0.184152 0.191518 0.198884 0.20625
0.213616 0.220982 0.228348 0.235714 0.235937 0.236161 0.236384 0.236607
0.23683 0.237054 0.237277 0.2375 0.237723 0.237946 0.23817 0.238393
0.238616 0.238839 0.239062 0.239286 0.239509 0.239732 0.239955 0.240178
0.240402 0.240625 0.240848 0.241071 0.241295 0.241518 0.241741 0.241964
0.242187 0.242411 0.242634 0.242857 0.243973 0.245089 0.246205 0.247321
0.248437 0.249553 0.250669 0.251786 0.252902 0.254018 0.255134 0.25625
0.257366 0.258482 0.259598 0.260714 0.26183 0.262946 0.264062 0.265178
0.266294 0.26741 0.268526 0.269642 0.270759 0.271875 0.272991 0.274107
0.275223 0.276339 0.277455 0.278571 0.280133 0.281696 0.283258 0.284821
0.286383 0.287946 0.289508 0.291071 0.292633 0.294196 0.295758 0.297321
0.298883 0.300446 0.302008 0.303571 0.305133 0.306696 0.308258 0.309821
0.311383 0.312946 0.314508 0.316071 0.317633 0.319196 0.320758 0.322321
0.323883 0.325446 0.327008 0.328571 0.334598 0.340625 0.346652 0.352679
0.358705 0.364732 0.370759 0.376786 0.382813 0.38884 0.394867 0.400894
0.406921 0.412948 0.418974 0.425001 0.431028 0.437055 0.443082 0.449109
0.455136 0.461163 0.46719 0.473217 0.479243 0.48527 0.491297 0.497324
0.503351 0.509378 0.515405 0.521432 0.530583 0.539735 0.548887 0.558038
0.56719 0.576342 0.585494 0.594645 0.603797 0.612949 0.6221 0.631252
0.640404 0.649556 0.658707 0.667859 0.677011 0.686162 0.695314 0.704466
0.713617 0.722769 0.731921 0.741072 0.750224 0.759376 0.768528 0.777679
0.786831 0.795983 0.805134 0.814286 0.819866 0.825447 0.831027 0.836607
0.842188 0.847768 0.853348 0.858929 0.864509 0.870089 0.875669 0.88125
0.88683 0.89241 0.897991 0.903571 0.909151 0.914732 0.920312 0.925892
0.931473 0.937053 0.942633 0.948214 0.953794 0.959374 0.964954 0.970535
0.976115 0.981695 0.987276 0.992856 0.992856 0.992856 0.992856 0.992856
0.992856 0.992856 0.992856 0.992856 0.992856 0.992856 0.992856 0.992856
0.992856 0.992856 0.992856 0.992856 0.992856 0.992856 0.992856 0.992856
0.992856 0.992856 0.992856 0.992856 0.992856 0.992856 0.992856 0.992856
0.992856 0.992856 0.992856;
#X coords 0 1 256 0 256 256 1 0 0;
#X restore 543 19 graph;
#X obj 503 500 inlet;
#X obj 549 500 inlet;
#X obj 503 548 outlet;
#X obj 503 524 eoshead;
#N canvas 0 50 450 250 (subpatch) 0;
#X array curvecontrol-r 8 float 3;
#A 0 -0.00714213 0.149999 0.15 0.157143 0.171429 0.228572 0.321427
0.507142;
#X coords 0 1 8 0 200 140 1 0 0;
#X restore 10 293 graph;
#N canvas 0 50 450 250 (subpatch) 0;
#X array curvecontrol-g 8 float 3;
#A 0 -1.78814e-06 0.114286 0.121428 0.128572 0.178572 0.271428 0.321428
0.485714;
#X coords 0 1 8 0 200 140 1 0 0;
#X restore 279 295 graph;
#N canvas 799 369 315 510 render-curves 0;
#X obj 59 15 inlet;
#X obj 58 168 float 0;
#X obj 58 140 until;
#X obj 58 111 float;
#X obj 118 169 + 1;
#X obj 56 224 / 32;
#X obj 81 252 / 32;
#X obj 105 278 / 32;
#X obj 56 198 t f f f f f f, f 18;
#X obj 88 343 tabreadlin curvecontrol-g;
#X obj 108 373 tabreadlin curvecontrol-b;
#X obj 88 83 expr 256;
#X obj 58 44 t b b b, f 8;
#X msg 115 141 0;
#X obj 56 313 tabreadlin curvecontrol-r;
#X obj 56 411 array set ccR, f 21;
#X obj 90 441 array set ccG, f 21;
#X obj 110 471 array set ccB, f 21;
#X connect 0 0 12 0;
#X connect 1 0 4 0;
#X connect 1 0 8 0;
#X connect 2 0 1 0;
#X connect 3 0 2 0;
#X connect 4 0 1 1;
#X connect 5 0 14 0;
#X connect 6 0 9 0;
#X connect 7 0 10 0;
#X connect 8 0 5 0;
#X connect 8 1 6 0;
#X connect 8 2 7 0;
#X connect 8 3 15 1;
#X connect 8 4 16 1;
#X connect 8 5 17 1;
#X connect 9 0 16 0;
#X connect 10 0 17 0;
#X connect 11 0 3 1;
#X connect 12 0 3 0;
#X connect 12 1 11 0;
#X connect 12 2 13 0;
#X connect 13 0 1 1;
#X connect 14 0 15 0;
#X restore 555 550 pd render-curves;
#N canvas 0 50 450 250 (subpatch) 0;
#X array curvecontrol-b 8 float 3;
#A 0 4.76837e-07 0.235714 0.242857 0.278571 0.328571 0.521432 0.814286
0.992856;
#X coords 0 1 8 0 200 140 1 0 0;
#X restore 543 293 graph;
#X obj 11 442 vsl 15 128 0 1 0 0 empty empty empty 0 -9 0 10 -262144
-1 -1 0 1;
#X obj 26 442 vsl 15 128 0 1 0 0 empty empty empty 0 -9 0 10 -262144
-1 -1 0 1;
#N canvas 712 590 380 210 slidertoarray 0;
#X obj 23 23 inlet;
#X obj 63 23 inlet;
#X obj 103 23 inlet;
#X obj 143 23 inlet;
#X obj 183 23 inlet;
#X obj 223 23 inlet;
#X obj 263 23 inlet;
#X obj 303 23 inlet;
#X obj 23 48 t f b;
#X msg 51 78 0;
#X obj 63 48 t f b;
#X obj 103 48 t f b;
#X obj 143 48 t f b;
#X obj 183 48 t f b;
#X obj 223 48 t f b;
#X obj 263 48 t f b;
#X obj 303 48 t f b;
#X msg 91 78 1;
#X msg 131 78 2;
#X msg 171 78 3;
#X msg 211 78 4;
#X msg 251 78 5;
#X msg 291 78 6;
#X msg 331 78 7;
#X obj 23 170 array set curvecontrol-r 0, f 46;
#X connect 0 0 8 0;
#X connect 1 0 10 0;
#X connect 2 0 11 0;
#X connect 3 0 12 0;
#X connect 4 0 13 0;
#X connect 5 0 14 0;
#X connect 6 0 15 0;
#X connect 7 0 16 0;
#X connect 8 0 24 0;
#X connect 8 1 9 0;
#X connect 9 0 24 1;
#X connect 10 0 24 0;
#X connect 10 1 17 0;
#X connect 11 0 24 0;
#X connect 11 1 18 0;
#X connect 12 0 24 0;
#X connect 12 1 19 0;
#X connect 13 0 24 0;
#X connect 13 1 20 0;
#X connect 14 0 24 0;
#X connect 14 1 21 0;
#X connect 15 0 24 0;
#X connect 15 1 22 0;
#X connect 16 0 24 0;
#X connect 16 1 23 0;
#X connect 17 0 24 1;
#X connect 18 0 24 1;
#X connect 19 0 24 1;
#X connect 20 0 24 1;
#X connect 21 0 24 1;
#X connect 22 0 24 1;
#X connect 23 0 24 1;
#X restore 11 580 pd slidertoarray;
#X obj 41 442 vsl 15 128 0 1 0 0 empty empty empty 0 -9 0 10 -262144
-1 -1 0 1;
#X obj 56 442 vsl 15 128 0 1 0 0 empty empty empty 0 -9 0 10 -262144
-1 -1 0 1;
#X obj 71 442 vsl 15 128 0 1 0 0 empty empty empty 0 -9 0 10 -262144
-1 -1 0 1;
#X obj 86 442 vsl 15 128 0 1 0 0 empty empty empty 0 -9 0 10 -262144
-1 -1 0 1;
#X obj 101 442 vsl 15 128 0 1 0 0 empty empty empty 0 -9 0 10 -262144
-1 -1 0 1;
#X obj 116 442 vsl 15 128 0 1 0 0 empty empty empty 0 -9 0 10 -262144
-1 -1 0 1;
#X connect 3 0 6 0;
#X connect 4 0 6 1;
#X connect 6 0 5 0;
#X connect 6 1 9 0;
#X connect 11 0 13 0;
#X connect 12 0 13 1;
#X connect 14 0 13 2;
#X connect 15 0 13 3;
#X connect 16 0 13 4;
#X connect 17 0 13 5;
#X connect 18 0 13 6;
#X connect 19 0 13 7;
#X restore 406 249 pd curve-edit;
#X obj 529 249 tgl 15 0 empty empty empty 17 7 0 10 -262144 -1 -1 0
1;
#X obj 527 280 tgl 15 0 empty empty empty 17 7 0 10 -262144 -1 -1 0
1;
#N canvas 951 549 317 336 center-beam 0;
#X obj 11 6 inlet;
#X obj 57 6 inlet;
#X obj 11 54 outlet;
#X obj 11 30 eoshead;
#X obj 71 266 s to-composite;
#X obj 74 92 point 0 0;
#X obj 74 225 render points 4 128 0;
#X floatatom 108 155 5 0 0 0 - - -;
#X floatatom 150 154 5 0 0 0 - - -;
#X floatatom 190 154 5 0 0 0 - - -;
#X obj 108 128 expr time * 0.03;
#X obj 173 25 ttlcolor white;
#X obj 74 56 t b b;
#X obj 74 182 color hsv 0 0 1;
#X connect 0 0 3 0;
#X connect 1 0 3 1;
#X connect 3 0 2 0;
#X connect 3 1 12 0;
#X connect 5 0 13 0;
#X connect 6 0 4 0;
#X connect 7 0 13 1;
#X connect 8 0 13 2;
#X connect 9 0 13 3;
#X connect 10 0 7 0;
#X connect 12 0 5 0;
#X connect 13 0 6 0;
#X restore 405 280 pd center-beam;
#N canvas 945 469 434 378 range-map 0;
#X obj 11 6 inlet;
#X obj 57 6 inlet;
#X obj 11 54 outlet;
#X obj 11 30 eoshead;
#X obj 81 329 s to-composite;
#X floatatom 166 90 5 0 0 0 - - -;
#X floatatom 201 325 5 0 0 0 - - -;
#X obj 247 199 render-control;
#X floatatom 123 141 5 0 0 0 - - -;
#X floatatom 209 141 5 0 0 0 - - -;
#X floatatom 294 141 5 0 0 0 - - -;
#X floatatom 166 141 5 0 0 0 - - -;
#X floatatom 251 141 5 0 0 0 - - -;
#X floatatom 337 141 5 0 0 0 - - -;
#X text 120 117 Rmin;
#X text 163 117 Rmax;
#X text 206 117 Gmin;
#X text 249 117 Gmax;
#X text 291 117 Bmin;
#X text 334 117 Bmax;
#X floatatom 250 90 5 0 0 0 - - -;
#X floatatom 160 40 5 0 0 0 - - -;
#X obj 84 297 render lines 0 64;
#X obj 78 64 gradients 128;
#X obj 81 167 rangemap 0.149 1 0.117 1 0.243 1, f 37;
#X connect 0 0 3 0;
#X connect 1 0 3 1;
#X connect 3 0 2 0;
#X connect 3 1 23 0;
#X connect 7 0 22 1;
#X connect 8 0 24 1;
#X connect 9 0 24 3;
#X connect 10 0 24 5;
#X connect 11 0 24 2;
#X connect 12 0 24 4;
#X connect 13 0 24 6;
#X connect 20 0 11 0;
#X connect 20 0 12 0;
#X connect 20 0 13 0;
#X connect 21 0 23 1;
#X connect 22 0 4 0;
#X connect 22 1 6 0;
#X connect 23 0 24 0;
#X connect 23 1 5 0;
#X connect 24 0 22 0;
#X restore 405 185 pd range-map;
#N canvas 1056 552 385 300 curve-map 0;
#X obj 11 6 inlet;
#X obj 57 6 inlet;
#X obj 11 54 outlet;
#X obj 11 30 eoshead;
#X obj 64 259 s to-composite;
#X floatatom 153 118 5 0 0 0 - - -;
#X floatatom 182 171 5 0 0 0 - - -;
#X obj 206 22 render-control;
#X floatatom 114 48 5 0 0 0 - - -;
#X obj 65 145 render lines 0 64;
#X obj 63 93 gradients 128;
#X obj 138 193 tgl 15 0 empty empty empty 17 7 0 10 -262144 -1 -1 0
1;
#X obj 64 214 colorcurves;
#X connect 0 0 3 0;
#X connect 1 0 3 1;
#X connect 3 0 2 0;
#X connect 3 1 10 0;
#X connect 7 0 9 1;
#X connect 8 0 10 1;
#X connect 9 0 12 0;
#X connect 9 1 6 0;
#X connect 10 0 9 0;
#X connect 10 1 5 0;
#X connect 11 0 12 1;
#X connect 12 0 4 0;
#X restore 405 215 pd curve-map;
#X obj 527 158 tgl 15 0 empty empty empty 17 7 0 10 -262144 -1 -1 0
1;
#N canvas 1122 532 317 317 colorwheel 0;
#X obj 11 6 inlet;
#X obj 57 6 inlet;
#X obj 11 54 outlet;
#X obj 11 30 eoshead;
#X obj 61 279 s to-composite;
#X floatatom 258 7 5 0 0 0 - - -;
#X obj 203 7 v time;
#X obj 136 223 tgl 15 0 empty empty empty 17 7 0 10 -262144 -1 -1 0
1;
#X obj 204 32 * 0;
#X floatatom 99 143 5 0 0 0 - - -;
#X floatatom 139 143 5 0 0 0 - - -;
#X obj 61 245 colorcurves;
#X floatatom 77 74 5 0 0 0 - - -;
#X floatatom 117 74 5 0 0 0 - - -;
#X obj 60 100 polygon 256;
#X obj 61 169 gradient 0 2;
#X connect 0 0 3 0;
#X connect 1 0 3 1;
#X connect 3 0 2 0;
#X connect 3 1 14 0;
#X connect 5 0 8 1;
#X connect 6 0 8 0;
#X connect 7 0 11 1;
#X connect 9 0 15 1;
#X connect 10 0 15 2;
#X connect 11 0 4 0;
#X connect 12 0 14 1;
#X connect 13 0 14 2;
#X connect 14 0 15 0;
#X connect 15 0 11 0;
#X restore 405 158 pd colorwheel;
#X obj 22 184 denormalize;
#X obj 524 310 tgl 15 0 empty empty empty 17 7 0 10 -262144 -1 -1 0
1;
#X obj 531 338 tgl 15 0 empty empty empty 17 7 0 10 -262144 -1 -1 0
1;
#N canvas 424 363 328 495 qix 0;
#X obj 58 456 s to-composite;
#X obj 170 414 tgl 15 0 empty empty empty 17 7 0 10 -262144 -1 -1 0
1;
#X floatatom 95 347 5 0 0 0 - - -;
#X floatatom 145 347 5 0 0 0 - - -;
#X obj 10 17 inlet;
#X obj 56 17 inlet;
#X obj 10 65 outlet;
#X obj 10 41 eoshead;
#X obj 58 414 colorcurves, f 13;
#X obj 56 145 qix;
#X floatatom 101 171 5 0 0 0 - - -;
#X obj 56 194 scale 1 1;
#X obj 182 201 render-control;
#X obj 56 308 render lines 0 64;
#N canvas 224 199 644 503 qix-control 0;
#X floatatom 148 142 7 0 0 0 - - -;
#X floatatom 202 142 5 0 0 0 - - -;
#X floatatom 240 142 5 0 0 0 - - -;
#X floatatom 148 161 7 0 0 0 - - -;
#X floatatom 202 161 5 0 0 0 - - -;
#X floatatom 240 161 5 0 0 0 - - -;
#X floatatom 148 180 7 0 0 0 - - -;
#X floatatom 202 180 5 0 0 0 - - -;
#X floatatom 240 180 5 0 0 0 - - -;
#X floatatom 148 199 7 0 0 0 - - -;
#X floatatom 202 199 5 0 0 0 - - -;
#X floatatom 240 199 5 0 0 0 - - -;
#X text 146 122 Freq;
#X text 200 122 Amp;
#X text 238 122 Phase;
#X text 102 141 X1;
#X text 102 161 Y1;
#X text 102 180 X2;
#X text 102 199 Y2;
#X floatatom 239 102 5 0 0 0 - - -;
#X obj 129 153 tgl 15 0 empty empty empty 17 7 0 10 -262144 -1 -1 0
1;
#X obj 129 191 tgl 15 0 empty empty empty 17 7 0 10 -262144 -1 -1 0
1;
#X msg 336 141 x1freq \$1;
#X obj 517 258 outlet;
#X obj 15 157 spigot;
#X obj 15 187 spigot;
#X obj 15 217 spigot;
#X obj 15 247 spigot;
#X obj 15 277 spigot;
#X obj 15 307 spigot;
#X msg 346 167 x1amp \$1;
#X msg 356 193 x1phase \$1;
#X msg 336 221 y1freq \$1;
#X msg 346 247 y1amp \$1;
#X msg 356 273 y1phase \$1;
#X msg 336 301 x2freq \$1;
#X msg 346 327 x2amp \$1;
#X msg 356 353 x2phase \$1;
#X msg 336 381 y2freq \$1;
#X msg 346 407 y2amp \$1;
#X msg 356 433 y2phase \$1;
#X obj 122 40 t b;
#X obj 124 17 loadbang;
#X msg 415 13 0;
#X msg 415 73 0;
#X msg 415 37 0.25;
#X msg 415 97 0.25;
#X msg 455 142 npoints \$1;
#X msg 152 75 1;
#X text 102 101 QIX;
#X msg 375 13 1;
#X msg 375 37 1;
#X msg 375 73 1;
#X msg 375 97 1;
#X msg 80 69 0;
#X text 191 102 Lines;
#X msg 335 13 0.78;
#X msg 335 37 0.82;
#X msg 335 73 0.86;
#X msg 335 97 0.77;
#X connect 0 0 22 0;
#X connect 0 0 24 0;
#X connect 1 0 25 0;
#X connect 1 0 30 0;
#X connect 2 0 26 0;
#X connect 2 0 31 0;
#X connect 3 0 32 0;
#X connect 4 0 33 0;
#X connect 5 0 34 0;
#X connect 6 0 27 0;
#X connect 6 0 35 0;
#X connect 7 0 28 0;
#X connect 7 0 36 0;
#X connect 8 0 29 0;
#X connect 8 0 37 0;
#X connect 9 0 38 0;
#X connect 10 0 39 0;
#X connect 11 0 40 0;
#X connect 19 0 47 0;
#X connect 20 0 24 1;
#X connect 20 0 25 1;
#X connect 20 0 26 1;
#X connect 21 0 27 1;
#X connect 21 0 28 1;
#X connect 21 0 29 1;
#X connect 22 0 23 0;
#X connect 24 0 3 0;
#X connect 25 0 4 0;
#X connect 26 0 5 0;
#X connect 27 0 9 0;
#X connect 28 0 10 0;
#X connect 29 0 11 0;
#X connect 30 0 23 0;
#X connect 31 0 23 0;
#X connect 32 0 23 0;
#X connect 33 0 23 0;
#X connect 34 0 23 0;
#X connect 35 0 23 0;
#X connect 36 0 23 0;
#X connect 37 0 23 0;
#X connect 38 0 23 0;
#X connect 39 0 23 0;
#X connect 40 0 23 0;
#X connect 41 0 56 0;
#X connect 41 0 50 0;
#X connect 41 0 43 0;
#X connect 41 0 57 0;
#X connect 41 0 51 0;
#X connect 41 0 45 0;
#X connect 41 0 58 0;
#X connect 41 0 52 0;
#X connect 41 0 44 0;
#X connect 41 0 59 0;
#X connect 41 0 53 0;
#X connect 41 0 46 0;
#X connect 41 0 48 0;
#X connect 41 0 54 0;
#X connect 42 0 41 0;
#X connect 43 0 2 0;
#X connect 44 0 8 0;
#X connect 45 0 5 0;
#X connect 46 0 11 0;
#X connect 47 0 23 0;
#X connect 48 0 19 0;
#X connect 50 0 1 0;
#X connect 51 0 4 0;
#X connect 52 0 7 0;
#X connect 53 0 10 0;
#X connect 54 0 20 0;
#X connect 54 0 21 0;
#X connect 56 0 0 0;
#X connect 57 0 3 0;
#X connect 58 0 6 0;
#X connect 59 0 9 0;
#X coords 0 -1 1 1 180 120 2 100 100;
#X restore 114 16 pd qix-control;
#X obj 57 373 gradient 0 2;
#X obj 67 254 symmetry;
#X floatatom 120 228 5 0 0 0 - - -;
#X connect 1 0 8 1;
#X connect 2 0 15 1;
#X connect 3 0 15 2;
#X connect 4 0 7 0;
#X connect 5 0 7 1;
#X connect 7 0 6 0;
#X connect 7 1 9 0;
#X connect 8 0 0 0;
#X connect 9 0 11 0;
#X connect 10 0 11 1;
#X connect 10 0 11 2;
#X connect 11 0 16 0;
#X connect 12 0 13 1;
#X connect 13 0 15 0;
#X connect 14 0 9 1;
#X connect 15 0 8 0;
#X connect 16 0 13 0;
#X connect 17 0 16 1;
#X restore 405 338 pd qix;
#X obj 32 214 analyze, f 9;
#X obj 73 239 /;
#X floatatom 73 263 4 0 0 1 - - -;
#X obj 20 93 t b b b b, f 80;
#N canvas 781 553 331 321 phase-tunnel 0;
#X obj 11 6 inlet;
#X obj 57 6 inlet;
#X obj 11 54 outlet;
#X obj 11 30 eoshead;
#X obj 65 282 s to-composite;
#X obj 67 251 colorcurves;
#X obj 67 154 phasetunnel;
#X floatatom 158 58 5 0 0 0 - - -;
#X msg 158 82 numcircles \$1;
#X floatatom 160 105 5 0 0 0 - - -;
#X msg 160 129 density \$1;
#X floatatom 148 6 5 0 0 0 - - -;
#X msg 148 30 speed \$1;
#X floatatom 112 191 5 0 0 0 - - -;
#X obj 67 218 scale 1 1;
#X msg 170 179 radiusdir \$1;
#X msg 180 229 fadedir \$1;
#X obj 171 155 tgl 15 0 empty empty empty 17 7 0 10 -262144 -1 -1 0
1;
#X obj 180 207 tgl 15 0 empty empty empty 17 7 0 10 -262144 -1 -1 0
1;
#X connect 0 0 3 0;
#X connect 1 0 3 1;
#X connect 3 0 2 0;
#X connect 3 1 6 0;
#X connect 5 0 4 0;
#X connect 6 0 14 0;
#X connect 7 0 8 0;
#X connect 8 0 6 1;
#X connect 9 0 10 0;
#X connect 10 0 6 1;
#X connect 11 0 12 0;
#X connect 12 0 6 1;
#X connect 13 0 14 1;
#X connect 13 0 14 2;
#X connect 14 0 5 0;
#X connect 15 0 6 1;
#X connect 16 0 6 1;
#X connect 17 0 15 0;
#X connect 18 0 16 0;
#X restore 407 368 pd phase-tunnel;
#X obj 531 368 tgl 15 0 empty empty empty 17 7 0 10 -262144 -1 -1 0
1;
#N canvas 417 595 553 285 triggers 0;
#X obj 11 6 inlet;
#X obj 57 6 inlet;
#X obj 11 54 outlet;
#X obj 11 30 eoshead;
#X obj 412 42 trigger1;
#X obj 412 8 bng 30 250 50 0 empty empty empty 17 7 0 10 -262144 -1
-1;
#X obj 67 93 v time;
#X obj 67 123 triggers;
#X floatatom 94 149 5 0 0 0 - - -;
#X obj 477 8 bng 30 250 50 0 empty empty empty 17 7 0 10 -262144 -1
-1;
#X obj 477 42 trigger2;
#X obj 198 97 v time;
#X obj 198 147 change;
#X obj 198 172 t b;
#X obj 65 232 s to-composite;
#X obj 142 179 tgl 15 0 empty empty empty 17 7 0 10 -262144 -1 -1 0
1;
#X obj 67 201 colorcurves;
#X obj 120 88 bng 30 250 50 0 empty empty RESET 0 16 0 10 -262144 -1
-1;
#X obj 67 60 t b b b, f 45;
#X floatatom 134 149 5 0 0 0 - - -;
#X floatatom 327 96 5 0 0 0 - - -;
#X obj 206 216 bng 30 50 10 0 empty empty empty 17 7 0 10 -262144 -1
-1;
#X obj 197 123 expr int($f1 * $f2);
#X obj 378 215 bng 30 250 50 0 empty empty empty 17 7 0 10 -262144
-1 -1;
#X obj 373 97 v time;
#X obj 373 147 change;
#X floatatom 502 96 5 0 0 0 - - -;
#X obj 372 123 expr int($f1 * $f2);
#X obj 373 172 t b;
#X floatatom 483 210 5 0 0 0 - - -;
#X obj 378 249 fadecircle 1 50;
#X obj 200 250 fadeline 0.5;
#X connect 0 0 3 0;
#X connect 1 0 3 1;
#X connect 3 0 2 0;
#X connect 3 1 18 0;
#X connect 5 0 4 0;
#X connect 6 0 7 0;
#X connect 7 0 16 0;
#X connect 7 1 8 0;
#X connect 7 2 19 0;
#X connect 9 0 10 0;
#X connect 11 0 22 0;
#X connect 12 0 13 0;
#X connect 13 0 31 0;
#X connect 15 0 16 1;
#X connect 16 0 14 0;
#X connect 17 0 7 1;
#X connect 18 0 6 0;
#X connect 18 1 11 0;
#X connect 18 2 24 0;
#X connect 20 0 22 1;
#X connect 21 0 31 0;
#X connect 22 0 12 0;
#X connect 23 0 30 0;
#X connect 24 0 27 0;
#X connect 25 0 28 0;
#X connect 26 0 27 1;
#X connect 27 0 25 0;
#X connect 28 0 30 0;
#X connect 29 0 30 1;
#X restore 405 311 pd triggers;
#X text 109 264 Duty cycle;
#X obj 674 161 tgl 15 0 empty empty empty 17 7 0 10 -262144 -1 -1 0
1;
#N canvas 312 283 339 445 greg-scan 0;
#X obj 10 10 inlet;
#X obj 56 10 inlet;
#X obj 10 58 outlet;
#X obj 10 34 eoshead;
#X obj 74 116 normalize;
#X obj 212 120 render-control;
#X floatatom 119 313 5 0 0 0 - - -;
#X obj 75 409 s to-composite;
#X msg 73 68 -2000 0 255 255 255 2000 0 255 255 255, f 19;
#X obj 75 339 scale 0.5 0.5;
#X floatatom 153 257 5 0 0 0 - - -;
#X obj 75 226 render lines 0 480 0;
#X obj 75 374 render points 8 16 10;
#X obj 74 282 gradient 0 2;
#X connect 0 0 3 0;
#X connect 1 0 3 1;
#X connect 3 0 2 0;
#X connect 3 1 8 0;
#X connect 4 0 11 0;
#X connect 5 0 11 1;
#X connect 6 0 9 1;
#X connect 8 0 4 0;
#X connect 9 0 12 0;
#X connect 10 0 13 2;
#X connect 11 0 13 0;
#X connect 12 0 7 0;
#X connect 13 0 9 0;
#X restore 577 160 pd greg-scan;
#X obj 674 191 tgl 15 0 empty empty empty 17 7 0 10 -262144 -1 -1 0
1;
#N canvas 483 533 322 349 square 0;
#X obj 10 10 inlet;
#X obj 56 10 inlet;
#X obj 10 58 outlet;
#X obj 10 34 eoshead;
#X obj 190 105 render-control;
#X floatatom 99 246 5 0 0 0 - - -;
#X obj 55 312 s to-composite;
#X obj 56 96 xyrgb-file square;
#X obj 55 272 scale 2 2;
#X floatatom 134 136 5 0 0 0 - - -;
#X obj 55 161 gradient 0 2;
#X floatatom 94 136 5 0 0 0 - - -;
#X obj 53 211 render points 4 64 0;
#X connect 0 0 3 0;
#X connect 1 0 3 1;
#X connect 3 0 2 0;
#X connect 3 1 7 0;
#X connect 4 0 12 1;
#X connect 5 0 8 1;
#X connect 7 0 12 0;
#X connect 8 0 6 0;
#X connect 9 0 10 2;
#X connect 11 0 10 1;
#X connect 12 0 8 0;
#X restore 577 190 pd square;
#X obj 668 221 tgl 15 0 empty empty empty 17 7 0 10 -262144 -1 -1 1
1;
#N canvas 668 54 335 624 flocking 1;
#X obj 56 575 s to-composite;
#X obj 11 11 inlet;
#X obj 55 11 inlet;
#X obj 200 407 render-control;
#X obj 56 544 colorcurves;
#X obj 56 424 flocking;
#X obj 111 11 flock-control;
#X obj 56 512 render points 4 64 12;
#X obj 10 58 outlet;
#X obj 10 34 eoshead;
#X connect 1 0 9 0;
#X connect 2 0 9 1;
#X connect 3 0 7 1;
#X connect 4 0 0 0;
#X connect 5 0 7 0;
#X connect 6 0 5 1;
#X connect 7 0 4 0;
#X connect 9 0 8 0;
#X connect 9 1 5 0;
#X restore 579 219 pd flocking;
#N canvas 881 251 460 394 testpatterns 1;
#X obj 10 10 inlet;
#X obj 56 10 inlet;
#X obj 10 58 outlet;
#X obj 10 34 eoshead;
#X obj 190 105 render-control;
#X floatatom 99 246 5 0 0 0 - - -;
#X obj 55 312 s to-composite;
#X obj 55 272 scale 2 2;
#X floatatom 134 136 5 0 0 0 - - -;
#X obj 55 161 gradient 0 2;
#X floatatom 94 136 5 0 0 0 - - -;
#X obj 53 211 render points 4 64 0;
#X obj 64 75 xyrgb-file Logo7_26.ild;
#X connect 0 0 3 0;
#X connect 1 0 3 1;
#X connect 3 0 2 0;
#X connect 3 1 12 0;
#X connect 4 0 11 1;
#X connect 5 0 7 1;
#X connect 5 0 7 2;
#X connect 7 0 6 0;
#X connect 8 0 9 2;
#X connect 10 0 9 1;
#X connect 11 0 7 0;
#X connect 12 0 11 0;
#X restore 577 250 pd testpatterns;
#X obj 691 253 tgl 15 0 empty empty empty 17 7 0 10 -262144 -1 -1 0
1;
#X connect 0 0 10 0;
#X connect 1 0 10 1;
#X connect 4 0 5 0;
#X connect 5 0 6 0;
#X connect 9 0 29 1;
#X connect 10 0 55 0;
#X connect 11 0 22 1;
#X connect 12 0 19 1;
#X connect 13 0 19 0;
#X connect 14 0 13 1;
#X connect 16 0 17 0;
#X connect 17 0 15 0;
#X connect 18 0 36 1;
#X connect 19 0 36 0;
#X connect 20 0 61 0;
#X connect 21 0 35 1;
#X connect 22 0 13 0;
#X connect 23 0 34 1;
#X connect 24 0 25 1;
#X connect 25 0 27 0;
#X connect 26 0 27 1;
#X connect 27 0 37 0;
#X connect 28 0 37 1;
#X connect 29 0 48 0;
#X connect 30 0 31 1;
#X connect 32 0 47 0;
#X connect 33 0 32 1;
#X connect 34 0 25 0;
#X connect 35 0 34 0;
#X connect 36 0 35 0;
#X connect 37 0 31 0;
#X connect 38 0 44 1;
#X connect 39 0 45 1;
#X connect 40 0 43 0;
#X connect 41 0 40 1;
#X connect 42 0 43 1;
#X connect 43 0 58 0;
#X connect 44 0 45 0;
#X connect 45 0 40 0;
#X connect 46 0 47 1;
#X connect 47 0 44 0;
#X connect 48 0 52 0;
#X connect 48 0 5 0;
#X connect 49 0 58 1;
#X connect 50 0 51 1;
#X connect 51 0 56 0;
#X connect 52 2 53 0;
#X connect 52 3 53 1;
#X connect 53 0 54 0;
#X connect 55 0 29 0;
#X connect 55 1 22 0;
#X connect 55 2 32 0;
#X connect 55 3 20 0;
#X connect 57 0 56 1;
#X connect 58 0 51 0;
#X connect 60 0 61 1;
#X connect 61 0 63 0;
#X connect 62 0 63 1;
#X connect 63 0 65 0;
#X connect 64 0 65 1;
#X connect 65 0 66 0;
#X connect 67 0 66 1;
