#N canvas 243 54 874 816 12;
#X text 11 236 agents;
#X msg 404 232 size \$1;
#X floatatom 149 395 8 0 0 0 - - -;
#X floatatom 149 415 8 0 0 0 - - -;
#X floatatom 149 554 8 0 0 0 - - -;
#X floatatom 149 235 5 0 0 0 - #0-size -;
#X floatatom 149 265 8 0 0 0 - - -;
#X floatatom 149 375 8 0 0 0 - - -;
#X msg 409 421 alignment \$1;
#X msg 410 449 separation \$1;
#X msg 419 641 wallavoid \$1;
#X msg 412 394 cohesion \$1;
#X text 11 612 reset;
#X obj 150 612 bng 18 250 50 0 empty empty empty 17 7 0 10 -262144
-1 -1;
#X msg 419 698 init 1;
#X floatatom 149 305 8 0 0 0 - - -;
#X floatatom 149 325 8 0 0 0 - - -;
#X text 12 305 max force;
#X text 12 325 max speed;
#X msg 407 313 maxforce \$1;
#X msg 410 340 maxspeed \$1;
#X text 11 266 visual range;
#X msg 407 263 visualrange \$1;
#X floatatom 149 534 8 0 0 0 - - -;
#X msg 420 611 walldetect \$1;
#X floatatom 149 435 8 0 0 0 - - -;
#X msg 411 479 mindistance \$1;
#X msg 415 513 wander \$1;
#X msg 414 541 wanderfreq \$1;
#X text 12 464 wander force;
#X text 12 484 wander freq;
#X text 12 554 wall avoid force;
#X text 12 376 cohesion force;
#X text 12 395 alignment force;
#X text 12 415 separation force;
#X text 12 534 wall detect dist;
#X floatatom 149 464 8 0 0 0 - - -;
#X floatatom 149 484 8 0 0 0 - - -;
#X floatatom 149 504 8 0 0 0 - - -;
#X msg 418 673 optbeampath \$1;
#X obj 150 584 tgl 17 0 empty empty empty 17 7 0 10 -262144 -1 -1 0
1;
#X text 12 582 beam path optimize;
#X text 12 435 separation dist;
#X text 12 504 wander magnitude;
#X msg 414 571 wandermag \$1;
#X floatatom 149 285 8 0 0 0 - - -;
#X text 11 286 visual fov;
#X msg 407 287 agentfov \$1;
#X floatatom 149 345 8 0 0 0 - - -;
#X msg 410 365 friction \$1;
#X text 12 345 friction;
#X obj 18 155 preset-library flock;
#X obj 373 764 outlet;
#X obj 342 732 t a a;
#X msg 627 767 0.5;
#X msg 623 424 30;
#X obj 596 397 t b;
#X msg 627 453 0.2;
#X msg 627 496 0.16;
#X msg 628 519 0.4;
#X msg 625 566 2.33;
#X msg 626 589 1.5;
#X msg 626 614 3.2;
#X msg 625 637 0.06;
#X msg 626 667 24;
#X msg 626 692 1.5;
#X msg 625 715 6;
#X msg 627 742 0.2;
#X msg 627 473 270;
#X msg 628 539 0.01;
#X obj 206 135 route size visualrange agentfov maxforce maxspeed friction
cohesion alignment separation mindistance wander wanderfreq wandermag
walldetect wallavoid, f 32;
#X obj 573 226 print SIZE;
#X obj 693 226 print COLOR;
#X msg 599 37 size \$1;
#X floatatom 593 7 5 0 0 0 - - -;
#X msg 689 37 color \$1;
#X floatatom 688 8 5 0 0 0 - - -;
#X floatatom 680 375 5 0 0 0 - - -;
#X obj 681 410 s \$0-size;
#X obj 599 91 dispatch-send \$0;
#X obj 599 127 send, f 16;
#X obj 577 180 receive \$0-size;
#X obj 697 180 receive \$0-color;
#X connect 1 0 53 0;
#X connect 2 0 8 0;
#X connect 3 0 9 0;
#X connect 4 0 10 0;
#X connect 5 0 1 0;
#X connect 6 0 22 0;
#X connect 7 0 11 0;
#X connect 8 0 53 0;
#X connect 9 0 53 0;
#X connect 10 0 53 0;
#X connect 11 0 53 0;
#X connect 13 0 14 0;
#X connect 14 0 53 0;
#X connect 15 0 19 0;
#X connect 16 0 20 0;
#X connect 19 0 53 0;
#X connect 20 0 53 0;
#X connect 22 0 53 0;
#X connect 23 0 24 0;
#X connect 24 0 53 0;
#X connect 25 0 26 0;
#X connect 26 0 53 0;
#X connect 27 0 53 0;
#X connect 28 0 53 0;
#X connect 36 0 27 0;
#X connect 37 0 28 0;
#X connect 38 0 44 0;
#X connect 39 0 53 0;
#X connect 40 0 39 0;
#X connect 44 0 53 0;
#X connect 45 0 47 0;
#X connect 47 0 53 0;
#X connect 48 0 49 0;
#X connect 49 0 53 0;
#X connect 51 0 70 0;
#X connect 51 1 6 0;
#X connect 51 1 45 0;
#X connect 51 1 15 0;
#X connect 51 1 16 0;
#X connect 51 1 48 0;
#X connect 51 1 7 0;
#X connect 51 1 2 0;
#X connect 51 1 3 0;
#X connect 51 1 25 0;
#X connect 51 1 36 0;
#X connect 51 1 37 0;
#X connect 51 1 38 0;
#X connect 51 1 23 0;
#X connect 51 1 4 0;
#X connect 53 0 51 0;
#X connect 53 1 52 0;
#X connect 56 0 55 0;
#X connect 56 0 57 0;
#X connect 56 0 60 0;
#X connect 56 0 61 0;
#X connect 56 0 62 0;
#X connect 56 0 67 0;
#X connect 56 0 58 0;
#X connect 56 0 59 0;
#X connect 56 0 54 0;
#X connect 56 0 63 0;
#X connect 56 0 64 0;
#X connect 56 0 65 0;
#X connect 56 0 66 0;
#X connect 56 0 68 0;
#X connect 56 0 69 0;
#X connect 70 1 6 0;
#X connect 70 2 45 0;
#X connect 70 3 15 0;
#X connect 70 4 16 0;
#X connect 70 5 48 0;
#X connect 70 6 7 0;
#X connect 70 7 2 0;
#X connect 70 8 3 0;
#X connect 70 9 25 0;
#X connect 70 10 36 0;
#X connect 70 11 37 0;
#X connect 70 12 38 0;
#X connect 70 13 23 0;
#X connect 70 14 4 0;
#X connect 73 0 79 0;
#X connect 74 0 73 0;
#X connect 75 0 79 0;
#X connect 76 0 75 0;
#X connect 77 0 78 0;
#X connect 79 0 80 0;
#X connect 79 1 80 1;
#X connect 81 0 71 0;
#X connect 82 0 72 0;
#X coords 0 -1 1 1 200 490 2 10 150;
