#N canvas 505 379 666 449 12;
#X obj 256 373 outlet;
#X text 11 16 agents;
#X text 12 75 alignment;
#X text 12 95 separation;
#X msg 285 45 size \$1;
#X floatatom 119 75 8 0 0 0 - - -;
#X floatatom 119 95 8 0 0 0 - - -;
#X floatatom 119 155 8 0 0 0 - - -;
#X floatatom 119 15 5 0 0 0 - - -;
#X floatatom 119 35 5 0 0 0 - - -;
#X floatatom 119 55 8 0 0 0 - - -;
#X msg 285 135 alignment \$1;
#X msg 285 165 separation \$1;
#X msg 285 255 wallavoid \$1;
#X obj 273 7 loadbang;
#X msg 206 36 0.5;
#X msg 208 83 0.5;
#X text 12 56 cohesion;
#X msg 285 105 cohesion \$1;
#X msg 207 60 0.1;
#X msg 210 108 1.5;
#X msg 209 151 0.5;
#X text 12 215 reset;
#X obj 119 217 bng 18 250 50 0 empty empty empty 17 7 0 10 -262144
-1 -1;
#X msg 285 342 init 1;
#X floatatom 119 175 8 0 0 0 - - -;
#X floatatom 119 195 8 0 0 0 - - -;
#X text 12 175 max force;
#X text 12 195 max speed;
#X msg 285 285 maxforce \$1;
#X msg 285 315 maxspeed \$1;
#X msg 209 201 0.1;
#X msg 210 224 0.3;
#X text 11 36 visual range;
#X msg 285 75 visualrange \$1;
#X text 12 155 wall avoid;
#X floatatom 119 135 8 0 0 0 - - -;
#X text 12 135 wall detect;
#X msg 286 225 walldetect \$1;
#X msg 209 176 0.5;
#X msg 205 13 21;
#X floatatom 119 115 8 0 0 0 - - -;
#X msg 205 131 0.1;
#X text 12 115 min distance;
#X msg 286 195 mindistance \$1;
#X connect 4 0 0 0;
#X connect 5 0 11 0;
#X connect 6 0 12 0;
#X connect 7 0 13 0;
#X connect 8 0 4 0;
#X connect 9 0 34 0;
#X connect 10 0 18 0;
#X connect 11 0 0 0;
#X connect 12 0 0 0;
#X connect 13 0 0 0;
#X connect 14 0 40 0;
#X connect 14 0 15 0;
#X connect 14 0 19 0;
#X connect 14 0 16 0;
#X connect 14 0 20 0;
#X connect 14 0 21 0;
#X connect 14 0 31 0;
#X connect 14 0 32 0;
#X connect 14 0 39 0;
#X connect 14 0 42 0;
#X connect 15 0 9 0;
#X connect 16 0 5 0;
#X connect 18 0 0 0;
#X connect 19 0 10 0;
#X connect 20 0 6 0;
#X connect 21 0 36 0;
#X connect 23 0 24 0;
#X connect 24 0 0 0;
#X connect 25 0 29 0;
#X connect 26 0 30 0;
#X connect 29 0 0 0;
#X connect 30 0 0 0;
#X connect 31 0 25 0;
#X connect 32 0 26 0;
#X connect 34 0 0 0;
#X connect 36 0 38 0;
#X connect 38 0 0 0;
#X connect 39 0 7 0;
#X connect 40 0 8 0;
#X connect 41 0 44 0;
#X connect 42 0 41 0;
#X connect 44 0 0 0;
#X coords 0 -1 1 1 170 230 2 10 10;
