#N canvas 907 63 449 744 12;
#X text 11 106 agents;
#X msg 270 151 size \$1;
#X floatatom 149 265 8 0 0 0 - #0-alignment -;
#X floatatom 149 285 8 0 0 0 - #0-separation -;
#X floatatom 149 424 8 0 0 0 - #0-wallavoid -;
#X floatatom 149 105 5 0 0 0 - #0-size -;
#X floatatom 149 135 8 0 0 0 - #0-visualrange -;
#X floatatom 149 245 8 0 0 0 - #0-cohesion -;
#X msg 275 340 alignment \$1;
#X msg 276 368 separation \$1;
#X msg 285 560 wallavoid \$1;
#X msg 278 313 cohesion \$1;
#X text 11 482 reset;
#X obj 150 482 bng 18 250 50 0 empty empty empty 17 7 0 10 -262144
-1 -1;
#X msg 285 617 init 1;
#X floatatom 149 175 8 0 0 0 - #0-maxforce -;
#X floatatom 149 195 8 0 0 0 - #0-maxspeed -;
#X text 12 175 max force;
#X text 12 195 max speed;
#X msg 273 232 maxforce \$1;
#X msg 276 259 maxspeed \$1;
#X text 11 136 visual range;
#X msg 273 182 visualrange \$1;
#X floatatom 149 404 8 0 0 0 - #0-walldetect -;
#X msg 286 530 walldetect \$1;
#X floatatom 149 305 8 0 0 0 - #0-mindistance -;
#X msg 277 398 mindistance \$1;
#X msg 281 432 wander \$1;
#X msg 280 460 wanderfreq \$1;
#X text 12 334 wander force;
#X text 12 354 wander freq;
#X text 12 424 wall avoid force;
#X text 12 246 cohesion force;
#X text 12 265 alignment force;
#X text 12 285 separation force;
#X text 12 404 wall detect dist;
#X floatatom 149 334 8 0 0 0 - #0-wander -;
#X floatatom 149 354 8 0 0 0 - #0-wanderfreq -;
#X floatatom 149 374 8 0 0 0 - #0-wandermag -;
#X msg 284 592 optbeampath \$1;
#X obj 150 454 tgl 17 0 empty empty empty 17 7 0 10 -262144 -1 -1 1
1;
#X text 12 452 beam path optimize;
#X text 12 305 separation dist;
#X text 12 374 wander magnitude;
#X msg 280 490 wandermag \$1;
#X floatatom 149 155 8 0 0 0 - #0-agentfov -;
#X text 11 156 visual fov;
#X msg 273 206 agentfov \$1;
#X floatatom 149 215 8 0 0 0 - #0-friction -;
#X msg 276 284 friction \$1;
#X text 12 215 friction;
#X obj 14 55 preset-library flock;
#X obj 317 683 outlet;
#X obj 208 651 t a a, f 16;
#X obj 267 101 dispatch-send \$0;
#X obj 267 128 send, f 16;
#X obj 14 23 r \$0-preset-in;
#X obj 208 683 s \$0-preset-in;
#X connect 1 0 53 0;
#X connect 2 0 8 0;
#X connect 3 0 9 0;
#X connect 4 0 10 0;
#X connect 5 0 1 0;
#X connect 6 0 22 0;
#X connect 7 0 11 0;
#X connect 8 0 53 0;
#X connect 9 0 53 0;
#X connect 10 0 53 0;
#X connect 11 0 53 0;
#X connect 13 0 14 0;
#X connect 14 0 53 0;
#X connect 15 0 19 0;
#X connect 16 0 20 0;
#X connect 19 0 53 0;
#X connect 20 0 53 0;
#X connect 22 0 53 0;
#X connect 23 0 24 0;
#X connect 24 0 53 0;
#X connect 25 0 26 0;
#X connect 26 0 53 0;
#X connect 27 0 53 0;
#X connect 28 0 53 0;
#X connect 36 0 27 0;
#X connect 37 0 28 0;
#X connect 38 0 44 0;
#X connect 39 0 53 0;
#X connect 40 0 39 0;
#X connect 44 0 53 0;
#X connect 45 0 47 0;
#X connect 47 0 53 0;
#X connect 48 0 49 0;
#X connect 49 0 53 0;
#X connect 51 0 54 0;
#X connect 53 0 57 0;
#X connect 53 1 52 0;
#X connect 54 0 55 0;
#X connect 54 1 55 1;
#X connect 56 0 51 0;
#X coords 0 -1 1 1 200 454 2 10 50;
