#N canvas 505 379 580 367 12;
#X obj 256 343 outlet;
#X text 11 16 agents;
#X text 11 36 range;
#X text 12 75 alignment;
#X text 12 95 separation;
#X text 12 115 wall avoidance;
#X msg 285 45 size \$1;
#X floatatom 119 75 8 0 0 0 - - -;
#X floatatom 119 95 8 0 0 0 - - -;
#X floatatom 119 115 8 0 0 0 - - -;
#X floatatom 119 15 5 0 0 0 - - -;
#X floatatom 119 35 5 0 0 0 - - -;
#X floatatom 119 55 8 0 0 0 - - -;
#X msg 285 75 range \$1;
#X msg 285 135 alignment \$1;
#X msg 285 165 separation \$1;
#X msg 285 195 wallavoid \$1;
#X floatatom 119 135 8 0 0 0 - - -;
#X text 12 135 center;
#X msg 285 225 centerattract \$1;
#X obj 273 7 loadbang;
#X msg 205 13 10;
#X msg 206 36 0.5;
#X msg 208 83 0.5;
#X text 12 56 cohesion;
#X msg 285 105 cohesion \$1;
#X msg 207 60 0.1;
#X msg 208 107 1.5;
#X msg 209 131 0.5;
#X msg 210 154 2;
#X text 12 195 reset;
#X obj 119 197 bng 18 250 50 0 empty empty empty 17 7 0 10 -262144
-1 -1;
#X msg 285 312 init 1;
#X floatatom 119 155 8 0 0 0 - - -;
#X floatatom 119 175 8 0 0 0 - - -;
#X text 12 155 max force;
#X text 12 175 max speed;
#X msg 285 255 maxforce \$1;
#X msg 285 285 maxspeed \$1;
#X msg 209 181 0.1;
#X msg 210 204 0.3;
#X connect 6 0 0 0;
#X connect 7 0 14 0;
#X connect 8 0 15 0;
#X connect 9 0 16 0;
#X connect 10 0 6 0;
#X connect 11 0 13 0;
#X connect 12 0 25 0;
#X connect 13 0 0 0;
#X connect 14 0 0 0;
#X connect 15 0 0 0;
#X connect 16 0 0 0;
#X connect 17 0 19 0;
#X connect 19 0 0 0;
#X connect 20 0 21 0;
#X connect 20 0 22 0;
#X connect 20 0 26 0;
#X connect 20 0 23 0;
#X connect 20 0 27 0;
#X connect 20 0 28 0;
#X connect 20 0 29 0;
#X connect 20 0 39 0;
#X connect 20 0 40 0;
#X connect 21 0 10 0;
#X connect 22 0 11 0;
#X connect 23 0 7 0;
#X connect 25 0 0 0;
#X connect 26 0 12 0;
#X connect 27 0 8 0;
#X connect 28 0 9 0;
#X connect 29 0 17 0;
#X connect 31 0 32 0;
#X connect 32 0 0 0;
#X connect 33 0 37 0;
#X connect 34 0 38 0;
#X connect 37 0 0 0;
#X connect 38 0 0 0;
#X connect 39 0 33 0;
#X connect 40 0 34 0;
#X coords 0 -1 1 1 170 210 2 10 10;
