#N canvas 778 287 597 594 12;
#X obj 390 529 outlet;
#X text 11 56 agents;
#X msg 390 45 size \$1;
#X floatatom 149 195 8 0 0 0 - - -;
#X floatatom 149 215 8 0 0 0 - - -;
#X floatatom 149 354 8 0 0 0 - - -;
#X floatatom 149 55 5 0 0 0 - - -;
#X floatatom 149 85 8 0 0 0 - - -;
#X floatatom 149 175 8 0 0 0 - - -;
#X msg 409 221 alignment \$1;
#X msg 410 249 separation \$1;
#X msg 419 441 wallavoid \$1;
#X msg 412 194 cohesion \$1;
#X text 11 412 reset;
#X obj 150 412 bng 18 250 50 0 empty empty empty 17 7 0 10 -262144
-1 -1;
#X msg 419 498 init 1;
#X floatatom 149 125 8 0 0 0 - - -;
#X floatatom 149 145 8 0 0 0 - - -;
#X text 12 125 max force;
#X text 12 145 max speed;
#X msg 407 133 maxforce \$1;
#X msg 410 160 maxspeed \$1;
#X text 11 86 visual range;
#X msg 407 83 visualrange \$1;
#X floatatom 149 334 8 0 0 0 - - -;
#X msg 420 411 walldetect \$1;
#X msg 313 380 0.5;
#X floatatom 149 235 8 0 0 0 - - -;
#X msg 411 279 mindistance \$1;
#X msg 309 57 30;
#X msg 415 313 wander \$1;
#X msg 414 341 wanderfreq \$1;
#X text 12 264 wander force;
#X text 12 284 wander freq;
#X text 12 354 wall avoid force;
#X text 12 176 cohesion force;
#X text 12 195 alignment force;
#X text 12 215 separation force;
#X text 12 334 wall detect dist;
#X floatatom 149 264 8 0 0 0 - - -;
#X floatatom 149 284 8 0 0 0 - - -;
#X floatatom 149 304 8 0 0 0 - - -;
#X obj 216 14 t b;
#X obj 313 11 loadbang;
#X msg 418 473 optbeampath \$1;
#X obj 150 384 tgl 17 0 empty empty empty 17 7 0 10 -262144 -1 -1 1
1;
#X text 12 382 beam path optimize;
#X text 12 235 separation dist;
#X text 12 304 wander magnitude;
#X msg 414 371 wandermag \$1;
#X msg 313 86 0.2;
#X msg 313 129 0.16;
#X msg 314 152 0.4;
#X msg 311 179 2.33;
#X msg 312 202 1.5;
#X msg 312 227 3.2;
#X msg 311 250 0.06;
#X msg 312 280 24;
#X msg 312 305 1.5;
#X msg 311 328 6;
#X msg 313 355 0.2;
#X floatatom 149 105 8 0 0 0 - - -;
#X text 11 106 visual fov;
#X msg 313 106 270;
#X msg 407 107 agentfov \$1;
#X connect 2 0 0 0;
#X connect 3 0 9 0;
#X connect 4 0 10 0;
#X connect 5 0 11 0;
#X connect 6 0 2 0;
#X connect 7 0 23 0;
#X connect 8 0 12 0;
#X connect 9 0 0 0;
#X connect 10 0 0 0;
#X connect 11 0 0 0;
#X connect 12 0 0 0;
#X connect 14 0 15 0;
#X connect 15 0 0 0;
#X connect 16 0 20 0;
#X connect 17 0 21 0;
#X connect 20 0 0 0;
#X connect 21 0 0 0;
#X connect 23 0 0 0;
#X connect 24 0 25 0;
#X connect 25 0 0 0;
#X connect 26 0 5 0;
#X connect 27 0 28 0;
#X connect 28 0 0 0;
#X connect 29 0 6 0;
#X connect 30 0 0 0;
#X connect 31 0 0 0;
#X connect 39 0 30 0;
#X connect 40 0 31 0;
#X connect 41 0 49 0;
#X connect 42 0 29 0;
#X connect 42 0 50 0;
#X connect 42 0 53 0;
#X connect 42 0 54 0;
#X connect 42 0 55 0;
#X connect 42 0 60 0;
#X connect 42 0 51 0;
#X connect 42 0 52 0;
#X connect 42 0 26 0;
#X connect 42 0 56 0;
#X connect 42 0 57 0;
#X connect 42 0 58 0;
#X connect 42 0 59 0;
#X connect 42 0 63 0;
#X connect 43 0 42 0;
#X connect 44 0 0 0;
#X connect 45 0 44 0;
#X connect 49 0 0 0;
#X connect 50 0 7 0;
#X connect 51 0 16 0;
#X connect 52 0 17 0;
#X connect 53 0 8 0;
#X connect 54 0 3 0;
#X connect 55 0 4 0;
#X connect 56 0 27 0;
#X connect 57 0 39 0;
#X connect 58 0 40 0;
#X connect 59 0 41 0;
#X connect 60 0 24 0;
#X connect 61 0 64 0;
#X connect 63 0 61 0;
#X connect 64 0 0 0;
#X coords 0 -1 1 1 200 390 2 10 50;
