#N canvas 667 75 740 588 12;
#X obj 100 344 inlet;
#X obj 342 47 loadbang;
#X obj 30 372 presets \$1;
#X obj 30 427 outlet;
#X obj 30 283 openpanel;
#X obj 105 283 savepanel;
#X msg 30 308 load \$1;
#X msg 105 308 save \$1;
#X msg 178 308 prev;
#X msg 228 308 next;
#X text 143 345 param msg in;
#X text 24 447 param msg out;
#X msg 100 401 set \$1;
#X symbolatom 30 102 24 0 0 0 - - -;
#X obj 419 109 symbol \$1;
#X symbolatom 412 255 40 0 0 0 - - -;
#X obj 136 255 outlet;
#X text 182 256 save sync bang;
#X obj 495 136 pdcontrol;
#X msg 495 110 dir;
#X obj 495 214 makefilename;
#X msg 495 188 set \$1;
#X obj 30 197 symbol;
#X obj 495 162 makefilename %s/presets/%%s;
#X obj 104 197 symbol;
#X obj 104 224 t s b;
#X obj 100 427 s \$0-preset-name;
#X obj 30 70 r \$0-preset-name;
#X obj 30 125 vsl 40 16 0 0 0 0 empty empty Load 4 10 0 14 -262144
-262144 -66577 0 1;
#X obj 73 125 vsl 40 16 0 0 0 0 empty empty Save 4 10 0 14 -262144
-262144 -66577 0 1;
#X obj 116 125 vsl 40 16 0 0 0 0 empty empty Prev 4 10 0 14 -262144
-262144 -66577 0 1;
#X obj 159 125 vsl 40 16 0 0 0 0 empty empty Next 4 10 0 14 -262144
-262144 -66577 0 1;
#X obj 30 151 t b;
#X obj 70 151 t b;
#X obj 178 151 t b;
#X obj 228 151 t b;
#X obj 227 179 debounce 100;
#X obj 344 370 t b;
#X obj 343 430 t b;
#X msg 340 402 color #ffffff #ffffff #404040;
#X msg 342 459 color #ffffff #ffffff #a00000;
#X obj 344 109 pipe 1000;
#X obj 344 78 t b b b, f 22;
#X connect 0 0 2 1;
#X connect 0 0 38 0;
#X connect 1 0 42 0;
#X connect 2 0 3 0;
#X connect 2 1 12 0;
#X connect 4 0 6 0;
#X connect 5 0 7 0;
#X connect 6 0 2 0;
#X connect 6 0 37 0;
#X connect 7 0 2 0;
#X connect 7 0 37 0;
#X connect 8 0 2 0;
#X connect 8 0 37 0;
#X connect 9 0 2 0;
#X connect 9 0 37 0;
#X connect 12 0 26 0;
#X connect 14 0 20 0;
#X connect 18 0 23 0;
#X connect 19 0 18 0;
#X connect 20 0 22 1;
#X connect 20 0 15 0;
#X connect 20 0 24 1;
#X connect 21 0 20 0;
#X connect 22 0 4 0;
#X connect 23 0 21 0;
#X connect 24 0 25 0;
#X connect 25 0 5 0;
#X connect 25 1 16 0;
#X connect 27 0 13 0;
#X connect 28 0 32 0;
#X connect 29 0 33 0;
#X connect 30 0 34 0;
#X connect 31 0 35 0;
#X connect 32 0 22 0;
#X connect 33 0 24 0;
#X connect 34 0 8 0;
#X connect 35 0 36 0;
#X connect 36 0 9 0;
#X connect 37 0 39 0;
#X connect 38 0 40 0;
#X connect 39 0 29 0;
#X connect 40 0 29 0;
#X connect 41 0 37 0;
#X connect 42 0 41 0;
#X connect 42 1 14 0;
#X connect 42 2 19 0;
#X coords 0 -1 1 1 174 46 2 28 100;
