#N canvas 213 328 598 526 12;
#X obj 189 362 inlet;
#X obj 256 9 loadbang;
#X obj 100 390 presets \$1;
#X obj 100 463 outlet;
#X obj 106 106 bng 32 250 50 0 empty empty Load 2 15 0 12 -262144 -1
-1;
#X obj 146 106 bng 32 250 50 0 empty empty Save 2 15 0 12 -262144 -1
-1;
#X obj 186 106 bng 32 250 50 0 empty empty Prev 2 15 0 12 -262144 -1
-1;
#X obj 226 106 bng 32 250 50 0 empty empty Next 2 15 0 12 -262144 -1
-1;
#X obj 106 272 openpanel;
#X obj 178 272 savepanel;
#X msg 106 297 load \$1;
#X msg 178 297 save \$1;
#X msg 251 297 prev;
#X msg 301 297 next;
#X text 232 363 param msg in;
#X text 94 483 param msg out;
#X msg 146 437 set \$1;
#X text 169 417 preset name;
#X obj 260 419 print PRESETNAME;
#X symbolatom 106 145 21 0 0 0 - - -;
#X obj 258 68 symbol \$1;
#X symbolatom 296 217 40 0 0 0 - - -;
#X obj 262 464 outlet;
#X text 256 484 save sync bang;
#X obj 339 98 pdcontrol;
#X msg 339 72 dir;
#X obj 339 176 makefilename;
#X msg 339 150 set \$1;
#X obj 258 40 t b b, f 12;
#X obj 106 207 symbol;
#X obj 339 124 makefilename %s/presets/%%s;
#X obj 179 209 symbol;
#X obj 177 243 t s b;
#X connect 0 0 2 1;
#X connect 1 0 28 0;
#X connect 2 0 3 0;
#X connect 2 1 16 0;
#X connect 2 1 18 0;
#X connect 4 0 29 0;
#X connect 5 0 31 0;
#X connect 6 0 12 0;
#X connect 7 0 13 0;
#X connect 8 0 10 0;
#X connect 9 0 11 0;
#X connect 10 0 2 0;
#X connect 11 0 2 0;
#X connect 12 0 2 0;
#X connect 13 0 2 0;
#X connect 16 0 19 0;
#X connect 20 0 26 0;
#X connect 24 0 30 0;
#X connect 25 0 24 0;
#X connect 26 0 29 1;
#X connect 26 0 21 0;
#X connect 26 0 31 1;
#X connect 27 0 26 0;
#X connect 28 0 20 0;
#X connect 28 1 25 0;
#X connect 29 0 8 0;
#X connect 30 0 27 0;
#X connect 31 0 32 0;
#X connect 32 0 9 0;
#X connect 32 1 22 0;
#X coords 0 -1 1 1 162 70 2 100 100;
