#N canvas 313 266 740 588 12;
#X obj 100 364 inlet;
#X obj 403 7 loadbang;
#X obj 33 392 presets \$1;
#X obj 33 464 outlet;
#X obj 185 40 bng 32 250 50 0 empty empty Load 2 15 0 12 -262144 -1
-1;
#X obj 225 40 bng 32 250 50 0 empty empty Save 2 15 0 12 -262144 -1
-1;
#X obj 265 40 bng 32 250 50 0 empty empty Prev 2 15 0 12 -262144 -1
-1;
#X obj 305 40 bng 32 250 50 0 empty empty Next 2 15 0 12 -262144 -1
-1;
#X obj 33 303 openpanel;
#X obj 105 303 savepanel;
#X msg 33 328 load \$1;
#X msg 105 328 save \$1;
#X msg 178 328 prev;
#X msg 228 328 next;
#X text 143 365 param msg in;
#X text 27 484 param msg out;
#X msg 100 421 set \$1;
#X symbolatom 30 102 24 0 0 0 - - -;
#X obj 405 66 symbol \$1;
#X symbolatom 443 215 40 0 0 0 - - -;
#X obj 136 275 outlet;
#X text 182 276 save sync bang;
#X obj 486 96 pdcontrol;
#X msg 486 70 dir;
#X obj 486 174 makefilename;
#X msg 486 148 set \$1;
#X obj 405 38 t b b, f 12;
#X obj 33 208 symbol;
#X obj 486 122 makefilename %s/presets/%%s;
#X obj 106 210 symbol;
#X obj 104 244 t s b;
#X obj 100 447 s \$0-preset-name;
#X obj 22 77 r \$0-preset-name;
#X obj 30 125 vsl 40 16 0 0 0 0 empty empty Load 4 10 0 14 -262144
-262144 -66577 0 1;
#X obj 73 125 vsl 40 16 0 0 0 0 empty empty Save 4 10 0 14 -262144
-262144 -66577 0 1;
#X obj 116 125 vsl 40 16 0 0 0 0 empty empty Prev 4 10 0 14 -262144
-262144 -66577 0 1;
#X obj 159 125 vsl 40 16 0 0 0 0 empty empty Next 4 10 0 14 -262144
-262144 -66577 600 1;
#X obj 30 151 t b;
#X obj 70 151 t b;
#X obj 178 151 t b;
#X obj 228 151 t b;
#X obj 227 179 debounce 100;
#X connect 0 0 2 1;
#X connect 1 0 26 0;
#X connect 2 0 3 0;
#X connect 2 1 16 0;
#X connect 8 0 10 0;
#X connect 9 0 11 0;
#X connect 10 0 2 0;
#X connect 11 0 2 0;
#X connect 12 0 2 0;
#X connect 13 0 2 0;
#X connect 16 0 31 0;
#X connect 18 0 24 0;
#X connect 22 0 28 0;
#X connect 23 0 22 0;
#X connect 24 0 27 1;
#X connect 24 0 19 0;
#X connect 24 0 29 1;
#X connect 25 0 24 0;
#X connect 26 0 18 0;
#X connect 26 1 23 0;
#X connect 27 0 8 0;
#X connect 28 0 25 0;
#X connect 29 0 30 0;
#X connect 30 0 9 0;
#X connect 30 1 20 0;
#X connect 32 0 17 0;
#X connect 33 0 37 0;
#X connect 34 0 38 0;
#X connect 35 0 39 0;
#X connect 36 0 40 0;
#X connect 37 0 27 0;
#X connect 38 0 29 0;
#X connect 39 0 12 0;
#X connect 40 0 41 0;
#X connect 41 0 13 0;
#X coords 0 -1 1 1 174 46 2 28 100;
