#N canvas 213 328 564 521 12;
#X obj 189 292 inlet;
#X obj 382 34 loadbang;
#X obj 100 320 presets \$1;
#X obj 100 393 outlet;
#X obj 106 106 bng 32 250 50 0 empty empty Load 2 15 0 12 -262144 -1
-1;
#X obj 146 106 bng 32 250 50 0 empty empty Save 2 15 0 12 -262144 -1
-1;
#X obj 186 106 bng 32 250 50 0 empty empty Prev 2 15 0 12 -262144 -1
-1;
#X obj 226 106 bng 32 250 50 0 empty empty Next 2 15 0 12 -262144 -1
-1;
#X obj 106 202 openpanel;
#X obj 178 202 savepanel;
#X msg 106 227 load \$1;
#X msg 178 227 save \$1;
#X msg 251 227 prev;
#X msg 301 227 next;
#X text 232 293 param msg in;
#X text 94 413 param msg out;
#X msg 146 367 set \$1;
#X text 169 347 preset name;
#X obj 260 349 print PRESETNAME;
#X symbolatom 106 145 21 0 0 0 - - -;
#X obj 385 81 symbol \$1;
#X obj 386 207 print MAKEFILENAME;
#X obj 513 40 bng 15 250 50 0 empty empty empty 17 7 0 10 -262144 -1
-1;
#X msg 388 112 symbol \$1;
#X symbolatom 386 175 20 0 0 0 - - -;
#X obj 387 146 makefilename params/%s;
#X obj 262 394 outlet;
#X text 256 414 save sync bang;
#X obj 177 173 t b b;
#X connect 0 0 2 1;
#X connect 1 0 20 0;
#X connect 2 0 3 0;
#X connect 2 1 16 0;
#X connect 2 1 18 0;
#X connect 4 0 8 0;
#X connect 5 0 28 0;
#X connect 6 0 12 0;
#X connect 7 0 13 0;
#X connect 8 0 10 0;
#X connect 9 0 11 0;
#X connect 10 0 2 0;
#X connect 11 0 2 0;
#X connect 12 0 2 0;
#X connect 13 0 2 0;
#X connect 16 0 19 0;
#X connect 20 0 23 0;
#X connect 22 0 20 0;
#X connect 23 0 25 0;
#X connect 24 0 21 0;
#X connect 25 0 24 0;
#X connect 28 0 9 0;
#X connect 28 1 26 0;
#X coords 0 -1 1 1 162 70 2 100 100;
