#N canvas 0 54 661 561 12;
#X floatatom 148 115 7 0 0 0 - #0-x1freq -;
#X floatatom 202 115 5 0 0 0 - #0-x1amp -;
#X floatatom 240 115 5 0 0 0 - #0-x1phase -;
#X floatatom 148 134 7 0 0 0 - #0-y1freq -;
#X floatatom 202 134 5 0 0 0 - #0-y1amp -;
#X floatatom 240 134 5 0 0 0 - #0-y1phase -;
#X floatatom 148 153 7 0 0 0 - #0-x2freq -;
#X floatatom 202 153 5 0 0 0 - #0-x2amp -;
#X floatatom 240 153 5 0 0 0 - #0-x2phase -;
#X floatatom 148 172 7 0 0 0 - #0-y2freq -;
#X floatatom 202 172 5 0 0 0 - #0-y2amp -;
#X floatatom 240 172 5 0 0 0 - #0-y2phase -;
#X text 146 95 Freq;
#X text 200 95 Amp;
#X text 238 95 Phase;
#X text 126 114 X1;
#X text 126 134 Y1;
#X text 126 153 X2;
#X text 126 172 Y2;
#X floatatom 239 75 5 0 0 0 - #0-npoints -;
#X obj 107 126 tgl 15 0 empty empty empty 17 7 0 10 -262144 -1 -1 0
1;
#X obj 107 164 tgl 15 0 empty empty empty 17 7 0 10 -262144 -1 -1 0
1;
#X msg 336 161 x1freq \$1;
#X obj 20 368 spigot;
#X obj 20 422 spigot;
#X obj 21 478 spigot;
#X obj 161 369 spigot;
#X obj 160 424 spigot;
#X obj 161 479 spigot;
#X msg 346 187 x1amp \$1;
#X msg 356 213 x1phase \$1;
#X msg 336 241 y1freq \$1;
#X msg 346 267 y1amp \$1;
#X msg 356 293 y1phase \$1;
#X msg 336 321 x2freq \$1;
#X msg 346 347 x2amp \$1;
#X msg 356 373 x2phase \$1;
#X msg 336 401 y2freq \$1;
#X msg 346 427 y2amp \$1;
#X msg 356 453 y2phase \$1;
#X msg 332 130 npoints \$1;
#X text 102 74 QIX;
#X text 191 75 Lines;
#X obj 103 23 preset-library qix;
#X obj 313 482 t a a, f 16;
#X obj 422 513 outlet;
#X obj 313 513 s \$0-preset-in;
#X obj 105 5 r \$0-preset-in;
#X obj 327 73 dispatch-send \$0;
#X obj 327 100 send, f 16;
#X msg 590 374 0;
#X msg 590 434 0;
#X msg 590 398 0.25;
#X msg 590 458 0.25;
#X msg 550 374 1;
#X msg 550 398 1;
#X msg 550 434 1;
#X msg 550 458 1;
#X msg 510 374 0.78;
#X msg 510 398 0.82;
#X msg 510 434 0.86;
#X msg 510 458 0.77;
#X obj 20 395 s \$0-y1freq;
#X obj 20 448 s \$0-y1amp;
#X obj 21 504 s \$0-y1phase;
#X obj 104 239 s \$0-chain1;
#X obj 67 333 r \$0-chain1;
#X obj 103 264 s \$0-chain2;
#X obj 208 333 r \$0-chain2;
#X obj 160 395 s \$0-y2freq;
#X obj 160 448 s \$0-y2amp;
#X obj 161 504 s \$0-y2phase;
#X connect 0 0 22 0;
#X connect 0 0 23 0;
#X connect 1 0 24 0;
#X connect 1 0 29 0;
#X connect 2 0 25 0;
#X connect 2 0 30 0;
#X connect 3 0 31 0;
#X connect 4 0 32 0;
#X connect 5 0 33 0;
#X connect 6 0 26 0;
#X connect 6 0 34 0;
#X connect 7 0 27 0;
#X connect 7 0 35 0;
#X connect 8 0 28 0;
#X connect 8 0 36 0;
#X connect 9 0 37 0;
#X connect 10 0 38 0;
#X connect 11 0 39 0;
#X connect 19 0 40 0;
#X connect 20 0 65 0;
#X connect 21 0 67 0;
#X connect 22 0 44 0;
#X connect 23 0 62 0;
#X connect 24 0 63 0;
#X connect 25 0 64 0;
#X connect 26 0 69 0;
#X connect 27 0 70 0;
#X connect 28 0 71 0;
#X connect 29 0 44 0;
#X connect 30 0 44 0;
#X connect 31 0 44 0;
#X connect 32 0 44 0;
#X connect 33 0 44 0;
#X connect 34 0 44 0;
#X connect 35 0 44 0;
#X connect 36 0 44 0;
#X connect 37 0 44 0;
#X connect 38 0 44 0;
#X connect 39 0 44 0;
#X connect 40 0 44 0;
#X connect 43 0 48 0;
#X connect 44 0 46 0;
#X connect 44 1 45 0;
#X connect 47 0 43 0;
#X connect 48 0 49 0;
#X connect 48 1 49 1;
#X connect 66 0 23 1;
#X connect 66 0 24 1;
#X connect 66 0 25 1;
#X connect 68 0 26 1;
#X connect 68 0 27 1;
#X connect 68 0 28 1;
#X coords 0 -1 1 1 180 174 2 100 20;
