#N canvas 0 54 750 396 12;
#X obj 468 270 numvar dwell 8;
#X obj 468 310 numvar preblank 0;
#X obj 468 330 numvar postblank 0;
#X obj 253 353 outlet;
#X obj 554 238 vradio 15 1 0 2 empty empty empty 0 -8 0 10 -262144
-1 -1 1;
#X obj 625 237 route 0 1;
#X msg 625 295 mode points;
#X obj 625 264 t b;
#X obj 655 264 t b;
#X text 468 235 points;
#X text 468 251 lines;
#X msg 655 321 mode lines;
#X obj 468 290 numvar subdivide 32;
#X obj 172 103 vradio 15 1 0 2 empty empty empty 0 -8 0 10 -262144
-1 -1 1;
#X obj 247 104 route 0 1;
#X msg 247 162 mode points;
#X obj 247 131 t b;
#X obj 277 131 t b;
#X text 101 100 points;
#X text 101 116 lines;
#X msg 277 188 mode lines;
#X floatatom 172 134 5 0 0 0 - - -;
#X text 102 134 dwell;
#X floatatom 172 154 5 0 0 0 - - -;
#X floatatom 172 174 5 0 0 0 - - -;
#X text 102 154 subdivide;
#X text 102 174 preblank;
#X msg 148 224 dwell \$1;
#X msg 148 254 subdivide \$1;
#X msg 148 284 preblank \$1;
#X connect 4 0 5 0;
#X connect 5 0 7 0;
#X connect 5 1 8 0;
#X connect 7 0 6 0;
#X connect 8 0 11 0;
#X connect 13 0 14 0;
#X connect 14 0 16 0;
#X connect 14 1 17 0;
#X connect 15 0 3 0;
#X connect 16 0 15 0;
#X connect 17 0 20 0;
#X connect 20 0 3 0;
#X connect 21 0 27 0;
#X connect 23 0 28 0;
#X connect 24 0 29 0;
#X connect 27 0 3 0;
#X connect 28 0 3 0;
#X connect 29 0 3 0;
#X coords 0 -1 1 1 112 96 2 100 100;
