#N canvas 912 560 564 537 12;
#X obj 20 22 inlet;
#X obj 18 123 tabread \$1;
#X obj 126 122 tabread \$1;
#X obj 214 124 wrap;
#X obj 18 224 outlet;
#X obj 126 146 *;
#X obj 214 150 * -1;
#X obj 214 173 + 1;
#X obj 126 102 + 1;
#X obj 18 152 *;
#X obj 18 191 +;
#X obj 32 58 t f f f;
#X connect 0 0 11 0;
#X connect 1 0 9 0;
#X connect 2 0 5 0;
#X connect 3 0 5 1;
#X connect 3 0 6 0;
#X connect 5 0 10 1;
#X connect 6 0 7 0;
#X connect 7 0 9 1;
#X connect 8 0 2 0;
#X connect 9 0 10 0;
#X connect 10 0 4 0;
#X connect 11 0 1 0;
#X connect 11 1 8 0;
#X connect 11 2 3 0;
