#N canvas 752 149 615 500 12;
#X floatatom 147 321 7 0 0 0 - #0-x1freq -;
#X floatatom 201 321 5 0 0 0 - #0-x1amp -;
#X floatatom 239 321 5 0 0 0 - #0-x1phase -;
#X floatatom 147 340 7 0 0 0 - #0-y1freq -;
#X floatatom 201 340 5 0 0 0 - #0-y1amp -;
#X floatatom 239 340 5 0 0 0 - #0-y1phase -;
#X text 145 301 Freq;
#X text 199 301 Amp;
#X text 237 301 Phase;
#X floatatom 240 158 5 0 0 0 - #0-npoints -;
#X text 112 158 Points;
#X obj 108 332 tgl 15 0 empty empty empty 17 7 0 10 -262144 -1 -1 0
1;
#X msg 357 393 x1freq \$1;
#X obj 9 236 spigot;
#X obj 10 354 spigot;
#X obj 11 298 spigot;
#X msg 357 339 x1amp \$1;
#X msg 358 286 x1phase \$1;
#X msg 354 419 y1freq \$1;
#X msg 358 364 y1amp \$1;
#X msg 358 310 y1phase \$1;
#X obj 31 159 t b;
#X obj 33 136 loadbang;
#X msg 355 88 npoints \$1;
#X text 131 320 X;
#X text 131 340 Y;
#X msg 356 144 expand \$1;
#X msg 356 117 trailstep \$1;
#X obj 104 102 preset-library traildot;
#X floatatom 240 178 5 0 0 0 - #0-trailstep -;
#X floatatom 240 198 5 0 0 0 - #0-expand -;
#X text 112 178 Trail step;
#X text 112 198 Expand;
#X obj 321 455 t a a, f 16;
#X obj 430 482 outlet;
#X obj 321 482 s \$0-preset-in;
#X obj 104 381 dispatch-send \$0;
#X obj 104 408 send, f 16;
#X obj 110 66 r \$0-preset-in;
#X obj 11 323 s \$0-y1phase;
#X obj 9 262 s \$0-y1freq;
#X obj 10 380 s \$0-y1amp;
#X msg 29 188 0;
#X floatatom 240 238 5 0 0 0 - #0-headcolor -;
#X floatatom 240 258 5 0 0 0 - #0-trailcolor -;
#X text 112 238 Head color;
#X text 112 258 Trail color;
#X msg 356 196 headcolor \$1;
#X msg 356 223 trailcolor \$1;
#X floatatom 240 218 5 0 0 0 - #0-headrepeat -;
#X text 112 218 Head repeat;
#X msg 357 170 headrepeat \$1;
#X floatatom 240 278 5 0 0 0 - #0-aspectratio -;
#X text 112 278 Aspect ratio;
#X msg 356 253 aspectratio \$1;
#X connect 0 0 12 0;
#X connect 0 0 13 0;
#X connect 1 0 14 0;
#X connect 1 0 16 0;
#X connect 2 0 15 0;
#X connect 2 0 17 0;
#X connect 3 0 18 0;
#X connect 4 0 19 0;
#X connect 5 0 20 0;
#X connect 9 0 23 0;
#X connect 11 0 13 1;
#X connect 11 0 14 1;
#X connect 11 0 15 1;
#X connect 12 0 33 0;
#X connect 13 0 40 0;
#X connect 14 0 41 0;
#X connect 15 0 39 0;
#X connect 16 0 33 0;
#X connect 17 0 33 0;
#X connect 18 0 33 0;
#X connect 19 0 33 0;
#X connect 20 0 33 0;
#X connect 21 0 42 0;
#X connect 22 0 21 0;
#X connect 23 0 33 0;
#X connect 26 0 33 0;
#X connect 27 0 33 0;
#X connect 28 0 36 0;
#X connect 29 0 27 0;
#X connect 30 0 26 0;
#X connect 33 0 35 0;
#X connect 33 1 34 0;
#X connect 36 0 37 0;
#X connect 36 1 37 1;
#X connect 38 0 28 0;
#X connect 42 0 11 0;
#X connect 43 0 47 0;
#X connect 44 0 48 0;
#X connect 47 0 33 0;
#X connect 48 0 33 0;
#X connect 49 0 51 0;
#X connect 51 0 33 0;
#X connect 52 0 54 0;
#X connect 54 0 33 0;
#X coords 0 -1 1 1 180 262 2 100 100;
