#N canvas 1708 172 671 502 12;
#X obj 347 415 t a a, f 16;
#X obj 456 442 outlet;
#X obj 347 442 s \$0-preset-in;
#X msg 377 152 timestep \$1;
#X msg 382 356 optimize \$1;
#X msg 378 186 noisescale \$1;
#X msg 378 272 drag \$1;
#X msg 380 328 backvisible \$1;
#X obj 105 68 r \$0-preset-in;
#X obj 98 387 dispatch-send \$0;
#X obj 98 414 send, f 16;
#X obj 103 103 preset-library agentsphere;
#X floatatom 237 241 5 0 0 0 - \$0-drag - 0;
#X obj 237 291 tgl 20 0 empty \$0-backvisible empty 0 -10 0 12 #fcfcfc #000000 #000000 0 1;
#X text 105 312 Optimize;
#X obj 237 312 tgl 20 0 empty \$0-optimize empty 0 -10 0 12 #fcfcfc #000000 #000000 0 1;
#X text 105 291 Back visible;
#X floatatom 237 201 5 0 0 0 - \$0-gradientforce - 0;
#X floatatom 237 181 5 0 0 0 - \$0-noisescale - 0;
#X floatatom 237 161 5 0 0 0 - \$0-timestep - 0;
#X text 105 161 Time step;
#X text 105 181 Noise scale;
#X text 105 241 Drag;
#X floatatom 237 261 5 0 0 0 - \$0-phase - 0;
#X text 105 261 Phase;
#X msg 378 300 phase \$1;
#X text 105 201 Gradient force;
#X msg 379 214 gradientforce \$1;
#X floatatom 237 221 5 0 0 0 - \$0-thrustforce - 0;
#X msg 386 243 thrustforce \$1;
#X text 105 221 Thrust;
#X connect 0 0 2 0;
#X connect 0 1 1 0;
#X connect 3 0 0 0;
#X connect 4 0 0 0;
#X connect 5 0 0 0;
#X connect 6 0 0 0;
#X connect 7 0 0 0;
#X connect 8 0 11 0;
#X connect 9 0 10 0;
#X connect 9 1 10 1;
#X connect 11 0 9 0;
#X connect 12 0 6 0;
#X connect 13 0 7 0;
#X connect 15 0 4 0;
#X connect 17 0 27 0;
#X connect 18 0 5 0;
#X connect 19 0 3 0;
#X connect 23 0 25 0;
#X connect 25 0 0 0;
#X connect 27 0 0 0;
#X connect 28 0 29 0;
#X connect 29 0 0 0;
#X coords 0 -1 1 1 180 240 2 100 100;
