#N canvas 103 119 717 736 12;
#X msg 348 177 baseradius \$1;
#X msg 346 207 beziercontrol \$1;
#X msg 348 568 subdivide \$1;
#X msg 348 628 timestep \$1;
#X msg 348 598 scale \$1;
#X obj 322 667 t a a, f 16;
#X obj 431 697 outlet;
#X obj 322 697 s \$0-preset-in;
#X obj 70 86 preset-library bezierloop;
#X floatatom 202 219 5 0 0 0 - \$0-divergence - 0;
#X floatatom 202 449 5 0 0 0 - \$0-subdivide - 0;
#X floatatom 202 179 5 0 0 0 - \$0-baseradius - 0;
#X floatatom 152 279 5 0 0 0 - \$0-rotrange - 0;
#X floatatom 202 159 5 0 0 0 - \$0-samples - 0;
#X floatatom 202 199 5 0 0 0 - \$0-beziercontrol - 0;
#X floatatom 202 469 5 0 0 0 - \$0-scale - 0;
#X floatatom 202 489 5 0 0 0 - \$0-timestep - 0;
#X text 70 489 Time step;
#X text 70 449 Subdivide;
#X text 70 469 Scale;
#X obj 24 576 dispatch-send \$0;
#X obj 24 603 send, f 16;
#X obj 70 53 r \$0-preset-in;
#X floatatom 202 139 5 0 0 0 - \$0-symmetry - 0;
#X msg 350 112 symmetry \$1;
#X text 70 139 Symmetry;
#X floatatom 202 429 5 0 0 0 - \$0-dwell - 0;
#X msg 348 538 dwell \$1;
#X text 70 429 Dwell;
#X msg 348 321 rotrange \$1;
#X text 70 219 Divergence;
#X msg 350 349 rotspeed \$1;
#X msg 350 295 radspeed \$1;
#X floatatom 202 279 5 0 0 0 - \$0-rotspeed - 0;
#X floatatom 202 259 5 0 0 0 - \$0-radspeed - 0;
#X text 70 179 Base radius;
#X text 70 199 Bezier strength;
#X msg 346 237 divergence \$1;
#X text 70 309 Color symmetry;
#X obj 202 309 tgl 20 0 empty \$0-colorsymmetry empty 0 -10 0 12 #fcfcfc #000000 #000000 0 1;
#X msg 350 379 colorsymmetry \$1;
#X msg 348 143 samples \$1;
#X text 70 159 Samples;
#X floatatom 152 259 5 0 0 0 - \$0-radrange - 0;
#X msg 350 267 radrange \$1;
#X text 70 259 Radius;
#X text 150 239 Range;
#X text 200 239 Speed;
#X text 70 279 Rotation;
#X obj 202 339 tgl 20 0 empty \$0-autogradient empty 0 -10 0 12 #fcfcfc #000000 #000000 0 1;
#X text 70 339 Auto gradient;
#X floatatom 202 359 5 0 0 0 - \$0-autograddrift - 0;
#X floatatom 202 379 5 0 0 0 - \$0-autogradspeed - 0;
#X floatatom 202 399 5 0 0 0 - \$0-autogradrange - 0;
#X text 70 359 Drift;
#X text 70 379 Speed;
#X msg 350 415 autogradient \$1;
#X msg 348 441 autograddrift \$1;
#X msg 350 469 autogradspeed \$1;
#X msg 350 499 autogradrange \$1;
#X text 70 399 Range;
#X obj 513 21 r pad2r;
#X obj 513 89 s \$0-baseradius;
#X obj 516 160 * 2;
#X obj 513 131 r pad2a;
#X obj 513 199 s \$0-beziercontrol;
#X obj 516 50 * 1;
#X obj 516 270 * 2;
#X obj 513 241 r pad1x;
#X obj 513 309 s \$0-timestep;
#X connect 0 0 5 0;
#X connect 1 0 5 0;
#X connect 2 0 5 0;
#X connect 3 0 5 0;
#X connect 4 0 5 0;
#X connect 5 0 7 0;
#X connect 5 1 6 0;
#X connect 8 0 20 0;
#X connect 9 0 37 0;
#X connect 10 0 2 0;
#X connect 11 0 0 0;
#X connect 12 0 29 0;
#X connect 13 0 41 0;
#X connect 14 0 1 0;
#X connect 15 0 4 0;
#X connect 16 0 3 0;
#X connect 20 0 21 0;
#X connect 20 1 21 1;
#X connect 22 0 8 0;
#X connect 23 0 24 0;
#X connect 24 0 5 0;
#X connect 26 0 27 0;
#X connect 27 0 5 0;
#X connect 29 0 5 0;
#X connect 31 0 5 0;
#X connect 32 0 5 0;
#X connect 33 0 31 0;
#X connect 34 0 32 0;
#X connect 37 0 5 0;
#X connect 39 0 40 0;
#X connect 40 0 5 0;
#X connect 41 0 5 0;
#X connect 43 0 44 0;
#X connect 44 0 5 0;
#X connect 49 0 56 0;
#X connect 51 0 57 0;
#X connect 52 0 58 0;
#X connect 53 0 59 0;
#X connect 56 0 5 0;
#X connect 57 0 5 0;
#X connect 58 0 5 0;
#X connect 59 0 5 0;
#X connect 61 0 66 0;
#X connect 63 0 65 0;
#X connect 64 0 63 0;
#X connect 66 0 62 0;
#X connect 67 0 69 0;
#X connect 68 0 67 0;
#X coords 0 -1 1 1 180 432 2 66 80;
