#N canvas 35 61 591 531 12;
#X msg 378 157 npoints \$1;
#X msg 378 207 baseradius \$1;
#X msg 378 238 beziercontrol \$1;
#X msg 378 328 subdivide \$1;
#X msg 378 268 noisescale \$1;
#X msg 378 388 timestep \$1;
#X msg 378 358 scale \$1;
#X msg 378 298 noiserot \$1;
#X obj 352 447 t a a, f 16;
#X obj 461 477 outlet;
#X obj 352 477 s \$0-preset-in;
#X obj 70 86 preset-library bezierloop;
#X floatatom 202 219 5 0 0 0 - \$0-noisescale - 0;
#X floatatom 202 259 5 0 0 0 - \$0-subdivide - 0;
#X floatatom 202 179 5 0 0 0 - \$0-baseradius - 0;
#X floatatom 202 239 5 0 0 0 - \$0-noiserot - 0;
#X floatatom 202 139 5 0 0 0 - \$0-npoints - 0;
#X floatatom 202 199 5 0 0 0 - \$0-beziercontrol - 0;
#X floatatom 202 279 5 0 0 0 - \$0-scale - 0;
#X text 70 139 Points;
#X text 70 179 Radius;
#X text 70 199 Bezier;
#X text 70 219 Noise scale;
#X text 70 239 Noise rot;
#X floatatom 202 299 5 0 0 0 - \$0-timestep - 0;
#X text 70 299 Time step;
#X text 70 259 Subdivide;
#X text 70 279 Scale;
#X obj 30 358 dispatch-send \$0;
#X obj 30 385 send, f 16;
#X obj 70 53 r \$0-preset-in;
#X obj 215 383 dispatch-send \$0;
#X floatatom 202 159 5 0 0 0 - \$0-symmetry - 0;
#X msg 380 182 symmetry \$1;
#X text 70 159 Symmetry;
#X connect 0 0 8 0;
#X connect 1 0 8 0;
#X connect 2 0 8 0;
#X connect 3 0 8 0;
#X connect 4 0 8 0;
#X connect 5 0 8 0;
#X connect 6 0 8 0;
#X connect 7 0 8 0;
#X connect 8 0 10 0;
#X connect 8 1 9 0;
#X connect 11 0 28 0;
#X connect 12 0 4 0;
#X connect 13 0 3 0;
#X connect 14 0 1 0;
#X connect 15 0 7 0;
#X connect 16 0 0 0;
#X connect 17 0 2 0;
#X connect 18 0 6 0;
#X connect 24 0 5 0;
#X connect 28 0 29 0;
#X connect 28 1 29 1;
#X connect 30 0 11 0;
#X connect 32 0 33 0;
#X connect 33 0 8 0;
#X coords 0 -1 1 1 180 242 2 66 80;
