#N canvas 438 80 609 619 12;
#X msg 378 207 baseradius \$1;
#X msg 378 238 beziercontrol \$1;
#X msg 378 408 subdivide \$1;
#X msg 378 468 timestep \$1;
#X msg 378 438 scale \$1;
#X obj 352 527 t a a, f 16;
#X obj 461 557 outlet;
#X obj 352 557 s \$0-preset-in;
#X obj 70 86 preset-library bezierloop;
#X floatatom 202 219 5 0 0 0 - \$0-divergence - 0;
#X floatatom 202 319 5 0 0 0 - \$0-subdivide - 0;
#X floatatom 202 179 5 0 0 0 - \$0-baseradius - 0;
#X floatatom 202 259 5 0 0 0 - \$0-rotrange - 0;
#X floatatom 202 139 5 0 0 0 - \$0-samples - 0;
#X floatatom 202 199 5 0 0 0 - \$0-beziercontrol - 0;
#X floatatom 202 339 5 0 0 0 - \$0-scale - 0;
#X floatatom 202 359 5 0 0 0 - \$0-timestep - 0;
#X text 70 359 Time step;
#X text 70 319 Subdivide;
#X text 70 339 Scale;
#X obj 30 448 dispatch-send \$0;
#X obj 30 475 send, f 16;
#X obj 70 53 r \$0-preset-in;
#X floatatom 202 159 5 0 0 0 - \$0-symmetry - 0;
#X msg 380 182 symmetry \$1;
#X text 70 159 Symmetry;
#X floatatom 202 299 5 0 0 0 - \$0-dwell - 0;
#X msg 378 378 dwell \$1;
#X text 70 299 Dwell;
#X text 70 259 Rotation range;
#X msg 378 321 rotrange \$1;
#X text 70 219 Divergence;
#X floatatom 223 445 5 0 0 0 - - - 0;
#X msg 381 349 rotspeed \$1;
#X floatatom 224 493 5 0 0 0 - - - 0;
#X msg 380 295 radspeed \$1;
#X floatatom 202 279 5 0 0 0 - \$0-rotspeed - 0;
#X text 70 279 Rotation speed;
#X floatatom 202 239 5 0 0 0 - \$0-radspeed - 0;
#X text 70 239 Radius speed;
#X text 70 179 Base radius;
#X text 70 199 Bezier strength;
#X msg 378 268 divergence \$1;
#X text 70 379 Color symmetry;
#X obj 202 379 tgl 20 0 empty \$0-colorsymmetry empty 0 -10 0 12 #fcfcfc #000000 #000000 0 1;
#X msg 378 498 colorsymmetry \$1;
#X msg 378 157 samples \$1;
#X text 70 139 Samples;
#X connect 0 0 5 0;
#X connect 1 0 5 0;
#X connect 2 0 5 0;
#X connect 3 0 5 0;
#X connect 4 0 5 0;
#X connect 5 0 7 0;
#X connect 5 1 6 0;
#X connect 8 0 20 0;
#X connect 9 0 42 0;
#X connect 10 0 2 0;
#X connect 11 0 0 0;
#X connect 12 0 30 0;
#X connect 13 0 46 0;
#X connect 14 0 1 0;
#X connect 15 0 4 0;
#X connect 16 0 3 0;
#X connect 20 0 21 0;
#X connect 20 1 21 1;
#X connect 22 0 8 0;
#X connect 23 0 24 0;
#X connect 24 0 5 0;
#X connect 26 0 27 0;
#X connect 27 0 5 0;
#X connect 30 0 5 0;
#X connect 33 0 5 0;
#X connect 35 0 5 0;
#X connect 36 0 33 0;
#X connect 38 0 35 0;
#X connect 42 0 5 0;
#X connect 44 0 45 0;
#X connect 45 0 5 0;
#X connect 46 0 5 0;
#X coords 0 -1 1 1 180 322 2 66 80;
