#N canvas 774 1014 1098 300 12;
#X floatatom 168 97 5 0 0 0 - - - 0;
#X msg 168 131 camz \$1;
#X floatatom 30 97 5 0 0 0 - - - 0;
#X msg 30 131 camx \$1;
#X floatatom 804 98 5 0 0 0 - - - 0;
#X msg 804 129 fov \$1;
#X floatatom 98 97 5 0 0 0 - - - 0;
#X msg 98 131 camy \$1;
#X obj 30 23 r cam/pos;
#X obj 30 61 unpack f f f, f 20;
#X floatatom 406 97 5 0 0 0 - - - 0;
#X floatatom 241 97 5 0 0 0 - - - 0;
#X floatatom 323 97 5 0 0 0 - - - 0;
#X obj 241 61 unpack f f f, f 24;
#X obj 241 23 r cam/lookat;
#X msg 241 131 lookatx \$1;
#X msg 323 130 lookaty \$1;
#X msg 406 130 lookatz \$1;
#X obj 804 23 r cam/fov;
#X floatatom 517 96 5 0 0 0 - - - 0;
#X msg 517 128 near \$1;
#X floatatom 600 100 5 0 0 0 - - - 0;
#X msg 600 128 far \$1;
#X obj 518 25 r cam/near;
#X obj 600 25 r cam/far;
#X obj 21 222 outlet;
#X floatatom 704 98 5 0 0 0 - - - 0;
#X obj 704 23 r cam/aspect;
#X msg 704 129 aspect \$1;
#X connect 0 0 1 0;
#X connect 1 0 25 0;
#X connect 2 0 3 0;
#X connect 3 0 25 0;
#X connect 4 0 5 0;
#X connect 5 0 25 0;
#X connect 6 0 7 0;
#X connect 7 0 25 0;
#X connect 8 0 9 0;
#X connect 9 0 2 0;
#X connect 9 1 6 0;
#X connect 9 2 0 0;
#X connect 10 0 17 0;
#X connect 11 0 15 0;
#X connect 12 0 16 0;
#X connect 13 0 11 0;
#X connect 13 1 12 0;
#X connect 13 2 10 0;
#X connect 14 0 13 0;
#X connect 15 0 25 0;
#X connect 16 0 25 0;
#X connect 17 0 25 0;
#X connect 18 0 4 0;
#X connect 19 0 20 0;
#X connect 20 0 25 0;
#X connect 21 0 22 0;
#X connect 22 0 25 0;
#X connect 23 0 19 0;
#X connect 24 0 21 0;
#X connect 26 0 28 0;
#X connect 27 0 26 0;
#X connect 28 0 25 0;
