#N canvas 1225 656 466 464 12;
#X msg 277 307 bypass \$1;
#X obj 147 123 vradio 20 1 0 2 empty empty empty 0 -10 0 12 #fcfcfc #000000 #000000 0;
#X text 170 121 Center;
#X text 170 141 Corner;
#X msg 274 188 originmode \$1;
#X msg 267 132 width \$1;
#X msg 338 128 height \$1;
#X msg 274 228 boundsvisible \$1;
#X msg 275 266 invert \$1;
#X obj 342 399 outlet;
#X floatatom 147 82 5 0 0 0 - - - 0;
#X floatatom 186 82 5 0 0 0 - - - 0;
#X obj 147 165 tgl 20 0 empty empty empty 0 -10 0 12 #fcfcfc #000000 #000000 0 1;
#X text 55 82 Position;
#X floatatom 147 102 5 0 0 0 - - - 0;
#X floatatom 186 102 5 0 0 0 - - - 0;
#X text 55 102 Size;
#X text 55 165 Border;
#X obj 147 186 tgl 20 0 empty empty empty 0 -10 0 12 #fcfcfc #000000 #000000 0 1;
#X text 55 186 Invert;
#X obj 147 207 tgl 20 0 empty empty empty 0 -10 0 12 #fcfcfc #000000 #000000 0 1;
#X text 55 207 Bypass;
#X text 55 123 Origin;
#X msg 256 59 x \$1;
#X msg 302 60 y \$1;
#X obj 235 362 t a a, f 16;
#X connect 0 0 25 0;
#X connect 1 0 4 0;
#X connect 4 0 25 0;
#X connect 5 0 25 0;
#X connect 6 0 25 0;
#X connect 7 0 25 0;
#X connect 8 0 25 0;
#X connect 10 0 23 0;
#X connect 11 0 24 0;
#X connect 12 0 7 0;
#X connect 14 0 5 0;
#X connect 15 0 6 0;
#X connect 18 0 8 0;
#X connect 20 0 0 0;
#X connect 23 0 25 0;
#X connect 24 0 25 0;
#X connect 25 1 9 0;
#X coords 0 -1 1 1 176 150 2 50 80;
