#N canvas 970 688 571 300 12;
#X obj 214 10 inlet;
#X obj 281 13 inlet;
#X obj 296 92 + 1, f 5;
#X floatatom 101 101 7 0 0 0 - - - 24;
#X msg 280 41 0;
#X obj 444 23 loadbang;
#X msg 445 54 1;
#X obj 214 38 t b;
#X obj 231 92 float 1;
#X connect 0 0 7 0;
#X connect 1 0 4 0;
#X connect 2 0 8 1;
#X connect 4 0 8 0;
#X connect 5 0 6 0;
#X connect 7 0 8 0;
#X connect 8 0 2 0;
#X connect 8 0 3 0;
#X coords 0 -1 1 1 106 37 2 100 100;
