#N canvas 24 101 353 362 12;
#X obj 44 23 inlet;
#X obj 97 177 f \$1;
#X obj 44 58 unpack s f;
#X obj 44 119 float, f 10;
#X obj 44 89 t b s, f 8;
#X obj 44 286 outlet;
#X obj 97 286 outlet;
#X text 176 282 Dynamic dispatch;
#X obj 97 147 t b s, f 8;
#X obj 97 249 makefilename;
#X msg 150 216 set \$1;
#X text 18 310 send value;
#X text 110 312 send name;
#X text 92 25 name value message in;
#X obj 150 179 makefilename %%d-%s-in;
#X connect 0 0 2 0;
#X connect 1 0 9 0;
#X connect 2 0 4 0;
#X connect 2 1 3 1;
#X connect 3 0 5 0;
#X connect 4 0 3 0;
#X connect 4 1 8 0;
#X connect 8 0 1 0;
#X connect 8 1 14 0;
#X connect 9 0 6 0;
#X connect 10 0 9 0;
#X connect 14 0 10 0;
