#N canvas 876 271 339 261 12;
#X obj 36 170 eoscdecode;
#X obj 27 66 oscparse;
#X obj 31 103 list trim;
#X obj 37 134 route f;
#X obj 28 26 netreceive -u -b -f \$1;
#X obj 36 208 outlet;
#X obj 103 208 outlet;
#X connect 0 0 5 0;
#X connect 0 1 6 0;
#X connect 1 0 2 0;
#X connect 2 0 3 0;
#X connect 3 0 0 0;
#X connect 4 0 1 0;
