#N canvas 209 609 371 297 12;
#X obj 29 184 eoscdecode;
#X obj 27 66 oscparse;
#X obj 30 95 list trim;
#X obj 28 26 netreceive -u -b -f \$1;
#X obj 29 222 outlet;
#X obj 151 223 outlet;
#X floatatom 97 225 5 0 0 0 - - - 0;
#X text 29 253 frame data;
#X obj 31 133 route f, f 17;
#X text 150 254 control messages;
#X connect 0 0 4 0;
#X connect 0 1 6 0;
#X connect 1 0 2 0;
#X connect 2 0 8 0;
#X connect 3 0 1 0;
#X connect 8 0 0 0;
#X connect 8 1 5 0;
