#N canvas 413 54 694 733 12;
#X text 11 114 agents;
#X msg 429 258 size \$1;
#X floatatom 329 73 8 0 0 0 - #0-alignment -;
#X floatatom 329 93 8 0 0 0 - #0-separation -;
#X floatatom 329 213 8 0 0 0 - #0-wallavoid -;
#X floatatom 139 113 5 0 0 0 - #0-size -;
#X floatatom 139 133 8 0 0 0 - #0-visualrange -;
#X floatatom 329 53 8 0 0 0 - #0-cohesion -;
#X msg 564 314 alignment \$1;
#X msg 565 342 separation \$1;
#X msg 567 524 wallavoid \$1;
#X msg 567 287 cohesion \$1;
#X text 201 23 reset;
#X obj 330 23 bng 18 250 50 0 empty empty empty 17 7 0 10 -262144 -1
-1;
#X msg 429 154 init 1;
#X floatatom 139 173 8 0 0 0 - #0-maxforce -;
#X floatatom 139 193 8 0 0 0 - #0-maxspeed -;
#X text 12 173 max force;
#X text 12 193 max speed;
#X msg 432 339 maxforce \$1;
#X msg 435 366 maxspeed \$1;
#X text 11 134 visual range;
#X msg 432 289 visualrange \$1;
#X floatatom 329 193 8 0 0 0 - #0-walldetect -;
#X msg 568 494 walldetect \$1;
#X floatatom 329 113 8 0 0 0 - #0-mindistance -;
#X msg 566 372 mindistance \$1;
#X msg 570 406 wander \$1;
#X msg 569 434 wanderfreq \$1;
#X text 202 133 wander force;
#X text 202 153 wander freq;
#X text 202 213 wall avoid force;
#X text 202 54 cohesion force;
#X text 202 73 alignment force;
#X text 202 93 separation force;
#X text 202 193 wall detect dist;
#X floatatom 329 133 8 0 0 0 - #0-wander -;
#X floatatom 329 153 8 0 0 0 - #0-wanderfreq -;
#X floatatom 329 173 8 0 0 0 - #0-wandermag -;
#X msg 530 666 optbeampath \$1;
#X obj 139 292 tgl 17 0 empty \$0-optbeampath empty 17 7 0 10 -262144
-1 -1 0 1;
#X text 202 113 separation dist;
#X text 202 173 wander magnitude;
#X msg 569 464 wandermag \$1;
#X floatatom 139 153 8 0 0 0 - #0-agentfov -;
#X text 11 154 visual fov;
#X msg 432 313 agentfov \$1;
#X floatatom 139 213 8 0 0 0 - #0-friction -;
#X msg 435 391 friction \$1;
#X text 12 213 friction;
#X obj 14 55 preset-library flock;
#X obj 420 694 outlet;
#X obj 311 662 t a a, f 16;
#X obj 14 561 dispatch-send \$0;
#X obj 14 588 send, f 16;
#X obj 14 23 r \$0-preset-in;
#X obj 311 694 s \$0-preset-in;
#X floatatom 82 329 5 0 0 0 - #0-gradcol1h -;
#X floatatom 121 329 5 0 0 0 - #0-gradcol1s -;
#X floatatom 160 329 5 0 0 0 - #0-gradcol1v -;
#X floatatom 82 349 5 0 0 0 - #0-gradcol2h -;
#X floatatom 121 349 5 0 0 0 - #0-gradcol2s -;
#X floatatom 160 349 5 0 0 0 - #0-gradcol2v -;
#X obj 329 242 vradio 15 1 0 9 empty \$0-colormode empty 0 -8 0 14
-262144 -1 -1 1;
#X floatatom 160 379 5 0 0 0 - #0-hueoffset -;
#X text 12 378 hue offset;
#X msg 98 445 gradcol1h \$1;
#X msg 98 475 gradcol1s \$1;
#X msg 98 505 gradcol1v \$1;
#X msg 198 445 gradcol2h \$1;
#X msg 198 475 gradcol2s \$1;
#X msg 198 505 gradcol2v \$1;
#X msg 199 534 hueoffset \$1;
#X text 89 309 H;
#X text 129 309 S;
#X text 169 309 V;
#X text 12 328 gradient1;
#X text 12 348 gradient2;
#X text 12 290 optimize paths;
#X msg 311 446 colormode \$1;
#X text 201 240 Constant;
#X text 202 255 Center;
#X text 202 270 Neighbors;
#X text 202 285 Index;
#X text 202 300 Velocity;
#X text 201 315 Acceleration;
#X text 202 330 Cohesion;
#X text 202 345 Separation;
#X text 202 360 Alignment;
#X floatatom 121 242 5 0 0 0 - #0-worldXmax -;
#X floatatom 121 263 5 0 0 0 - #0-worldXmin -;
#X msg 528 564 worldYmax \$1;
#X floatatom 160 263 5 0 0 0 - #0-worldYmin -;
#X floatatom 160 242 5 0 0 0 - #0-worldYmax -;
#X msg 528 639 worldYmin \$1;
#X text 13 244 world max;
#X text 13 265 world min;
#X msg 528 589 worldXmax \$1;
#X msg 528 614 worldXmin \$1;
#X connect 1 0 52 0;
#X connect 2 0 8 0;
#X connect 3 0 9 0;
#X connect 4 0 10 0;
#X connect 5 0 1 0;
#X connect 6 0 22 0;
#X connect 7 0 11 0;
#X connect 8 0 52 0;
#X connect 9 0 52 0;
#X connect 10 0 52 0;
#X connect 11 0 52 0;
#X connect 13 0 14 0;
#X connect 14 0 52 0;
#X connect 15 0 19 0;
#X connect 16 0 20 0;
#X connect 19 0 52 0;
#X connect 20 0 52 0;
#X connect 22 0 52 0;
#X connect 23 0 24 0;
#X connect 24 0 52 0;
#X connect 25 0 26 0;
#X connect 26 0 52 0;
#X connect 27 0 52 0;
#X connect 28 0 52 0;
#X connect 36 0 27 0;
#X connect 37 0 28 0;
#X connect 38 0 43 0;
#X connect 39 0 52 0;
#X connect 40 0 39 0;
#X connect 43 0 52 0;
#X connect 44 0 46 0;
#X connect 46 0 52 0;
#X connect 47 0 48 0;
#X connect 48 0 52 0;
#X connect 50 0 53 0;
#X connect 52 0 56 0;
#X connect 52 1 51 0;
#X connect 53 0 54 0;
#X connect 53 1 54 1;
#X connect 55 0 50 0;
#X connect 57 0 66 0;
#X connect 58 0 67 0;
#X connect 59 0 68 0;
#X connect 60 0 69 0;
#X connect 61 0 70 0;
#X connect 62 0 71 0;
#X connect 63 0 79 0;
#X connect 64 0 72 0;
#X connect 66 0 52 0;
#X connect 67 0 52 0;
#X connect 68 0 52 0;
#X connect 69 0 52 0;
#X connect 70 0 52 0;
#X connect 71 0 52 0;
#X connect 72 0 52 0;
#X connect 79 0 52 0;
#X connect 89 0 97 0;
#X connect 90 0 98 0;
#X connect 91 0 52 0;
#X connect 92 0 94 0;
#X connect 93 0 91 0;
#X connect 94 0 52 0;
#X connect 97 0 52 0;
#X connect 98 0 52 0;
#X coords 0 -1 1 1 380 360 2 10 50;
