#N canvas 524 471 440 325 12;
#X obj 48 53 t b b, f 8;
#X obj 48 19 inlet;
#X obj 48 122 expr 1000 / $f1;
#X obj 48 86 realtime;
#X obj 51 156 int;
#X obj 53 258 hsl 120 30 0 0 0 0 empty empty FPS:52 -2 16 0 30 -262144
-262144 -1 0 1;
#X msg 50 224 label \$1;
#X obj 50 197 makefilename FPS:%s;
#X connect 0 0 3 0;
#X connect 0 1 3 1;
#X connect 1 0 0 0;
#X connect 2 0 4 0;
#X connect 3 0 2 0;
#X connect 4 0 7 0;
#X connect 6 0 5 0;
#X connect 7 0 6 0;
#X coords 0 -1 1 1 130 34 2 48 256;
