#N canvas 1437 428 851 658 12;
#X floatatom 124 289 5 0 0 0 - - - 0;
#X floatatom 161 289 5 0 0 0 - - - 0;
#X floatatom 198 289 5 0 0 0 - - - 0;
#X floatatom 124 308 5 0 0 0 - - - 0;
#X floatatom 161 308 5 0 0 0 - - - 0;
#X floatatom 198 308 5 0 0 0 - - - 0;
#X floatatom 197 420 5 -89.999 89.999 0 - \$0-splitoffset - 0;
#X obj 429 17 r colorhsv1/rgb;
#X text 66 288 Color 1;
#X text 66 307 Color 2;
#X obj 311 48 unpack f f f;
#X text 126 269 R;
#X text 167 269 G;
#X text 207 269 B;
#X obj 318 121 unpack f f f;
#X obj 436 95 r colorhsv2/rgb;
#X msg 437 525 bypass \$1;
#X msg 447 330 repeat \$1;
#X obj 69 171 vradio 15 1 0 7 empty empty empty 0 -8 0 14 #fcfcfc #000000 #000000 0;
#X text 91 169 Constant;
#X text 92 214 Analogous;
#X text 92 229 Polyadic;
#X floatatom 197 336 5 0.001 1024 0 - - - 0;
#X text 66 335 Repeat;
#X obj 197 357 tgl 20 0 empty empty empty 0 -10 0 12 #fcfcfc #000000 #000000 0 1;
#X obj 197 484 tgl 20 0 empty empty empty 0 -10 0 12 #fcfcfc #000000 #000000 0 1;
#X text 66 483 Bypass;
#N canvas 1987 1005 529 453 modemsg 0;
#X obj 113 37 inlet;
#X obj 104 396 outlet;
#X obj 107 96 route 0 1 2 3 4 5 6, f 44;
#X msg 102 364 mode \$1;
#X obj 107 128 symbol constant;
#X msg 150 155 symbol user;
#X msg 194 185 symbol mono;
#X msg 234 215 symbol analogous;
#X msg 284 244 symbol polyadic;
#X msg 334 274 symbol splitcomplement;
#X msg 374 304 symbol rect;
#X connect 0 0 2 0;
#X connect 2 0 4 0;
#X connect 2 1 5 0;
#X connect 2 2 6 0;
#X connect 2 3 7 0;
#X connect 2 4 8 0;
#X connect 2 5 9 0;
#X connect 2 6 10 0;
#X connect 3 0 1 0;
#X connect 4 0 3 0;
#X connect 5 0 3 0;
#X connect 6 0 3 0;
#X connect 7 0 3 0;
#X connect 8 0 3 0;
#X connect 9 0 3 0;
#X connect 10 0 3 0;
#X restore 437 176 pd modemsg;
#X msg 429 48 color1 \$1 \$2 \$3;
#X msg 437 124 color2 \$1 \$2 \$3;
#X obj 443 269 / 360;
#X text 66 356 Reflect;
#X msg 449 359 reflect \$1;
#X floatatom 197 399 5 1 1024 0 - - - 0;
#X text 66 398 Hue points;
#X msg 442 438 huepoints \$1;
#X obj 169 171 vradio 15 1 0 5 empty empty empty 0 -8 0 14 #fcfcfc #000000 #000000 0;
#X text 192 169 RGB;
#X text 192 184 HSV;
#X text 192 199 HCL;
#X text 162 151 Blend mode;
#N canvas 1049 657 580 300 blendmodemsg 0;
#X obj 60 27 inlet;
#X obj 63 234 outlet;
#X msg 62 202 blendmode \$1;
#X obj 58 102 symbol RGB;
#X msg 151 103 symbol HSV;
#X msg 256 105 symbol HCL;
#X msg 346 105 symbol STEP;
#X obj 58 70 route 0 1 2 3 4, f 44;
#X msg 446 105 symbol SUB;
#X connect 0 0 7 0;
#X connect 2 0 1 0;
#X connect 3 0 2 0;
#X connect 4 0 2 0;
#X connect 5 0 2 0;
#X connect 6 0 2 0;
#X connect 7 0 3 0;
#X connect 7 1 4 0;
#X connect 7 2 5 0;
#X connect 7 3 6 0;
#X connect 7 4 8 0;
#X connect 8 0 2 0;
#X restore 441 228 pd blendmodemsg;
#X text 192 215 Step;
#X text 61 151 Palette;
#X floatatom 197 441 5 0 1 0 - - - 0;
#X text 66 440 Alpha;
#X msg 437 467 alpha \$1;
#X text 92 184 Picker;
#X text 92 259 Rect;
#X text 91 244 Split comp;
#X obj 62 102 preset-library gradient;
#X obj 62 69 r \$0-preset-in;
#X obj 32 580 send, f 16;
#X obj 32 553 dispatch-send2 \$0;
#X obj 335 563 t a a, f 16;
#X obj 445 596 outlet;
#X obj 336 596 s \$0-preset-in;
#X msg 444 299 splitoffset \$1;
#X text 66 419 Split offset;
#X text 192 230 Sub;
#X obj 197 462 tgl 20 0 empty empty empty 0 -10 0 12 #fcfcfc #000000 #000000 0 1;
#X text 66 461 Preserve white;
#X msg 437 494 preservewhite \$1;
#X obj 160 583 print dispatch;
#X text 92 199 Monochrome;
#X msg 449 389 reverse \$1;
#X obj 197 378 tgl 20 0 empty empty empty 0 -10 0 12 #fcfcfc #000000 #000000 0 1;
#X text 66 377 Reverse;
#X connect 6 0 30 0;
#X connect 7 0 10 0;
#X connect 7 0 28 0;
#X connect 10 0 0 0;
#X connect 10 1 1 0;
#X connect 10 2 2 0;
#X connect 14 0 3 0;
#X connect 14 1 4 0;
#X connect 14 2 5 0;
#X connect 15 0 14 0;
#X connect 15 0 29 0;
#X connect 16 0 54 0;
#X connect 17 0 54 0;
#X connect 18 0 27 0;
#X connect 22 0 17 0;
#X connect 24 0 32 0;
#X connect 25 0 16 0;
#X connect 27 0 54 0;
#X connect 28 0 54 0;
#X connect 29 0 54 0;
#X connect 30 0 57 0;
#X connect 32 0 54 0;
#X connect 33 0 35 0;
#X connect 35 0 54 0;
#X connect 36 0 41 0;
#X connect 41 0 54 0;
#X connect 44 0 46 0;
#X connect 46 0 54 0;
#X connect 50 0 53 0;
#X connect 51 0 50 0;
#X connect 53 0 52 0;
#X connect 53 1 52 1;
#X connect 53 1 63 0;
#X connect 54 0 56 0;
#X connect 54 1 55 0;
#X connect 57 0 54 0;
#X connect 60 0 62 0;
#X connect 62 0 54 0;
#X connect 65 0 54 0;
#X connect 66 0 65 0;
#X coords 0 -1 1 1 178 410 2 60 100;
