#N canvas 667 858 760 485 12;
#X obj 404 445 outlet;
#X floatatom 134 235 5 0 0 0 - - - 0;
#X floatatom 174 235 5 0 0 0 - - - 0;
#X floatatom 214 235 5 0 0 0 - - - 0;
#X floatatom 134 264 5 0 0 0 - - - 0;
#X floatatom 174 264 5 0 0 0 - - - 0;
#X floatatom 214 264 5 0 0 0 - - - 0;
#X floatatom 213 295 5 0 0 0 - \$0-hueoffset - 0;
#X obj 429 17 r colorhsv1/rgb;
#X text 66 234 Color 1;
#X text 66 263 Color 2;
#X obj 291 63 unpack f f f;
#X text 142 215 R;
#X text 183 215 G;
#X text 223 215 B;
#X obj 278 146 unpack f f f;
#X obj 436 95 r colorhsv2/rgb;
#X text 65 294 Offset;
#X msg 450 372 bypass \$1;
#X msg 446 333 wrap \$1;
#X msg 449 293 repeat \$1;
#X obj 75 107 vradio 15 1 0 7 empty empty empty 0 -8 0 14 #fcfcfc #000000 #000000 0;
#X text 97 105 Constant;
#X text 98 120 User defined;
#X text 98 135 Monochromatic;
#X text 98 150 Analogous;
#X text 98 165 Polyadic;
#X text 97 180 Split complement;
#X text 98 195 Tetradic Rect;
#X floatatom 213 325 5 1 1024 0 - - - 0;
#X text 65 324 Repeat;
#X text 65 353 Mirror;
#X obj 213 354 tgl 20 0 empty empty empty 0 -10 0 12 #fcfcfc #000000 #000000 0 1;
#X obj 213 384 tgl 20 0 empty empty empty 0 -10 0 12 #fcfcfc #000000 #000000 0 1;
#X text 65 383 Bypass;
#N canvas 1987 1005 529 453 modemsg 0;
#X obj 113 37 inlet;
#X obj 104 396 outlet;
#X obj 107 96 route 0 1 2 3 4 5 6, f 44;
#X msg 102 364 mode \$1;
#X obj 107 128 symbol constant;
#X msg 150 155 symbol user;
#X msg 194 185 symbol mono;
#X msg 234 215 symbol analogous;
#X msg 284 244 symbol polyadic;
#X msg 334 274 symbol splitcomplement;
#X msg 374 304 symbol rect;
#X connect 0 0 2 0;
#X connect 2 0 4 0;
#X connect 2 1 5 0;
#X connect 2 2 6 0;
#X connect 2 3 7 0;
#X connect 2 4 8 0;
#X connect 2 5 9 0;
#X connect 2 6 10 0;
#X connect 3 0 1 0;
#X connect 4 0 3 0;
#X connect 5 0 3 0;
#X connect 6 0 3 0;
#X connect 7 0 3 0;
#X connect 8 0 3 0;
#X connect 9 0 3 0;
#X connect 10 0 3 0;
#X restore 445 215 pd modemsg;
#X msg 429 48 color1 \$1 \$2 \$3;
#X msg 437 124 color2 \$1 \$2 \$3;
#X connect 8 0 11 0;
#X connect 8 0 36 0;
#X connect 11 0 1 0;
#X connect 11 1 2 0;
#X connect 11 2 3 0;
#X connect 15 0 4 0;
#X connect 15 1 5 0;
#X connect 15 2 6 0;
#X connect 16 0 15 0;
#X connect 16 0 37 0;
#X connect 18 0 0 0;
#X connect 19 0 0 0;
#X connect 20 0 0 0;
#X connect 21 0 35 0;
#X connect 29 0 20 0;
#X connect 32 0 19 0;
#X connect 33 0 18 0;
#X connect 35 0 0 0;
#X connect 36 0 0 0;
#X connect 37 0 0 0;
#X coords 0 -1 1 1 200 320 2 60 100;
