#N canvas 2095 117 1160 820 12;
#X obj 104 305 ilda-library;
#X msg 257 212 next;
#X floatatom 155 127 5 0 0 0 - - -;
#X floatatom 104 127 5 0 0 0 - - -;
#X msg 214 212 prev;
#X obj 104 373 outlet;
#X obj 202 127 vsl 40 16 0 0 0 0 empty empty Prev 4 10 0 14 -262144
-262144 -66577 0 1;
#X obj 245 127 vsl 40 16 0 0 0 0 empty empty Next 4 10 0 14 -262144
-262144 -66577 400 1;
#X obj 212 184 t b;
#X obj 257 184 t b;
#X msg 104 339 load \$1;
#X symbolatom 103 103 26 0 0 0 - - -;
#X text 142 127 /;
#X obj 104 153 vsl 40 16 0 0 0 0 empty empty open 4 10 0 14 -262144
-262144 -66577 0 1;
#X obj 322 182 t b;
#X obj 324 250 openpanel;
#X obj 396 90 loadbang;
#X msg 317 215 symbol /home/pi/code/HELIOS/eos/ILDA;
#X msg 322 283 open \$1;
#X connect 0 0 10 0;
#X connect 0 0 11 0;
#X connect 0 1 3 0;
#X connect 0 2 2 0;
#X connect 1 0 0 1;
#X connect 4 0 0 1;
#X connect 6 0 8 0;
#X connect 7 0 9 0;
#X connect 8 0 4 0;
#X connect 9 0 1 0;
#X connect 10 0 5 0;
#X connect 13 0 14 0;
#X connect 14 0 17 0;
#X connect 15 0 18 0;
#X connect 17 0 15 0;
#X connect 18 0 0 1;
#X coords 0 -1 1 1 190 80 2 100 100;
