#N canvas 612 366 450 300 12;
#X floatatom 146 107 5 0 0 0 - #0-freqx -;
#X floatatom 185 107 5 0 0 0 - #0-freqy -;
#X msg 350 126 freqy \$1;
#X floatatom 146 126 5 0 0 0 - #0-scalex -;
#X floatatom 185 126 5 0 0 0 - #0-scaley -;
#X msg 281 161 scalex \$1;
#X msg 351 161 scaley \$1;
#X floatatom 145 155 5 0 0 0 - #0-timestep -;
#X msg 283 193 timestep \$1;
#X text 54 108 Freq;
#X text 54 127 Scale;
#X text 54 156 Time step;
#X obj 51 41 preset-library noisemod;
#X obj 19 219 dispatch-send \$0;
#X obj 19 246 send, f 16;
#X obj 53 10 r \$0-preset-in;
#X obj 279 253 outlet;
#X obj 170 221 t a a, f 16;
#X obj 170 253 s \$0-preset-in;
#X msg 280 126 freqx \$1;
#X text 155 90 X;
#X text 195 90 Y;
#X connect 0 0 19 0;
#X connect 1 0 2 0;
#X connect 2 0 17 0;
#X connect 3 0 5 0;
#X connect 4 0 6 0;
#X connect 5 0 17 0;
#X connect 6 0 17 0;
#X connect 7 0 8 0;
#X connect 8 0 17 0;
#X connect 12 0 13 0;
#X connect 13 0 14 0;
#X connect 13 1 14 1;
#X connect 15 0 12 0;
#X connect 17 0 18 0;
#X connect 17 1 16 0;
#X connect 19 0 17 0;
#X coords 0 -1 1 1 176 136 2 50 40;
