#N canvas 194 378 378 262 12;
#X obj 24 21 inlet;
#X obj 24 69 oscformat frame-in;
#X msg 125 134 disconnect;
#X obj 23 174 netsend -u -b;
#X obj 24 98 list trim;
#X msg 125 109 connect aorus 12000;
#X obj 23 207 tgl 15 0 empty empty empty 17 7 0 10 -262144 -1 -1 1
1;
#X connect 0 0 1 0;
#X connect 1 0 4 0;
#X connect 2 0 3 0;
#X connect 3 0 6 0;
#X connect 4 0 3 0;
#X connect 5 0 3 0;
