#N canvas 398 93 450 300 12;
#X floatatom 155 120 5 0 0 0 - #0-numcircles -;
#X msg 244 60 numcircles \$1;
#X floatatom 155 140 5 0 0 0 - #0-density -;
#X msg 246 89 density \$1;
#X floatatom 155 100 5 0 0 0 - #0-speed -;
#X msg 241 31 speed \$1;
#X msg 246 119 radiusdir \$1;
#X msg 246 149 fadedir \$1;
#X obj 155 170 tgl 15 0 empty \$0-radiusdir empty 17 7 0 10 -262144
-1 -1 0 1;
#X obj 155 190 tgl 15 0 empty \$0-fadedir empty 17 7 0 10 -262144 -1
-1 0 1;
#X obj 18 50 preset-library phasetunnel;
#X text 18 99 Speed;
#X text 18 119 Layers;
#X text 18 139 Density;
#X text 18 169 Radius dir;
#X text 18 189 Fade dir;
#X obj 18 23 r \$0-preset-in;
#X obj 339 251 outlet;
#X obj 230 219 t a a, f 16;
#X obj 230 251 s \$0-preset-in;
#X obj 19 219 dispatch-send \$0;
#X obj 19 246 send, f 16;
#X connect 0 0 1 0;
#X connect 1 0 18 0;
#X connect 2 0 3 0;
#X connect 3 0 18 0;
#X connect 4 0 5 0;
#X connect 5 0 18 0;
#X connect 6 0 18 0;
#X connect 7 0 18 0;
#X connect 8 0 6 0;
#X connect 9 0 7 0;
#X connect 10 0 20 0;
#X connect 16 0 10 0;
#X connect 18 0 19 0;
#X connect 18 1 17 0;
#X connect 20 0 21 0;
#X connect 20 1 21 1;
#X coords 0 -1 1 1 180 160 2 16 50;
