#N canvas 2172 892 1075 588 10;
#X obj 62 23 inlet;
#X obj 95 256 outlet;
#X obj 69 59 t b b;
#X obj 96 116 del \$1;
#X obj 58 160 spigot 1;
#X obj 91 207 t b b;
#X obj 183 209 0;
#X obj 130 162 1;
#X text 167 23 Outputs a bang ONLY if no messages have been received for \$1 milliseconds, f 29;
#X connect 0 0 2 0;
#X connect 2 0 4 0;
#X connect 2 1 6 0;
#X connect 2 1 3 0;
#X connect 3 0 5 0;
#X connect 4 0 7 0;
#X connect 5 0 1 0;
#X connect 5 1 6 0;
#X connect 6 0 4 1;
#X connect 7 0 4 1;
