#N canvas 0 54 750 396 12;
#X obj 243 353 outlet;
#X obj 172 103 vradio 15 1 0 2 empty empty empty 0 -8 0 10 -262144
-1 -1 1;
#X obj 237 104 route 0 1;
#X msg 237 162 mode points;
#X obj 237 131 t b;
#X obj 267 131 t b;
#X msg 267 188 mode lines;
#X floatatom 172 134 5 0 0 0 - - -;
#X floatatom 172 154 5 0 0 0 - - -;
#X floatatom 172 174 5 0 0 0 - - -;
#X msg 274 216 dwell \$1;
#X msg 274 246 subdivide \$1;
#X msg 274 276 preblank \$1;
#X obj 172 196 tgl 15 0 empty empty empty 17 7 0 10 -262144 -1 -1 0
1;
#X text 101 100 Points;
#X text 101 116 Lines;
#X text 102 134 Dwell;
#X text 102 154 Subdivide;
#X text 102 174 Preblank;
#X text 102 194 Bypass;
#X msg 271 311 bypass \$1;
#X connect 1 0 2 0;
#X connect 2 0 4 0;
#X connect 2 1 5 0;
#X connect 3 0 0 0;
#X connect 4 0 3 0;
#X connect 5 0 6 0;
#X connect 6 0 0 0;
#X connect 7 0 10 0;
#X connect 8 0 11 0;
#X connect 9 0 12 0;
#X connect 10 0 0 0;
#X connect 11 0 0 0;
#X connect 12 0 0 0;
#X connect 13 0 20 0;
#X connect 20 0 0 0;
#X coords 0 -1 1 1 112 114 2 100 100;
