#N canvas 769 585 641 577 12;
#X obj 228 46 inlet;
#X text 229 17 value;
#X obj 138 46 inlet;
#X text 139 16 gate open;
#X obj 318 46 inlet;
#X text 319 16 gate close;
#X obj 228 139 spigot;
#X msg 298 87 0, f 1;
#X msg 138 87 1, f 2;
#X obj 281 232 symbol \$1;
#X obj 228 458 list prepend send;
#X obj 228 488 list trim;
#X obj 266 381 oscparse;
#X obj 228 337 oscformat;
#X msg 282 294 set \$1;
#X obj 282 265 makefilename /touch/%s;
#X obj 264 408 print SEND touch;
#X obj 228 518 outlet;
#X obj 429 47 loadbang;
#X msg 429 90 1;
#X obj 228 177 t a b, f 8;
#X text 304 178 <-- PROBLEM: this needs to support lists;
#X connect 0 0 6 0;
#X connect 2 0 8 0;
#X connect 4 0 7 0;
#X connect 6 0 20 0;
#X connect 7 0 6 1;
#X connect 8 0 6 1;
#X connect 9 0 15 0;
#X connect 10 0 11 0;
#X connect 11 0 17 0;
#X connect 12 0 16 0;
#X connect 13 0 12 0;
#X connect 13 0 10 0;
#X connect 14 0 13 0;
#X connect 15 0 14 0;
#X connect 18 0 19 0;
#X connect 19 0 6 1;
#X connect 20 0 13 0;
#X connect 20 1 9 0;
