#N canvas 1618 760 676 598 12;
#X obj 49 119 t b f b, f 45;
#X floatatom 49 90 5 0 0 0 - - - 0;
#X obj 39 552 s to-touch;
#X obj 49 59 r \$1;
#X obj 37 522 sync-touch \$1, f 47;
#X obj 271 308 symbol \$2;
#X obj 273 392 pack s f;
#X obj 376 312 f \$3;
#X msg 276 422 \$1 \$2;
#X obj 326 364 *;
#X obj 202 251 t f f b b, f 15;
#X text 271 476 scaled output;
#X obj 381 369 pack s f;
#X msg 384 399 \$1 \$2;
#X text 32 10 ARGS: oscaddr outname outscale parent-patchid;
#X obj 205 154 send \$4-\$2-in;
#X obj 202 193 receive \$4-\$2-out;
#X obj 276 452 send \$4-out;
#X obj 389 434 s \$4-preset-in;
#X text 386 460 unscaled output for preset storage;
#X connect 0 0 4 0;
#X connect 0 1 15 0;
#X connect 0 2 4 2;
#X connect 1 0 0 0;
#X connect 3 0 1 0;
#X connect 4 0 2 0;
#X connect 5 0 6 0;
#X connect 5 0 12 0;
#X connect 6 0 8 0;
#X connect 7 0 9 1;
#X connect 8 0 17 0;
#X connect 9 0 6 1;
#X connect 10 0 4 1;
#X connect 10 1 9 0;
#X connect 10 1 12 1;
#X connect 10 2 5 0;
#X connect 10 3 7 0;
#X connect 12 0 13 0;
#X connect 13 0 18 0;
#X connect 16 0 10 0;
