#N canvas 1243 73 911 891 12;
#X floatatom 147 500 7 0 0 0 - \$0-x1freq - 0;
#X floatatom 201 500 5 0 0 0 - \$0-x1amp - 0;
#X floatatom 239 500 5 0 0 0 - \$0-x1phase - 0;
#X floatatom 147 519 7 0 0 0 - \$0-y1freq - 0;
#X floatatom 201 519 5 0 0 0 - \$0-y1amp - 0;
#X floatatom 239 519 5 0 0 0 - \$0-y1phase - 0;
#X text 145 480 Freq;
#X text 199 480 Amp;
#X text 237 480 Phase;
#X floatatom 240 178 5 0 0 0 - \$0-npoints - 0;
#X obj 108 511 tgl 15 0 empty empty empty 17 7 0 10 #fcfcfc #000000 #000000 0 1;
#X msg 525 668 x1freq \$1;
#X obj 9 256 spigot;
#X obj 9 443 spigot;
#X obj 12 353 spigot;
#X msg 525 584 x1amp \$1;
#X msg 526 501 x1phase \$1;
#X msg 522 694 y1freq \$1;
#X msg 526 609 y1amp \$1;
#X msg 526 525 y1phase \$1;
#X obj 31 159 t b;
#X obj 33 136 loadbang;
#X msg 523 73 npoints \$1;
#X text 131 499 X;
#X text 131 519 Y;
#X msg 524 249 expand \$1;
#X msg 524 132 trailstep \$1;
#X floatatom 240 218 5 0 0 0 - \$0-trailstep - 0;
#X floatatom 240 298 5 0 0 0 - \$0-expand - 0;
#X text 104 218 Trail step;
#X text 104 298 Expand;
#X obj 363 753 t a a, f 16;
#X obj 472 780 outlet;
#X obj 363 780 s \$0-preset-in;
#X obj 76 641 dispatch-send \$0;
#X obj 76 668 send, f 16;
#X obj 110 66 r \$0-preset-in;
#X obj 11 383 s \$0-y1phase;
#X obj 9 302 s \$0-y1freq;
#X obj 10 471 s \$0-y1amp;
#X floatatom 240 358 5 0 0 0 - \$0-headcolor - 0;
#X floatatom 240 378 5 0 0 0 - \$0-trailcolor - 0;
#X text 104 358 Head color;
#X text 104 378 Trail color;
#X msg 524 321 headcolor \$1;
#X msg 524 348 trailcolor \$1;
#X floatatom 240 338 5 0 0 0 - \$0-headrepeat - 0;
#X text 104 338 Head repeat;
#X msg 525 295 headrepeat \$1;
#X floatatom 240 398 5 0 0 0 - \$0-aspectratio - 0;
#X text 104 398 Aspect ratio;
#X msg 524 378 aspectratio \$1;
#X msg 32 188 1;
#X floatatom 240 438 5 0 0 0 - \$0-lacunarity - 0;
#X floatatom 240 458 5 0 0 0 - \$0-persistence - 0;
#X text 104 438 Lacunarity;
#X text 104 458 Persistence;
#X msg 525 435 lacunarity \$1;
#X msg 525 465 persistence \$1;
#X floatatom 240 418 5 1 100 0 - \$0-octaves - 0;
#X msg 524 408 octaves \$1;
#X text 104 418 Octaves;
#X floatatom 240 198 5 0 0 0 - \$0-timestep - 0;
#X text 104 198 Time step;
#X msg 523 103 timestep \$1;
#X text 104 178 Points per trail;
#X msg 525 273 hscroll \$1;
#X msg 522 43 ntrails \$1;
#X msg 524 163 trailoffset \$1;
#X msg 524 191 offsetfreq \$1;
#X msg 524 220 traildiverge \$1;
#X floatatom 240 318 5 0 0 0 - \$0-hscroll - 0;
#X floatatom 240 158 5 0 0 0 - \$0-ntrails - 0;
#X text 104 158 Trails;
#X floatatom 240 238 5 0 0 0 - \$0-trailoffset - 0;
#X text 104 238 Trail offset;
#X floatatom 240 258 5 0 0 0 - \$0-offsetfreq - 0;
#X text 104 258 Trail freq;
#X floatatom 240 278 5 0 0 0 - \$0-traildiverge - 0;
#X text 104 278 Trail divergence;
#X text 104 318 Scroll;
#X obj 103 103 preset-library traildot3d;
#X floatatom 147 538 7 0 0 0 - \$0-z1freq - 0;
#X floatatom 201 538 5 0 0 0 - \$0-z1amp - 0;
#X floatatom 239 538 5 0 0 0 - \$0-z1phase - 0;
#X msg 526 555 z1phase \$1;
#X msg 526 637 z1amp \$1;
#X msg 522 724 z1freq \$1;
#X text 131 539 Z;
#X obj 19 332 s \$0-z1freq;
#X obj 21 413 s \$0-z1phase;
#X obj 20 501 s \$0-z1amp;
#X connect 0 0 11 0;
#X connect 0 0 12 0;
#X connect 1 0 13 0;
#X connect 1 0 15 0;
#X connect 2 0 14 0;
#X connect 2 0 16 0;
#X connect 3 0 17 0;
#X connect 4 0 18 0;
#X connect 5 0 19 0;
#X connect 9 0 22 0;
#X connect 10 0 12 1;
#X connect 10 0 13 1;
#X connect 10 0 14 1;
#X connect 11 0 31 0;
#X connect 12 0 38 0;
#X connect 12 0 89 0;
#X connect 13 0 39 0;
#X connect 13 0 91 0;
#X connect 14 0 37 0;
#X connect 14 0 90 0;
#X connect 15 0 31 0;
#X connect 16 0 31 0;
#X connect 17 0 31 0;
#X connect 18 0 31 0;
#X connect 19 0 31 0;
#X connect 20 0 52 0;
#X connect 21 0 20 0;
#X connect 22 0 31 0;
#X connect 25 0 31 0;
#X connect 26 0 31 0;
#X connect 27 0 26 0;
#X connect 28 0 25 0;
#X connect 31 0 33 0;
#X connect 31 1 32 0;
#X connect 34 0 35 0;
#X connect 34 1 35 1;
#X connect 36 0 81 0;
#X connect 40 0 44 0;
#X connect 41 0 45 0;
#X connect 44 0 31 0;
#X connect 45 0 31 0;
#X connect 46 0 48 0;
#X connect 48 0 31 0;
#X connect 49 0 51 0;
#X connect 51 0 31 0;
#X connect 52 0 10 0;
#X connect 53 0 57 0;
#X connect 54 0 58 0;
#X connect 57 0 31 0;
#X connect 58 0 31 0;
#X connect 59 0 60 0;
#X connect 60 0 31 0;
#X connect 62 0 64 0;
#X connect 64 0 31 0;
#X connect 66 0 31 0;
#X connect 67 0 31 0;
#X connect 68 0 31 0;
#X connect 69 0 31 0;
#X connect 70 0 31 0;
#X connect 71 0 66 0;
#X connect 72 0 67 0;
#X connect 74 0 68 0;
#X connect 76 0 69 0;
#X connect 78 0 70 0;
#X connect 81 0 34 0;
#X connect 82 0 87 0;
#X connect 83 0 86 0;
#X connect 84 0 85 0;
#X connect 85 0 31 0;
#X connect 86 0 31 0;
#X connect 87 0 31 0;
#X coords 0 -1 1 1 180 464 2 100 100;
