#N canvas 803 256 629 684 12;
#X floatatom 147 400 7 0 0 0 - \$0-x1freq - 0;
#X floatatom 201 400 5 0 0 0 - \$0-x1amp - 0;
#X floatatom 239 400 5 0 0 0 - \$0-x1phase - 0;
#X floatatom 147 419 7 0 0 0 - \$0-y1freq - 0;
#X floatatom 201 419 5 0 0 0 - \$0-y1amp - 0;
#X floatatom 239 419 5 0 0 0 - \$0-y1phase - 0;
#X text 145 380 Freq;
#X text 199 380 Amp;
#X text 237 380 Phase;
#X floatatom 240 158 5 0 0 0 - \$0-npoints - 0;
#X text 104 158 Points;
#X obj 108 411 tgl 15 0 empty empty empty 17 7 0 10 #fcfcfc #000000 #000000 0 1;
#X msg 357 493 x1freq \$1;
#X obj 9 256 spigot;
#X obj 10 374 spigot;
#X obj 11 318 spigot;
#X msg 357 439 x1amp \$1;
#X msg 358 386 x1phase \$1;
#X msg 354 519 y1freq \$1;
#X msg 358 464 y1amp \$1;
#X msg 358 410 y1phase \$1;
#X obj 31 159 t b;
#X obj 33 136 loadbang;
#X msg 355 78 npoints \$1;
#X text 131 399 X;
#X text 131 419 Y;
#X msg 356 164 expand \$1;
#X msg 356 137 trailstep \$1;
#X obj 104 102 preset-library traildot;
#X floatatom 240 198 5 0 0 0 - \$0-trailstep - 0;
#X floatatom 240 218 5 0 0 0 - \$0-expand - 0;
#X text 104 198 Trail step;
#X text 104 218 Expand;
#X obj 321 555 t a a, f 16;
#X obj 430 582 outlet;
#X obj 321 582 s \$0-preset-in;
#X obj 104 461 dispatch-send \$0;
#X obj 104 488 send, f 16;
#X obj 110 66 r \$0-preset-in;
#X obj 11 383 s \$0-y1phase;
#X obj 9 302 s \$0-y1freq;
#X obj 10 400 s \$0-y1amp;
#X floatatom 240 258 5 0 0 0 - \$0-headcolor - 0;
#X floatatom 240 278 5 0 0 0 - \$0-trailcolor - 0;
#X text 104 258 Head color;
#X text 104 278 Trail color;
#X msg 356 216 headcolor \$1;
#X msg 356 243 trailcolor \$1;
#X floatatom 240 238 5 0 0 0 - \$0-headrepeat - 0;
#X text 104 238 Head repeat;
#X msg 357 190 headrepeat \$1;
#X floatatom 240 298 5 0 0 0 - \$0-aspectratio - 0;
#X text 104 298 Aspect ratio;
#X msg 356 273 aspectratio \$1;
#X msg 32 188 1;
#X floatatom 240 338 5 0 0 0 - \$0-lacunarity - 0;
#X floatatom 240 358 5 0 0 0 - \$0-persistence - 0;
#X text 104 338 Lacunarity;
#X text 104 358 Persistence;
#X msg 357 330 lacunarity \$1;
#X msg 357 360 persistence \$1;
#X floatatom 240 318 5 1 100 0 - \$0-octaves - 0;
#X msg 356 303 octaves \$1;
#X text 104 318 Octaves;
#X floatatom 240 178 5 0 0 0 - \$0-timestep - 0;
#X text 104 178 Time step;
#X msg 355 108 timestep \$1;
#X connect 0 0 12 0;
#X connect 0 0 13 0;
#X connect 1 0 14 0;
#X connect 1 0 16 0;
#X connect 2 0 15 0;
#X connect 2 0 17 0;
#X connect 3 0 18 0;
#X connect 4 0 19 0;
#X connect 5 0 20 0;
#X connect 9 0 23 0;
#X connect 11 0 13 1;
#X connect 11 0 14 1;
#X connect 11 0 15 1;
#X connect 12 0 33 0;
#X connect 13 0 40 0;
#X connect 14 0 41 0;
#X connect 15 0 39 0;
#X connect 16 0 33 0;
#X connect 17 0 33 0;
#X connect 18 0 33 0;
#X connect 19 0 33 0;
#X connect 20 0 33 0;
#X connect 21 0 54 0;
#X connect 22 0 21 0;
#X connect 23 0 33 0;
#X connect 26 0 33 0;
#X connect 27 0 33 0;
#X connect 28 0 36 0;
#X connect 29 0 27 0;
#X connect 30 0 26 0;
#X connect 33 0 35 0;
#X connect 33 1 34 0;
#X connect 36 0 37 0;
#X connect 36 1 37 1;
#X connect 38 0 28 0;
#X connect 42 0 46 0;
#X connect 43 0 47 0;
#X connect 46 0 33 0;
#X connect 47 0 33 0;
#X connect 48 0 50 0;
#X connect 50 0 33 0;
#X connect 51 0 53 0;
#X connect 53 0 33 0;
#X connect 54 0 11 0;
#X connect 55 0 59 0;
#X connect 56 0 60 0;
#X connect 59 0 33 0;
#X connect 60 0 33 0;
#X connect 61 0 62 0;
#X connect 62 0 33 0;
#X connect 64 0 66 0;
#X connect 66 0 33 0;
#X coords 0 -1 1 1 180 342 2 100 100;
