#N canvas 1693 521 522 446 12;
#X msg 345 275 bypass \$1;
#X obj 410 367 outlet;
#X floatatom 198 122 5 0 0 0 - - - 0;
#X floatatom 237 122 5 0 0 0 - - - 0;
#X obj 198 145 tgl 20 0 empty empty empty 0 -10 0 12 #fcfcfc #000000 #000000 0 1;
#X text 106 145 Border;
#X obj 198 166 tgl 20 0 empty empty empty 0 -10 0 12 #fcfcfc #000000 #000000 0 1;
#X obj 198 187 tgl 20 0 empty empty empty 0 -10 0 12 #fcfcfc #000000 #000000 0 1;
#X text 106 187 Bypass;
#X obj 303 330 t a a, f 16;
#X text 106 122 Radius;
#X text 196 102 In;
#X text 236 102 Out;
#X msg 307 79 innerrad \$1;
#X msg 400 79 outerrad \$1;
#X msg 341 168 showbounds \$1;
#X msg 357 218 removeblanks \$1;
#X text 106 166 Cull;
#X connect 0 0 9 0;
#X connect 2 0 13 0;
#X connect 3 0 14 0;
#X connect 4 0 15 0;
#X connect 6 0 16 0;
#X connect 7 0 0 0;
#X connect 9 1 1 0;
#X connect 13 0 9 0;
#X connect 14 0 9 0;
#X connect 15 0 9 0;
#X connect 16 0 9 0;
#X coords 0 -1 1 1 180 110 2 100 100;
